M48
; DRILL file {KiCad (5.1.2)-2} date 7/4/2021 3:22:27 PM
; FORMAT={-:-/ absolute / metric / decimal}
; #@! TF.CreationDate,2021-07-04T15:22:27+03:00
; #@! TF.GenerationSoftware,Kicad,Pcbnew,(5.1.2)-2
; #@! TF.FileFunction,Plated,1,2,PTH
FMAT,2
METRIC
T1C0.400
T2C0.500
T3C0.750
T4C1.000
T5C1.100
T6C1.320
T7C3.000
%
G90
G05
T1
X56.45Y-116.5
X56.8Y-121.2
X77.49Y-32.09
X81.013Y-70.087
X85.3Y-50.1
X85.5Y-33.15
X93.5Y-96.9
X95.25Y-90.25
X95.45Y-32.65
X102.5Y-34.0
X105.15Y-58.05
X107.15Y-69.5
X112.6Y-32.6
X114.95Y-54.55
X117.75Y-33.9
X131.25Y-73.95
X131.9Y-62.2
T2
X89.25Y-102.55
X89.909Y-100.959
X89.909Y-104.141
X91.5Y-100.3
X91.5Y-104.8
X93.091Y-100.959
X93.091Y-104.141
X93.75Y-102.55
X144.75Y-152.0
X145.409Y-150.409
X145.409Y-153.591
X147.0Y-149.75
X147.0Y-154.25
X148.591Y-150.409
X148.591Y-153.591
X149.25Y-152.0
X31.7Y-65.0
X32.359Y-63.409
X32.359Y-66.591
X33.95Y-62.75
X33.95Y-67.25
X35.541Y-63.409
X35.541Y-66.591
X36.2Y-65.0
X65.1Y-45.95
X65.759Y-44.359
X65.759Y-47.541
X67.35Y-43.7
X67.35Y-48.2
X68.941Y-44.359
X68.941Y-47.541
X69.6Y-45.95
X120.75Y-46.0
X121.409Y-44.409
X121.409Y-47.591
X123.0Y-43.75
X123.0Y-48.25
X124.591Y-44.409
X124.591Y-47.591
X125.25Y-46.0
X30.75Y-152.0
X31.409Y-150.409
X31.409Y-153.591
X33.0Y-149.75
X33.0Y-154.25
X34.591Y-150.409
X34.591Y-153.591
X35.25Y-152.0
X146.25Y-65.0
X146.909Y-63.409
X146.909Y-66.591
X148.5Y-62.75
X148.5Y-67.25
X150.091Y-63.409
X150.091Y-66.591
X150.75Y-65.0
T3
X73.33Y-37.68
X74.6Y-36.41
X74.6Y-38.95
X116.4Y-36.85
X116.4Y-39.39
X117.67Y-38.12
X108.23Y-38.03
X109.5Y-36.76
X109.5Y-39.3
X81.65Y-58.0
X81.65Y-60.54
X82.92Y-59.27
X99.65Y-36.45
X99.65Y-38.99
X100.92Y-37.72
X109.38Y-59.58
X110.65Y-58.31
X110.65Y-60.85
X91.78Y-58.78
X93.05Y-57.51
X93.05Y-60.05
X117.85Y-58.3
X117.85Y-60.84
X119.12Y-59.57
X91.38Y-37.68
X92.65Y-36.41
X92.65Y-38.95
X100.0Y-57.6
X100.0Y-60.14
X101.27Y-58.87
X81.65Y-36.5
X81.65Y-39.04
X82.92Y-37.77
X73.23Y-59.23
X74.5Y-57.96
X74.5Y-60.5
T4
X111.15Y-50.3
X113.69Y-50.3
X116.23Y-50.3
X115.62Y-73.04
X115.62Y-75.58
X115.62Y-78.12
X115.62Y-80.66
X115.62Y-83.2
X115.62Y-85.74
X115.62Y-88.28
X115.62Y-90.82
X115.62Y-93.36
X115.62Y-95.9
X115.62Y-98.44
X115.62Y-100.98
X115.62Y-103.52
X115.62Y-106.06
X115.62Y-108.6
X115.62Y-111.14
X115.62Y-113.68
X115.62Y-116.22
X115.62Y-118.76
X115.62Y-121.3
X115.62Y-123.84
X115.62Y-126.38
X115.62Y-128.92
X115.62Y-131.46
X115.62Y-134.0
X118.16Y-73.04
X118.16Y-75.58
X118.16Y-78.12
X118.16Y-80.66
X118.16Y-83.2
X118.16Y-85.74
X118.16Y-88.28
X118.16Y-90.82
X118.16Y-93.36
X118.16Y-95.9
X118.16Y-98.44
X118.16Y-100.98
X118.16Y-103.52
X118.16Y-106.06
X118.16Y-108.6
X118.16Y-111.14
X118.16Y-113.68
X118.16Y-116.22
X118.16Y-118.76
X118.16Y-121.3
X118.16Y-123.84
X118.16Y-126.38
X118.16Y-128.92
X118.16Y-131.46
X118.16Y-134.0
X128.0Y-140.0
X128.0Y-142.54
X130.54Y-140.0
X130.54Y-142.54
X133.08Y-140.0
X133.08Y-142.54
X135.62Y-140.0
X135.62Y-142.54
X92.95Y-29.3
X95.49Y-29.3
X98.03Y-29.3
X143.0Y-140.0
X143.0Y-142.54
X145.54Y-140.0
X145.54Y-142.54
X148.08Y-140.0
X148.08Y-142.54
X150.62Y-140.0
X150.62Y-142.54
X131.88Y-147.46
X131.88Y-150.0
X134.42Y-147.46
X134.42Y-150.0
X136.96Y-147.46
X136.96Y-150.0
X139.5Y-147.46
X139.5Y-150.0
X39.0Y-131.66
X39.0Y-134.2
X148.9Y-129.15
X74.95Y-28.5
X77.49Y-28.5
X80.03Y-28.5
X127.9Y-78.15
X44.97Y-65.35
X44.97Y-67.89
X47.51Y-65.35
X47.51Y-67.89
X50.05Y-65.35
X50.05Y-67.89
X148.9Y-78.15
X33.35Y-130.55
X33.35Y-133.09
X33.35Y-135.63
X75.7Y-49.95
X78.24Y-49.95
X80.78Y-49.95
X93.65Y-50.05
X96.19Y-50.05
X98.73Y-50.05
X64.8Y-73.04
X64.8Y-75.58
X64.8Y-78.12
X64.8Y-80.66
X64.8Y-83.2
X64.8Y-85.74
X64.8Y-88.28
X64.8Y-90.82
X64.8Y-93.36
X64.8Y-95.9
X64.8Y-98.44
X64.8Y-100.98
X64.8Y-103.52
X64.8Y-106.06
X64.8Y-108.6
X64.8Y-111.14
X64.8Y-113.68
X64.8Y-116.22
X64.8Y-118.76
X64.8Y-121.3
X64.8Y-123.84
X64.8Y-126.38
X64.8Y-128.92
X64.8Y-131.46
X64.8Y-134.0
X67.34Y-73.04
X67.34Y-75.58
X67.34Y-78.12
X67.34Y-80.66
X67.34Y-83.2
X67.34Y-85.74
X67.34Y-88.28
X67.34Y-90.82
X67.34Y-93.36
X67.34Y-95.9
X67.34Y-98.44
X67.34Y-100.98
X67.34Y-103.52
X67.34Y-106.06
X67.34Y-108.6
X67.34Y-111.14
X67.34Y-113.68
X67.34Y-116.22
X67.34Y-118.76
X67.34Y-121.3
X67.34Y-123.84
X67.34Y-126.38
X67.34Y-128.92
X67.34Y-131.46
X67.34Y-134.0
X110.65Y-29.1
X113.19Y-29.1
X115.73Y-29.1
X127.9Y-129.15
T5
X46.1Y-89.3
X46.1Y-93.8
X52.6Y-89.3
X52.6Y-93.8
X33.45Y-78.25
X33.45Y-82.75
X39.95Y-78.25
X39.95Y-82.75
X46.3Y-78.25
X46.3Y-82.75
X52.8Y-78.25
X52.8Y-82.75
X33.4Y-89.15
X33.4Y-93.65
X39.9Y-89.15
X39.9Y-93.65
T6
X43.3Y-150.05
X48.3Y-150.05
T7
X91.5Y-102.55
X147.0Y-152.0
X33.95Y-65.0
X67.35Y-46.0
X123.0Y-46.0
X33.0Y-152.0
X148.5Y-65.0
T0
M30
