G04 #@! TF.GenerationSoftware,KiCad,Pcbnew,(5.1.2)-2*
G04 #@! TF.CreationDate,2021-07-04T15:20:40+03:00*
G04 #@! TF.ProjectId,control_board,636f6e74-726f-46c5-9f62-6f6172642e6b,rev?*
G04 #@! TF.SameCoordinates,Original*
G04 #@! TF.FileFunction,Legend,Bot*
G04 #@! TF.FilePolarity,Positive*
%FSLAX46Y46*%
G04 Gerber Fmt 4.6, Leading zero omitted, Abs format (unit mm)*
G04 Created by KiCad (PCBNEW (5.1.2)-2) date 2021-07-04 15:20:40*
%MOMM*%
%LPD*%
G04 APERTURE LIST*
%ADD10C,0.600000*%
%ADD11C,0.200000*%
%ADD12C,0.500000*%
%ADD13C,0.010000*%
%ADD14O,2.082000X4.062000*%
%ADD15R,2.082000X4.062000*%
%ADD16C,6.102000*%
%ADD17C,0.902000*%
%ADD18R,1.802000X1.802000*%
%ADD19O,1.802000X1.802000*%
%ADD20C,2.102000*%
%ADD21C,1.402000*%
%ADD22R,1.402000X1.402000*%
G04 APERTURE END LIST*
D10*
X92957142Y-76564285D02*
X92528571Y-76707142D01*
X91814285Y-76707142D01*
X91528571Y-76564285D01*
X91385714Y-76421428D01*
X91242857Y-76135714D01*
X91242857Y-75850000D01*
X91385714Y-75564285D01*
X91528571Y-75421428D01*
X91814285Y-75278571D01*
X92385714Y-75135714D01*
X92671428Y-74992857D01*
X92814285Y-74850000D01*
X92957142Y-74564285D01*
X92957142Y-74278571D01*
X92814285Y-73992857D01*
X92671428Y-73850000D01*
X92385714Y-73707142D01*
X91671428Y-73707142D01*
X91242857Y-73850000D01*
X89528571Y-76707142D02*
X89814285Y-76564285D01*
X89957142Y-76421428D01*
X90100000Y-76135714D01*
X90100000Y-75278571D01*
X89957142Y-74992857D01*
X89814285Y-74850000D01*
X89528571Y-74707142D01*
X89100000Y-74707142D01*
X88814285Y-74850000D01*
X88671428Y-74992857D01*
X88528571Y-75278571D01*
X88528571Y-76135714D01*
X88671428Y-76421428D01*
X88814285Y-76564285D01*
X89100000Y-76707142D01*
X89528571Y-76707142D01*
X86814285Y-76707142D02*
X87100000Y-76564285D01*
X87242857Y-76278571D01*
X87242857Y-73707142D01*
X84385714Y-74707142D02*
X84385714Y-76707142D01*
X85671428Y-74707142D02*
X85671428Y-76278571D01*
X85528571Y-76564285D01*
X85242857Y-76707142D01*
X84814285Y-76707142D01*
X84528571Y-76564285D01*
X84385714Y-76421428D01*
X83385714Y-74707142D02*
X82242857Y-74707142D01*
X82957142Y-73707142D02*
X82957142Y-76278571D01*
X82814285Y-76564285D01*
X82528571Y-76707142D01*
X82242857Y-76707142D01*
X81242857Y-76707142D02*
X81242857Y-74707142D01*
X81242857Y-73707142D02*
X81385714Y-73850000D01*
X81242857Y-73992857D01*
X81100000Y-73850000D01*
X81242857Y-73707142D01*
X81242857Y-73992857D01*
X79385714Y-76707142D02*
X79671428Y-76564285D01*
X79814285Y-76421428D01*
X79957142Y-76135714D01*
X79957142Y-75278571D01*
X79814285Y-74992857D01*
X79671428Y-74850000D01*
X79385714Y-74707142D01*
X78957142Y-74707142D01*
X78671428Y-74850000D01*
X78528571Y-74992857D01*
X78385714Y-75278571D01*
X78385714Y-76135714D01*
X78528571Y-76421428D01*
X78671428Y-76564285D01*
X78957142Y-76707142D01*
X79385714Y-76707142D01*
X77100000Y-74707142D02*
X77100000Y-76707142D01*
X77100000Y-74992857D02*
X76957142Y-74850000D01*
X76671428Y-74707142D01*
X76242857Y-74707142D01*
X75957142Y-74850000D01*
X75814285Y-75135714D01*
X75814285Y-76707142D01*
X74528571Y-76564285D02*
X74242857Y-76707142D01*
X73671428Y-76707142D01*
X73385714Y-76564285D01*
X73242857Y-76278571D01*
X73242857Y-76135714D01*
X73385714Y-75850000D01*
X73671428Y-75707142D01*
X74100000Y-75707142D01*
X74385714Y-75564285D01*
X74528571Y-75278571D01*
X74528571Y-75135714D01*
X74385714Y-74850000D01*
X74100000Y-74707142D01*
X73671428Y-74707142D01*
X73385714Y-74850000D01*
X109907142Y-76507142D02*
X109907142Y-73507142D01*
X108907142Y-75650000D01*
X107907142Y-73507142D01*
X107907142Y-76507142D01*
X105192857Y-76364285D02*
X105478571Y-76507142D01*
X106050000Y-76507142D01*
X106335714Y-76364285D01*
X106478571Y-76221428D01*
X106621428Y-75935714D01*
X106621428Y-75078571D01*
X106478571Y-74792857D01*
X106335714Y-74650000D01*
X106050000Y-74507142D01*
X105478571Y-74507142D01*
X105192857Y-74650000D01*
X104335714Y-73507142D02*
X102621428Y-73507142D01*
X103478571Y-76507142D02*
X103478571Y-73507142D01*
X100478571Y-76364285D02*
X100764285Y-76507142D01*
X101335714Y-76507142D01*
X101621428Y-76364285D01*
X101764285Y-76078571D01*
X101764285Y-74935714D01*
X101621428Y-74650000D01*
X101335714Y-74507142D01*
X100764285Y-74507142D01*
X100478571Y-74650000D01*
X100335714Y-74935714D01*
X100335714Y-75221428D01*
X101764285Y-75507142D01*
X97764285Y-76364285D02*
X98050000Y-76507142D01*
X98621428Y-76507142D01*
X98907142Y-76364285D01*
X99050000Y-76221428D01*
X99192857Y-75935714D01*
X99192857Y-75078571D01*
X99050000Y-74792857D01*
X98907142Y-74650000D01*
X98621428Y-74507142D01*
X98050000Y-74507142D01*
X97764285Y-74650000D01*
X96478571Y-76507142D02*
X96478571Y-73507142D01*
X95192857Y-76507142D02*
X95192857Y-74935714D01*
X95335714Y-74650000D01*
X95621428Y-74507142D01*
X96050000Y-74507142D01*
X96335714Y-74650000D01*
X96478571Y-74792857D01*
D11*
X139221428Y-117522946D02*
X137935714Y-117683660D01*
X137792857Y-117772946D01*
X137721428Y-117924732D01*
X137721428Y-117996160D01*
X139721428Y-117460446D02*
X139650000Y-117540803D01*
X139578571Y-117478303D01*
X139650000Y-117397946D01*
X139721428Y-117460446D01*
X139578571Y-117478303D01*
X138221428Y-116290803D02*
X139007142Y-116192589D01*
X139150000Y-116246160D01*
X139221428Y-116380089D01*
X139221428Y-116665803D01*
X139150000Y-116817589D01*
X138292857Y-116281875D02*
X138221428Y-116433660D01*
X138221428Y-116790803D01*
X138292857Y-116924732D01*
X138435714Y-116978303D01*
X138578571Y-116960446D01*
X138721428Y-116871160D01*
X138792857Y-116719375D01*
X138792857Y-116362232D01*
X138864285Y-116210446D01*
X138292857Y-114924732D02*
X138221428Y-115076517D01*
X138221428Y-115362232D01*
X138292857Y-115496160D01*
X138364285Y-115558660D01*
X138507142Y-115612232D01*
X138935714Y-115558660D01*
X139078571Y-115469375D01*
X139150000Y-115389017D01*
X139221428Y-115237232D01*
X139221428Y-114951517D01*
X139150000Y-114817589D01*
X138221428Y-114290803D02*
X139721428Y-114103303D01*
X138792857Y-114076517D02*
X138221428Y-113719375D01*
X139221428Y-113594375D02*
X138650000Y-114237232D01*
X138221428Y-112433660D02*
X139007142Y-112335446D01*
X139150000Y-112389017D01*
X139221428Y-112522946D01*
X139221428Y-112808660D01*
X139150000Y-112960446D01*
X138292857Y-112424732D02*
X138221428Y-112576517D01*
X138221428Y-112933660D01*
X138292857Y-113067589D01*
X138435714Y-113121160D01*
X138578571Y-113103303D01*
X138721428Y-113014017D01*
X138792857Y-112862232D01*
X138792857Y-112505089D01*
X138864285Y-112353303D01*
X139221428Y-110951517D02*
X138007142Y-111103303D01*
X137864285Y-111192589D01*
X137792857Y-111272946D01*
X137721428Y-111424732D01*
X137721428Y-111639017D01*
X137792857Y-111772946D01*
X138292857Y-111067589D02*
X138221428Y-111219375D01*
X138221428Y-111505089D01*
X138292857Y-111639017D01*
X138364285Y-111701517D01*
X138507142Y-111755089D01*
X138935714Y-111701517D01*
X139078571Y-111612232D01*
X139150000Y-111531875D01*
X139221428Y-111380089D01*
X139221428Y-111094375D01*
X139150000Y-110960446D01*
X139221428Y-110380089D02*
X138221428Y-110219375D01*
X138935714Y-109844375D01*
X138221428Y-109647946D01*
X139221428Y-109237232D01*
X138221428Y-108147946D02*
X139007142Y-108049732D01*
X139150000Y-108103303D01*
X139221428Y-108237232D01*
X139221428Y-108522946D01*
X139150000Y-108674732D01*
X138292857Y-108139017D02*
X138221428Y-108290803D01*
X138221428Y-108647946D01*
X138292857Y-108781875D01*
X138435714Y-108835446D01*
X138578571Y-108817589D01*
X138721428Y-108728303D01*
X138792857Y-108576517D01*
X138792857Y-108219375D01*
X138864285Y-108067589D01*
X139221428Y-107451517D02*
X138221428Y-107219375D01*
X139221428Y-106737232D02*
X138221428Y-107219375D01*
X137864285Y-107406875D01*
X137792857Y-107487232D01*
X137721428Y-107639017D01*
X138221428Y-105647946D02*
X139007142Y-105549732D01*
X139150000Y-105603303D01*
X139221428Y-105737232D01*
X139221428Y-106022946D01*
X139150000Y-106174732D01*
X138292857Y-105639017D02*
X138221428Y-105790803D01*
X138221428Y-106147946D01*
X138292857Y-106281875D01*
X138435714Y-106335446D01*
X138578571Y-106317589D01*
X138721428Y-106228303D01*
X138792857Y-106076517D01*
X138792857Y-105719375D01*
X138864285Y-105567589D01*
X138935714Y-103915803D02*
X139007142Y-103978303D01*
X139078571Y-104112232D01*
X139078571Y-104255089D01*
X139007142Y-104406875D01*
X138935714Y-104487232D01*
X138792857Y-104576517D01*
X138650000Y-104594375D01*
X138507142Y-104540803D01*
X138435714Y-104478303D01*
X138364285Y-104344375D01*
X138364285Y-104201517D01*
X138435714Y-104049732D01*
X138507142Y-103969375D01*
X139078571Y-103897946D02*
X138507142Y-103969375D01*
X138435714Y-103906875D01*
X138435714Y-103835446D01*
X138507142Y-103683660D01*
X138650000Y-103594375D01*
X139007142Y-103549732D01*
X139221428Y-103665803D01*
X139364285Y-103862232D01*
X139435714Y-104139017D01*
X139364285Y-104433660D01*
X139221428Y-104665803D01*
X139007142Y-104835446D01*
X138721428Y-104942589D01*
X138435714Y-104906875D01*
X138221428Y-104790803D01*
X138078571Y-104594375D01*
X138007142Y-104317589D01*
X138078571Y-104022946D01*
X138221428Y-103790803D01*
X139221428Y-102237232D02*
X138007142Y-102389017D01*
X137864285Y-102478303D01*
X137792857Y-102558660D01*
X137721428Y-102710446D01*
X137721428Y-102924732D01*
X137792857Y-103058660D01*
X138292857Y-102353303D02*
X138221428Y-102505089D01*
X138221428Y-102790803D01*
X138292857Y-102924732D01*
X138364285Y-102987232D01*
X138507142Y-103040803D01*
X138935714Y-102987232D01*
X139078571Y-102897946D01*
X139150000Y-102817589D01*
X139221428Y-102665803D01*
X139221428Y-102380089D01*
X139150000Y-102246160D01*
X138221428Y-101647946D02*
X139221428Y-101522946D01*
X139078571Y-101540803D02*
X139150000Y-101460446D01*
X139221428Y-101308660D01*
X139221428Y-101094375D01*
X139150000Y-100960446D01*
X139007142Y-100906875D01*
X138221428Y-101005089D01*
X139007142Y-100906875D02*
X139150000Y-100817589D01*
X139221428Y-100665803D01*
X139221428Y-100451517D01*
X139150000Y-100317589D01*
X139007142Y-100264017D01*
X138221428Y-100362232D01*
X138221428Y-99005089D02*
X139007142Y-98906875D01*
X139150000Y-98960446D01*
X139221428Y-99094375D01*
X139221428Y-99380089D01*
X139150000Y-99531875D01*
X138292857Y-98996160D02*
X138221428Y-99147946D01*
X138221428Y-99505089D01*
X138292857Y-99639017D01*
X138435714Y-99692589D01*
X138578571Y-99674732D01*
X138721428Y-99585446D01*
X138792857Y-99433660D01*
X138792857Y-99076517D01*
X138864285Y-98924732D01*
X138221428Y-98290803D02*
X139221428Y-98165803D01*
X139721428Y-98103303D02*
X139650000Y-98183660D01*
X139578571Y-98121160D01*
X139650000Y-98040803D01*
X139721428Y-98103303D01*
X139578571Y-98121160D01*
X138221428Y-97362232D02*
X138292857Y-97496160D01*
X138435714Y-97549732D01*
X139721428Y-97389017D01*
X138364285Y-96772946D02*
X138292857Y-96710446D01*
X138221428Y-96790803D01*
X138292857Y-96853303D01*
X138364285Y-96772946D01*
X138221428Y-96790803D01*
X138292857Y-95424732D02*
X138221428Y-95576517D01*
X138221428Y-95862232D01*
X138292857Y-95996160D01*
X138364285Y-96058660D01*
X138507142Y-96112232D01*
X138935714Y-96058660D01*
X139078571Y-95969375D01*
X139150000Y-95889017D01*
X139221428Y-95737232D01*
X139221428Y-95451517D01*
X139150000Y-95317589D01*
X138221428Y-94576517D02*
X138292857Y-94710446D01*
X138364285Y-94772946D01*
X138507142Y-94826517D01*
X138935714Y-94772946D01*
X139078571Y-94683660D01*
X139150000Y-94603303D01*
X139221428Y-94451517D01*
X139221428Y-94237232D01*
X139150000Y-94103303D01*
X139078571Y-94040803D01*
X138935714Y-93987232D01*
X138507142Y-94040803D01*
X138364285Y-94130089D01*
X138292857Y-94210446D01*
X138221428Y-94362232D01*
X138221428Y-94576517D01*
X138221428Y-93433660D02*
X139221428Y-93308660D01*
X139078571Y-93326517D02*
X139150000Y-93246160D01*
X139221428Y-93094375D01*
X139221428Y-92880089D01*
X139150000Y-92746160D01*
X139007142Y-92692589D01*
X138221428Y-92790803D01*
X139007142Y-92692589D02*
X139150000Y-92603303D01*
X139221428Y-92451517D01*
X139221428Y-92237232D01*
X139150000Y-92103303D01*
X139007142Y-92049732D01*
X138221428Y-92147946D01*
D12*
X133095238Y-128923809D02*
X135095238Y-128923809D01*
X135095238Y-128447619D01*
X135000000Y-128161904D01*
X134809523Y-127971428D01*
X134619047Y-127876190D01*
X134238095Y-127780952D01*
X133952380Y-127780952D01*
X133571428Y-127876190D01*
X133380952Y-127971428D01*
X133190476Y-128161904D01*
X133095238Y-128447619D01*
X133095238Y-128923809D01*
X134142857Y-126923809D02*
X134142857Y-126257142D01*
X133095238Y-125971428D02*
X133095238Y-126923809D01*
X135095238Y-126923809D01*
X135095238Y-125971428D01*
X133190476Y-125209523D02*
X133095238Y-124923809D01*
X133095238Y-124447619D01*
X133190476Y-124257142D01*
X133285714Y-124161904D01*
X133476190Y-124066666D01*
X133666666Y-124066666D01*
X133857142Y-124161904D01*
X133952380Y-124257142D01*
X134047619Y-124447619D01*
X134142857Y-124828571D01*
X134238095Y-125019047D01*
X134333333Y-125114285D01*
X134523809Y-125209523D01*
X134714285Y-125209523D01*
X134904761Y-125114285D01*
X135000000Y-125019047D01*
X135095238Y-124828571D01*
X135095238Y-124352380D01*
X135000000Y-124066666D01*
X133095238Y-123209523D02*
X135095238Y-123209523D01*
X135000000Y-121209523D02*
X135095238Y-121400000D01*
X135095238Y-121685714D01*
X135000000Y-121971428D01*
X134809523Y-122161904D01*
X134619047Y-122257142D01*
X134238095Y-122352380D01*
X133952380Y-122352380D01*
X133571428Y-122257142D01*
X133380952Y-122161904D01*
X133190476Y-121971428D01*
X133095238Y-121685714D01*
X133095238Y-121495238D01*
X133190476Y-121209523D01*
X133285714Y-121114285D01*
X133952380Y-121114285D01*
X133952380Y-121495238D01*
X133095238Y-120257142D02*
X135095238Y-120257142D01*
X133095238Y-119114285D01*
X135095238Y-119114285D01*
X134142857Y-118161904D02*
X134142857Y-117495238D01*
X133095238Y-117209523D02*
X133095238Y-118161904D01*
X135095238Y-118161904D01*
X135095238Y-117209523D01*
X133095238Y-116352380D02*
X135095238Y-116352380D01*
X135095238Y-115876190D01*
X135000000Y-115590476D01*
X134809523Y-115400000D01*
X134619047Y-115304761D01*
X134238095Y-115209523D01*
X133952380Y-115209523D01*
X133571428Y-115304761D01*
X133380952Y-115400000D01*
X133190476Y-115590476D01*
X133095238Y-115876190D01*
X133095238Y-116352380D01*
X134142857Y-112161904D02*
X134047619Y-111876190D01*
X133952380Y-111780952D01*
X133761904Y-111685714D01*
X133476190Y-111685714D01*
X133285714Y-111780952D01*
X133190476Y-111876190D01*
X133095238Y-112066666D01*
X133095238Y-112828571D01*
X135095238Y-112828571D01*
X135095238Y-112161904D01*
X135000000Y-111971428D01*
X134904761Y-111876190D01*
X134714285Y-111780952D01*
X134523809Y-111780952D01*
X134333333Y-111876190D01*
X134238095Y-111971428D01*
X134142857Y-112161904D01*
X134142857Y-112828571D01*
X134047619Y-110447619D02*
X133095238Y-110447619D01*
X135095238Y-111114285D02*
X134047619Y-110447619D01*
X135095238Y-109780952D01*
X133285714Y-107590476D02*
X133190476Y-107495238D01*
X133095238Y-107590476D01*
X133190476Y-107685714D01*
X133285714Y-107590476D01*
X133095238Y-107590476D01*
X134333333Y-107590476D02*
X134238095Y-107495238D01*
X134142857Y-107590476D01*
X134238095Y-107685714D01*
X134333333Y-107590476D01*
X134142857Y-107590476D01*
X135095238Y-104542857D02*
X133666666Y-104542857D01*
X133380952Y-104638095D01*
X133190476Y-104828571D01*
X133095238Y-105114285D01*
X133095238Y-105304761D01*
X133666666Y-103685714D02*
X133666666Y-102733333D01*
X133095238Y-103876190D02*
X135095238Y-103209523D01*
X133095238Y-102542857D01*
X133285714Y-100733333D02*
X133190476Y-100828571D01*
X133095238Y-101114285D01*
X133095238Y-101304761D01*
X133190476Y-101590476D01*
X133380952Y-101780952D01*
X133571428Y-101876190D01*
X133952380Y-101971428D01*
X134238095Y-101971428D01*
X134619047Y-101876190D01*
X134809523Y-101780952D01*
X135000000Y-101590476D01*
X135095238Y-101304761D01*
X135095238Y-101114285D01*
X135000000Y-100828571D01*
X134904761Y-100733333D01*
X133095238Y-99876190D02*
X135095238Y-99876190D01*
X133095238Y-98733333D02*
X134238095Y-99590476D01*
X135095238Y-98733333D02*
X133952380Y-99876190D01*
X133095238Y-96352380D02*
X135095238Y-96352380D01*
X133666666Y-95685714D01*
X135095238Y-95019047D01*
X133095238Y-95019047D01*
X133285714Y-92923809D02*
X133190476Y-93019047D01*
X133095238Y-93304761D01*
X133095238Y-93495238D01*
X133190476Y-93780952D01*
X133380952Y-93971428D01*
X133571428Y-94066666D01*
X133952380Y-94161904D01*
X134238095Y-94161904D01*
X134619047Y-94066666D01*
X134809523Y-93971428D01*
X135000000Y-93780952D01*
X135095238Y-93495238D01*
X135095238Y-93304761D01*
X135000000Y-93019047D01*
X134904761Y-92923809D01*
X133095238Y-91114285D02*
X133095238Y-92066666D01*
X135095238Y-92066666D01*
X134142857Y-90447619D02*
X134142857Y-89780952D01*
X133095238Y-89495238D02*
X133095238Y-90447619D01*
X135095238Y-90447619D01*
X135095238Y-89495238D01*
X133666666Y-88733333D02*
X133666666Y-87780952D01*
X133095238Y-88923809D02*
X135095238Y-88257142D01*
X133095238Y-87590476D01*
X133095238Y-86923809D02*
X135095238Y-86923809D01*
X133095238Y-85780952D01*
X135095238Y-85780952D01*
X133190476Y-84923809D02*
X133095238Y-84638095D01*
X133095238Y-84161904D01*
X133190476Y-83971428D01*
X133285714Y-83876190D01*
X133476190Y-83780952D01*
X133666666Y-83780952D01*
X133857142Y-83876190D01*
X133952380Y-83971428D01*
X134047619Y-84161904D01*
X134142857Y-84542857D01*
X134238095Y-84733333D01*
X134333333Y-84828571D01*
X134523809Y-84923809D01*
X134714285Y-84923809D01*
X134904761Y-84828571D01*
X135000000Y-84733333D01*
X135095238Y-84542857D01*
X135095238Y-84066666D01*
X135000000Y-83780952D01*
D13*
G36*
X91151643Y-78404997D02*
G01*
X90888323Y-78406439D01*
X90697754Y-78410342D01*
X90567655Y-78417937D01*
X90485743Y-78430450D01*
X90439734Y-78449111D01*
X90417347Y-78475148D01*
X90406298Y-78509788D01*
X90405224Y-78514272D01*
X90388441Y-78595189D01*
X90357375Y-78754842D01*
X90315258Y-78976238D01*
X90265321Y-79242385D01*
X90210797Y-79536290D01*
X90208893Y-79546612D01*
X90154277Y-79834636D01*
X90103178Y-80089115D01*
X90058894Y-80294785D01*
X90024721Y-80436385D01*
X90003957Y-80498650D01*
X90002967Y-80499753D01*
X89941801Y-80530159D01*
X89815690Y-80580828D01*
X89651869Y-80640822D01*
X89650957Y-80641142D01*
X89444612Y-80718704D01*
X89201340Y-80817507D01*
X88972031Y-80916848D01*
X88961178Y-80921760D01*
X88587683Y-81091276D01*
X87760635Y-80526495D01*
X87506923Y-80354320D01*
X87277098Y-80200395D01*
X87084475Y-80073474D01*
X86942368Y-79982309D01*
X86864093Y-79935655D01*
X86856660Y-79932195D01*
X86799776Y-79947600D01*
X86693531Y-80021927D01*
X86533781Y-80158681D01*
X86316384Y-80361368D01*
X86094452Y-80577008D01*
X85880509Y-80789503D01*
X85689031Y-80983410D01*
X85531545Y-81146754D01*
X85419578Y-81267561D01*
X85364657Y-81333855D01*
X85362614Y-81337268D01*
X85356542Y-81382761D01*
X85379416Y-81457056D01*
X85436885Y-81570186D01*
X85534601Y-81732185D01*
X85678216Y-81953086D01*
X85869667Y-82237460D01*
X86039577Y-82487759D01*
X86191462Y-82712250D01*
X86316545Y-82897900D01*
X86406051Y-83031675D01*
X86451200Y-83100542D01*
X86454042Y-83105218D01*
X86448530Y-83171201D01*
X86406745Y-83299448D01*
X86337003Y-83465720D01*
X86312146Y-83518819D01*
X86203689Y-83755377D01*
X86087980Y-84023789D01*
X85993985Y-84256035D01*
X85926255Y-84428407D01*
X85872457Y-84559403D01*
X85841369Y-84627867D01*
X85837504Y-84633142D01*
X85780329Y-84641880D01*
X85645552Y-84665823D01*
X85451094Y-84701562D01*
X85214875Y-84745689D01*
X84954816Y-84794795D01*
X84688837Y-84845472D01*
X84434857Y-84894313D01*
X84210799Y-84937909D01*
X84034580Y-84972851D01*
X83924123Y-84995732D01*
X83897030Y-85002201D01*
X83869044Y-85018167D01*
X83847919Y-85054227D01*
X83832703Y-85122552D01*
X83822447Y-85235315D01*
X83816200Y-85404686D01*
X83813012Y-85642838D01*
X83811933Y-85961942D01*
X83811877Y-86092741D01*
X83811877Y-87156511D01*
X84067337Y-87206933D01*
X84209463Y-87234273D01*
X84421550Y-87274182D01*
X84677807Y-87321845D01*
X84952442Y-87372446D01*
X85028352Y-87386344D01*
X85281779Y-87435617D01*
X85502553Y-87484070D01*
X85672143Y-87527215D01*
X85772020Y-87560563D01*
X85788657Y-87570502D01*
X85829511Y-87640891D01*
X85888087Y-87777283D01*
X85953045Y-87952805D01*
X85965929Y-87990613D01*
X86051066Y-88225030D01*
X86156744Y-88489524D01*
X86260160Y-88727041D01*
X86260670Y-88728144D01*
X86432888Y-89100733D01*
X85866476Y-89933893D01*
X85300065Y-90767053D01*
X86027298Y-91495500D01*
X86247252Y-91712302D01*
X86447868Y-91903414D01*
X86617878Y-92058636D01*
X86746015Y-92167764D01*
X86821011Y-92220595D01*
X86831769Y-92223947D01*
X86894933Y-92197549D01*
X87023820Y-92124160D01*
X87204351Y-92012484D01*
X87422446Y-91871224D01*
X87658246Y-91713027D01*
X87897564Y-91551664D01*
X88110941Y-91411252D01*
X88284825Y-91300431D01*
X88405666Y-91227838D01*
X88459737Y-91202108D01*
X88525706Y-91223880D01*
X88650802Y-91281251D01*
X88809220Y-91362300D01*
X88826013Y-91371309D01*
X89039348Y-91478300D01*
X89185636Y-91530772D01*
X89276620Y-91531330D01*
X89324041Y-91482580D01*
X89324317Y-91481897D01*
X89348020Y-91424164D01*
X89404551Y-91287115D01*
X89489526Y-91081357D01*
X89598562Y-90817498D01*
X89727276Y-90506144D01*
X89871285Y-90157904D01*
X90010749Y-89820744D01*
X90164020Y-89448666D01*
X90304749Y-89103987D01*
X90428718Y-88797271D01*
X90531709Y-88539085D01*
X90609504Y-88339994D01*
X90657886Y-88210565D01*
X90672796Y-88162261D01*
X90635406Y-88106850D01*
X90537602Y-88018538D01*
X90407185Y-87921174D01*
X90035777Y-87613253D01*
X89745470Y-87260304D01*
X89539744Y-86869761D01*
X89422077Y-86449057D01*
X89395949Y-86005629D01*
X89414940Y-85800958D01*
X89518417Y-85376323D01*
X89696627Y-85001336D01*
X89938518Y-84679696D01*
X90233037Y-84415101D01*
X90569129Y-84211250D01*
X90935742Y-84071842D01*
X91321823Y-84000574D01*
X91716319Y-84001145D01*
X92108175Y-84077254D01*
X92486340Y-84232599D01*
X92839760Y-84470879D01*
X92987273Y-84605639D01*
X93270184Y-84951679D01*
X93467168Y-85329826D01*
X93579536Y-85729055D01*
X93608599Y-86138345D01*
X93555669Y-86546672D01*
X93422057Y-86943013D01*
X93209075Y-87316345D01*
X92918034Y-87655645D01*
X92592814Y-87921174D01*
X92457348Y-88022671D01*
X92361651Y-88110025D01*
X92327203Y-88162343D01*
X92345240Y-88219398D01*
X92396538Y-88355698D01*
X92476876Y-88560678D01*
X92582036Y-88823772D01*
X92707796Y-89134416D01*
X92849937Y-89482043D01*
X92989635Y-89820826D01*
X93143759Y-90193222D01*
X93286518Y-90538307D01*
X93413529Y-90845477D01*
X93520411Y-91104125D01*
X93602780Y-91303647D01*
X93656253Y-91433435D01*
X93676067Y-91481897D01*
X93722876Y-91531129D01*
X93813417Y-91530985D01*
X93959342Y-91478877D01*
X94172302Y-91372216D01*
X94173986Y-91371309D01*
X94334330Y-91288536D01*
X94463948Y-91228242D01*
X94537037Y-91202346D01*
X94540263Y-91202108D01*
X94595284Y-91228374D01*
X94716757Y-91301416D01*
X94891129Y-91412595D01*
X95104850Y-91553273D01*
X95341753Y-91713027D01*
X95582945Y-91874779D01*
X95800326Y-92015450D01*
X95979816Y-92126335D01*
X96107336Y-92198730D01*
X96168230Y-92223947D01*
X96224303Y-92190803D01*
X96337040Y-92098173D01*
X96495177Y-91956257D01*
X96687449Y-91775255D01*
X96902591Y-91565369D01*
X96972952Y-91495249D01*
X97700434Y-90766552D01*
X97146705Y-89953900D01*
X96978423Y-89704342D01*
X96830729Y-89480366D01*
X96711910Y-89294949D01*
X96630250Y-89161065D01*
X96594036Y-89091690D01*
X96592975Y-89086755D01*
X96612067Y-89021364D01*
X96663418Y-88889825D01*
X96738140Y-88714181D01*
X96790588Y-88596591D01*
X96888654Y-88371461D01*
X96981007Y-88144015D01*
X97052606Y-87951839D01*
X97072056Y-87893295D01*
X97127314Y-87736956D01*
X97181331Y-87616158D01*
X97211001Y-87570502D01*
X97276476Y-87542561D01*
X97419376Y-87502951D01*
X97621161Y-87456162D01*
X97863288Y-87406683D01*
X97971647Y-87386344D01*
X98246811Y-87335781D01*
X98510746Y-87286822D01*
X98737659Y-87244281D01*
X98901761Y-87212975D01*
X98932662Y-87206933D01*
X99188122Y-87156511D01*
X99188122Y-86092741D01*
X99187548Y-85742950D01*
X99185193Y-85478300D01*
X99180107Y-85286622D01*
X99171339Y-85155744D01*
X99157938Y-85073493D01*
X99138954Y-85027698D01*
X99113438Y-85006188D01*
X99102969Y-85002201D01*
X99039826Y-84988056D01*
X98900325Y-84959834D01*
X98702389Y-84920943D01*
X98463935Y-84874792D01*
X98202886Y-84824788D01*
X97937161Y-84774341D01*
X97684681Y-84726858D01*
X97463365Y-84685748D01*
X97291134Y-84654419D01*
X97185908Y-84636278D01*
X97162495Y-84633142D01*
X97141284Y-84591173D01*
X97094332Y-84479370D01*
X97030419Y-84318888D01*
X97006014Y-84256035D01*
X96907580Y-84013203D01*
X96791666Y-83744918D01*
X96687853Y-83518819D01*
X96611465Y-83345935D01*
X96560644Y-83203877D01*
X96543679Y-83116878D01*
X96546384Y-83105218D01*
X96582239Y-83050170D01*
X96664108Y-82927739D01*
X96783205Y-82750962D01*
X96930742Y-82532877D01*
X97097931Y-82286520D01*
X97130990Y-82237891D01*
X97324980Y-81949773D01*
X97467579Y-81730377D01*
X97564473Y-81569602D01*
X97621346Y-81457346D01*
X97643884Y-81383510D01*
X97637772Y-81337990D01*
X97637616Y-81337700D01*
X97589511Y-81277910D01*
X97483111Y-81162319D01*
X97329948Y-81002909D01*
X97141555Y-80811665D01*
X96929465Y-80600568D01*
X96905547Y-80577008D01*
X96638262Y-80318172D01*
X96431992Y-80128117D01*
X96282592Y-80003337D01*
X96185920Y-79940327D01*
X96143339Y-79932195D01*
X96081196Y-79967672D01*
X95952237Y-80049623D01*
X95769778Y-80169292D01*
X95547133Y-80317926D01*
X95297616Y-80486772D01*
X95239364Y-80526495D01*
X94412316Y-81091276D01*
X94038821Y-80921760D01*
X93811684Y-80822971D01*
X93567872Y-80723617D01*
X93358275Y-80644401D01*
X93349042Y-80641142D01*
X93185095Y-80581129D01*
X93058715Y-80530382D01*
X92997137Y-80499841D01*
X92997032Y-80499753D01*
X92977493Y-80444548D01*
X92944279Y-80308779D01*
X92900687Y-80107709D01*
X92850016Y-79856599D01*
X92795561Y-79570713D01*
X92791106Y-79546612D01*
X92736482Y-79252059D01*
X92686336Y-78984684D01*
X92643898Y-78761480D01*
X92612402Y-78599439D01*
X92595077Y-78515553D01*
X92594775Y-78514272D01*
X92584232Y-78478588D01*
X92563731Y-78451646D01*
X92520989Y-78432218D01*
X92443724Y-78419075D01*
X92319652Y-78410989D01*
X92136491Y-78406732D01*
X91881958Y-78405075D01*
X91543769Y-78404790D01*
X91500000Y-78404790D01*
X91151643Y-78404997D01*
X91151643Y-78404997D01*
G37*
X91151643Y-78404997D02*
X90888323Y-78406439D01*
X90697754Y-78410342D01*
X90567655Y-78417937D01*
X90485743Y-78430450D01*
X90439734Y-78449111D01*
X90417347Y-78475148D01*
X90406298Y-78509788D01*
X90405224Y-78514272D01*
X90388441Y-78595189D01*
X90357375Y-78754842D01*
X90315258Y-78976238D01*
X90265321Y-79242385D01*
X90210797Y-79536290D01*
X90208893Y-79546612D01*
X90154277Y-79834636D01*
X90103178Y-80089115D01*
X90058894Y-80294785D01*
X90024721Y-80436385D01*
X90003957Y-80498650D01*
X90002967Y-80499753D01*
X89941801Y-80530159D01*
X89815690Y-80580828D01*
X89651869Y-80640822D01*
X89650957Y-80641142D01*
X89444612Y-80718704D01*
X89201340Y-80817507D01*
X88972031Y-80916848D01*
X88961178Y-80921760D01*
X88587683Y-81091276D01*
X87760635Y-80526495D01*
X87506923Y-80354320D01*
X87277098Y-80200395D01*
X87084475Y-80073474D01*
X86942368Y-79982309D01*
X86864093Y-79935655D01*
X86856660Y-79932195D01*
X86799776Y-79947600D01*
X86693531Y-80021927D01*
X86533781Y-80158681D01*
X86316384Y-80361368D01*
X86094452Y-80577008D01*
X85880509Y-80789503D01*
X85689031Y-80983410D01*
X85531545Y-81146754D01*
X85419578Y-81267561D01*
X85364657Y-81333855D01*
X85362614Y-81337268D01*
X85356542Y-81382761D01*
X85379416Y-81457056D01*
X85436885Y-81570186D01*
X85534601Y-81732185D01*
X85678216Y-81953086D01*
X85869667Y-82237460D01*
X86039577Y-82487759D01*
X86191462Y-82712250D01*
X86316545Y-82897900D01*
X86406051Y-83031675D01*
X86451200Y-83100542D01*
X86454042Y-83105218D01*
X86448530Y-83171201D01*
X86406745Y-83299448D01*
X86337003Y-83465720D01*
X86312146Y-83518819D01*
X86203689Y-83755377D01*
X86087980Y-84023789D01*
X85993985Y-84256035D01*
X85926255Y-84428407D01*
X85872457Y-84559403D01*
X85841369Y-84627867D01*
X85837504Y-84633142D01*
X85780329Y-84641880D01*
X85645552Y-84665823D01*
X85451094Y-84701562D01*
X85214875Y-84745689D01*
X84954816Y-84794795D01*
X84688837Y-84845472D01*
X84434857Y-84894313D01*
X84210799Y-84937909D01*
X84034580Y-84972851D01*
X83924123Y-84995732D01*
X83897030Y-85002201D01*
X83869044Y-85018167D01*
X83847919Y-85054227D01*
X83832703Y-85122552D01*
X83822447Y-85235315D01*
X83816200Y-85404686D01*
X83813012Y-85642838D01*
X83811933Y-85961942D01*
X83811877Y-86092741D01*
X83811877Y-87156511D01*
X84067337Y-87206933D01*
X84209463Y-87234273D01*
X84421550Y-87274182D01*
X84677807Y-87321845D01*
X84952442Y-87372446D01*
X85028352Y-87386344D01*
X85281779Y-87435617D01*
X85502553Y-87484070D01*
X85672143Y-87527215D01*
X85772020Y-87560563D01*
X85788657Y-87570502D01*
X85829511Y-87640891D01*
X85888087Y-87777283D01*
X85953045Y-87952805D01*
X85965929Y-87990613D01*
X86051066Y-88225030D01*
X86156744Y-88489524D01*
X86260160Y-88727041D01*
X86260670Y-88728144D01*
X86432888Y-89100733D01*
X85866476Y-89933893D01*
X85300065Y-90767053D01*
X86027298Y-91495500D01*
X86247252Y-91712302D01*
X86447868Y-91903414D01*
X86617878Y-92058636D01*
X86746015Y-92167764D01*
X86821011Y-92220595D01*
X86831769Y-92223947D01*
X86894933Y-92197549D01*
X87023820Y-92124160D01*
X87204351Y-92012484D01*
X87422446Y-91871224D01*
X87658246Y-91713027D01*
X87897564Y-91551664D01*
X88110941Y-91411252D01*
X88284825Y-91300431D01*
X88405666Y-91227838D01*
X88459737Y-91202108D01*
X88525706Y-91223880D01*
X88650802Y-91281251D01*
X88809220Y-91362300D01*
X88826013Y-91371309D01*
X89039348Y-91478300D01*
X89185636Y-91530772D01*
X89276620Y-91531330D01*
X89324041Y-91482580D01*
X89324317Y-91481897D01*
X89348020Y-91424164D01*
X89404551Y-91287115D01*
X89489526Y-91081357D01*
X89598562Y-90817498D01*
X89727276Y-90506144D01*
X89871285Y-90157904D01*
X90010749Y-89820744D01*
X90164020Y-89448666D01*
X90304749Y-89103987D01*
X90428718Y-88797271D01*
X90531709Y-88539085D01*
X90609504Y-88339994D01*
X90657886Y-88210565D01*
X90672796Y-88162261D01*
X90635406Y-88106850D01*
X90537602Y-88018538D01*
X90407185Y-87921174D01*
X90035777Y-87613253D01*
X89745470Y-87260304D01*
X89539744Y-86869761D01*
X89422077Y-86449057D01*
X89395949Y-86005629D01*
X89414940Y-85800958D01*
X89518417Y-85376323D01*
X89696627Y-85001336D01*
X89938518Y-84679696D01*
X90233037Y-84415101D01*
X90569129Y-84211250D01*
X90935742Y-84071842D01*
X91321823Y-84000574D01*
X91716319Y-84001145D01*
X92108175Y-84077254D01*
X92486340Y-84232599D01*
X92839760Y-84470879D01*
X92987273Y-84605639D01*
X93270184Y-84951679D01*
X93467168Y-85329826D01*
X93579536Y-85729055D01*
X93608599Y-86138345D01*
X93555669Y-86546672D01*
X93422057Y-86943013D01*
X93209075Y-87316345D01*
X92918034Y-87655645D01*
X92592814Y-87921174D01*
X92457348Y-88022671D01*
X92361651Y-88110025D01*
X92327203Y-88162343D01*
X92345240Y-88219398D01*
X92396538Y-88355698D01*
X92476876Y-88560678D01*
X92582036Y-88823772D01*
X92707796Y-89134416D01*
X92849937Y-89482043D01*
X92989635Y-89820826D01*
X93143759Y-90193222D01*
X93286518Y-90538307D01*
X93413529Y-90845477D01*
X93520411Y-91104125D01*
X93602780Y-91303647D01*
X93656253Y-91433435D01*
X93676067Y-91481897D01*
X93722876Y-91531129D01*
X93813417Y-91530985D01*
X93959342Y-91478877D01*
X94172302Y-91372216D01*
X94173986Y-91371309D01*
X94334330Y-91288536D01*
X94463948Y-91228242D01*
X94537037Y-91202346D01*
X94540263Y-91202108D01*
X94595284Y-91228374D01*
X94716757Y-91301416D01*
X94891129Y-91412595D01*
X95104850Y-91553273D01*
X95341753Y-91713027D01*
X95582945Y-91874779D01*
X95800326Y-92015450D01*
X95979816Y-92126335D01*
X96107336Y-92198730D01*
X96168230Y-92223947D01*
X96224303Y-92190803D01*
X96337040Y-92098173D01*
X96495177Y-91956257D01*
X96687449Y-91775255D01*
X96902591Y-91565369D01*
X96972952Y-91495249D01*
X97700434Y-90766552D01*
X97146705Y-89953900D01*
X96978423Y-89704342D01*
X96830729Y-89480366D01*
X96711910Y-89294949D01*
X96630250Y-89161065D01*
X96594036Y-89091690D01*
X96592975Y-89086755D01*
X96612067Y-89021364D01*
X96663418Y-88889825D01*
X96738140Y-88714181D01*
X96790588Y-88596591D01*
X96888654Y-88371461D01*
X96981007Y-88144015D01*
X97052606Y-87951839D01*
X97072056Y-87893295D01*
X97127314Y-87736956D01*
X97181331Y-87616158D01*
X97211001Y-87570502D01*
X97276476Y-87542561D01*
X97419376Y-87502951D01*
X97621161Y-87456162D01*
X97863288Y-87406683D01*
X97971647Y-87386344D01*
X98246811Y-87335781D01*
X98510746Y-87286822D01*
X98737659Y-87244281D01*
X98901761Y-87212975D01*
X98932662Y-87206933D01*
X99188122Y-87156511D01*
X99188122Y-86092741D01*
X99187548Y-85742950D01*
X99185193Y-85478300D01*
X99180107Y-85286622D01*
X99171339Y-85155744D01*
X99157938Y-85073493D01*
X99138954Y-85027698D01*
X99113438Y-85006188D01*
X99102969Y-85002201D01*
X99039826Y-84988056D01*
X98900325Y-84959834D01*
X98702389Y-84920943D01*
X98463935Y-84874792D01*
X98202886Y-84824788D01*
X97937161Y-84774341D01*
X97684681Y-84726858D01*
X97463365Y-84685748D01*
X97291134Y-84654419D01*
X97185908Y-84636278D01*
X97162495Y-84633142D01*
X97141284Y-84591173D01*
X97094332Y-84479370D01*
X97030419Y-84318888D01*
X97006014Y-84256035D01*
X96907580Y-84013203D01*
X96791666Y-83744918D01*
X96687853Y-83518819D01*
X96611465Y-83345935D01*
X96560644Y-83203877D01*
X96543679Y-83116878D01*
X96546384Y-83105218D01*
X96582239Y-83050170D01*
X96664108Y-82927739D01*
X96783205Y-82750962D01*
X96930742Y-82532877D01*
X97097931Y-82286520D01*
X97130990Y-82237891D01*
X97324980Y-81949773D01*
X97467579Y-81730377D01*
X97564473Y-81569602D01*
X97621346Y-81457346D01*
X97643884Y-81383510D01*
X97637772Y-81337990D01*
X97637616Y-81337700D01*
X97589511Y-81277910D01*
X97483111Y-81162319D01*
X97329948Y-81002909D01*
X97141555Y-80811665D01*
X96929465Y-80600568D01*
X96905547Y-80577008D01*
X96638262Y-80318172D01*
X96431992Y-80128117D01*
X96282592Y-80003337D01*
X96185920Y-79940327D01*
X96143339Y-79932195D01*
X96081196Y-79967672D01*
X95952237Y-80049623D01*
X95769778Y-80169292D01*
X95547133Y-80317926D01*
X95297616Y-80486772D01*
X95239364Y-80526495D01*
X94412316Y-81091276D01*
X94038821Y-80921760D01*
X93811684Y-80822971D01*
X93567872Y-80723617D01*
X93358275Y-80644401D01*
X93349042Y-80641142D01*
X93185095Y-80581129D01*
X93058715Y-80530382D01*
X92997137Y-80499841D01*
X92997032Y-80499753D01*
X92977493Y-80444548D01*
X92944279Y-80308779D01*
X92900687Y-80107709D01*
X92850016Y-79856599D01*
X92795561Y-79570713D01*
X92791106Y-79546612D01*
X92736482Y-79252059D01*
X92686336Y-78984684D01*
X92643898Y-78761480D01*
X92612402Y-78599439D01*
X92595077Y-78515553D01*
X92594775Y-78514272D01*
X92584232Y-78478588D01*
X92563731Y-78451646D01*
X92520989Y-78432218D01*
X92443724Y-78419075D01*
X92319652Y-78410989D01*
X92136491Y-78406732D01*
X91881958Y-78405075D01*
X91543769Y-78404790D01*
X91500000Y-78404790D01*
X91151643Y-78404997D01*
G36*
X80927601Y-94244233D02*
G01*
X80735083Y-94370057D01*
X80642226Y-94482696D01*
X80568660Y-94687092D01*
X80562817Y-94848830D01*
X80576053Y-95065094D01*
X81074808Y-95283398D01*
X81317315Y-95394930D01*
X81475771Y-95484650D01*
X81558164Y-95562361D01*
X81572482Y-95637867D01*
X81526713Y-95720971D01*
X81476245Y-95776054D01*
X81329395Y-95864389D01*
X81169672Y-95870579D01*
X81022980Y-95801735D01*
X80915219Y-95664972D01*
X80895945Y-95616680D01*
X80803624Y-95465848D01*
X80697412Y-95401567D01*
X80551724Y-95346576D01*
X80551724Y-95555057D01*
X80564604Y-95696926D01*
X80615057Y-95816563D01*
X80720803Y-95953927D01*
X80736520Y-95971777D01*
X80854145Y-96093986D01*
X80955254Y-96159570D01*
X81081750Y-96189742D01*
X81186616Y-96199623D01*
X81374189Y-96202085D01*
X81507716Y-96170892D01*
X81591017Y-96124579D01*
X81721937Y-96022735D01*
X81812561Y-95912591D01*
X81869913Y-95774069D01*
X81901020Y-95587090D01*
X81912906Y-95331577D01*
X81913855Y-95201894D01*
X81910629Y-95046421D01*
X81616834Y-95046421D01*
X81613427Y-95129827D01*
X81604934Y-95143487D01*
X81548890Y-95124931D01*
X81428282Y-95075822D01*
X81267087Y-95006002D01*
X81233378Y-94990995D01*
X81029661Y-94887404D01*
X80917421Y-94796359D01*
X80892753Y-94711081D01*
X80951755Y-94624794D01*
X81000482Y-94586667D01*
X81176306Y-94510417D01*
X81340873Y-94523014D01*
X81478646Y-94616086D01*
X81574087Y-94781256D01*
X81604686Y-94912357D01*
X81616834Y-95046421D01*
X81910629Y-95046421D01*
X81907568Y-94898919D01*
X81884401Y-94674756D01*
X81838510Y-94511526D01*
X81764046Y-94391352D01*
X81655164Y-94296355D01*
X81607695Y-94265655D01*
X81392062Y-94185703D01*
X81155979Y-94180672D01*
X80927601Y-94244233D01*
X80927601Y-94244233D01*
G37*
X80927601Y-94244233D02*
X80735083Y-94370057D01*
X80642226Y-94482696D01*
X80568660Y-94687092D01*
X80562817Y-94848830D01*
X80576053Y-95065094D01*
X81074808Y-95283398D01*
X81317315Y-95394930D01*
X81475771Y-95484650D01*
X81558164Y-95562361D01*
X81572482Y-95637867D01*
X81526713Y-95720971D01*
X81476245Y-95776054D01*
X81329395Y-95864389D01*
X81169672Y-95870579D01*
X81022980Y-95801735D01*
X80915219Y-95664972D01*
X80895945Y-95616680D01*
X80803624Y-95465848D01*
X80697412Y-95401567D01*
X80551724Y-95346576D01*
X80551724Y-95555057D01*
X80564604Y-95696926D01*
X80615057Y-95816563D01*
X80720803Y-95953927D01*
X80736520Y-95971777D01*
X80854145Y-96093986D01*
X80955254Y-96159570D01*
X81081750Y-96189742D01*
X81186616Y-96199623D01*
X81374189Y-96202085D01*
X81507716Y-96170892D01*
X81591017Y-96124579D01*
X81721937Y-96022735D01*
X81812561Y-95912591D01*
X81869913Y-95774069D01*
X81901020Y-95587090D01*
X81912906Y-95331577D01*
X81913855Y-95201894D01*
X81910629Y-95046421D01*
X81616834Y-95046421D01*
X81613427Y-95129827D01*
X81604934Y-95143487D01*
X81548890Y-95124931D01*
X81428282Y-95075822D01*
X81267087Y-95006002D01*
X81233378Y-94990995D01*
X81029661Y-94887404D01*
X80917421Y-94796359D01*
X80892753Y-94711081D01*
X80951755Y-94624794D01*
X81000482Y-94586667D01*
X81176306Y-94510417D01*
X81340873Y-94523014D01*
X81478646Y-94616086D01*
X81574087Y-94781256D01*
X81604686Y-94912357D01*
X81616834Y-95046421D01*
X81910629Y-95046421D01*
X81907568Y-94898919D01*
X81884401Y-94674756D01*
X81838510Y-94511526D01*
X81764046Y-94391352D01*
X81655164Y-94296355D01*
X81607695Y-94265655D01*
X81392062Y-94185703D01*
X81155979Y-94180672D01*
X80927601Y-94244233D01*
G36*
X82607184Y-94216697D02*
G01*
X82549024Y-94242116D01*
X82410205Y-94352059D01*
X82291495Y-94511030D01*
X82218079Y-94680677D01*
X82206130Y-94764313D01*
X82246191Y-94881078D01*
X82334065Y-94942862D01*
X82428282Y-94980273D01*
X82471423Y-94987167D01*
X82492429Y-94937138D01*
X82533910Y-94828269D01*
X82552108Y-94779076D01*
X82654152Y-94608913D01*
X82801897Y-94524038D01*
X82991345Y-94526648D01*
X83005377Y-94529991D01*
X83106519Y-94577945D01*
X83180876Y-94671432D01*
X83231662Y-94821939D01*
X83262092Y-95040951D01*
X83275382Y-95339956D01*
X83276628Y-95499056D01*
X83277246Y-95749855D01*
X83281295Y-95920825D01*
X83292067Y-96029454D01*
X83312853Y-96093230D01*
X83346945Y-96129643D01*
X83397635Y-96156179D01*
X83400565Y-96157515D01*
X83498182Y-96198787D01*
X83546542Y-96213985D01*
X83553973Y-96168037D01*
X83560334Y-96041034D01*
X83565168Y-95849235D01*
X83568015Y-95608902D01*
X83568582Y-95433024D01*
X83565687Y-95092688D01*
X83554363Y-94834495D01*
X83530654Y-94643374D01*
X83490603Y-94504253D01*
X83430253Y-94402060D01*
X83345647Y-94321724D01*
X83262101Y-94265655D01*
X83061209Y-94191032D01*
X82827404Y-94174202D01*
X82607184Y-94216697D01*
X82607184Y-94216697D01*
G37*
X82607184Y-94216697D02*
X82549024Y-94242116D01*
X82410205Y-94352059D01*
X82291495Y-94511030D01*
X82218079Y-94680677D01*
X82206130Y-94764313D01*
X82246191Y-94881078D01*
X82334065Y-94942862D01*
X82428282Y-94980273D01*
X82471423Y-94987167D01*
X82492429Y-94937138D01*
X82533910Y-94828269D01*
X82552108Y-94779076D01*
X82654152Y-94608913D01*
X82801897Y-94524038D01*
X82991345Y-94526648D01*
X83005377Y-94529991D01*
X83106519Y-94577945D01*
X83180876Y-94671432D01*
X83231662Y-94821939D01*
X83262092Y-95040951D01*
X83275382Y-95339956D01*
X83276628Y-95499056D01*
X83277246Y-95749855D01*
X83281295Y-95920825D01*
X83292067Y-96029454D01*
X83312853Y-96093230D01*
X83346945Y-96129643D01*
X83397635Y-96156179D01*
X83400565Y-96157515D01*
X83498182Y-96198787D01*
X83546542Y-96213985D01*
X83553973Y-96168037D01*
X83560334Y-96041034D01*
X83565168Y-95849235D01*
X83568015Y-95608902D01*
X83568582Y-95433024D01*
X83565687Y-95092688D01*
X83554363Y-94834495D01*
X83530654Y-94643374D01*
X83490603Y-94504253D01*
X83430253Y-94402060D01*
X83345647Y-94321724D01*
X83262101Y-94265655D01*
X83061209Y-94191032D01*
X82827404Y-94174202D01*
X82607184Y-94216697D01*
G36*
X84309322Y-94208594D02*
G01*
X84169218Y-94272323D01*
X84059250Y-94349543D01*
X83978676Y-94435887D01*
X83923046Y-94547272D01*
X83887911Y-94699616D01*
X83868821Y-94908835D01*
X83861328Y-95190846D01*
X83860536Y-95376555D01*
X83860536Y-96101046D01*
X83984473Y-96157515D01*
X84082090Y-96198787D01*
X84130450Y-96213985D01*
X84139702Y-96168762D01*
X84147042Y-96046824D01*
X84151536Y-95868772D01*
X84152490Y-95727395D01*
X84156590Y-95523146D01*
X84167646Y-95361113D01*
X84183789Y-95261891D01*
X84196613Y-95240805D01*
X84282814Y-95262338D01*
X84418138Y-95317566D01*
X84574830Y-95392436D01*
X84725137Y-95472892D01*
X84841307Y-95544880D01*
X84895587Y-95594346D01*
X84895802Y-95594881D01*
X84891133Y-95686428D01*
X84849268Y-95773820D01*
X84775765Y-95844802D01*
X84668484Y-95868543D01*
X84576798Y-95865777D01*
X84446942Y-95863741D01*
X84378779Y-95894164D01*
X84337841Y-95974543D01*
X84332679Y-95989700D01*
X84314933Y-96104331D01*
X84362391Y-96173934D01*
X84486093Y-96207105D01*
X84619719Y-96213240D01*
X84860183Y-96167763D01*
X84984662Y-96102817D01*
X85138395Y-95950246D01*
X85219927Y-95762971D01*
X85227244Y-95565085D01*
X85158331Y-95380685D01*
X85054672Y-95265134D01*
X84951177Y-95200442D01*
X84788508Y-95118542D01*
X84598946Y-95035486D01*
X84567350Y-95022795D01*
X84359131Y-94930908D01*
X84239102Y-94849923D01*
X84200499Y-94769413D01*
X84236560Y-94678950D01*
X84298467Y-94608238D01*
X84444787Y-94521170D01*
X84605783Y-94514640D01*
X84753427Y-94581735D01*
X84859690Y-94715544D01*
X84873638Y-94750067D01*
X84954840Y-94877042D01*
X85073392Y-94971309D01*
X85222988Y-95048668D01*
X85222988Y-94829307D01*
X85214183Y-94695280D01*
X85176430Y-94589644D01*
X85092721Y-94476939D01*
X85012364Y-94390127D01*
X84887409Y-94267204D01*
X84790323Y-94201171D01*
X84686046Y-94174684D01*
X84568011Y-94170307D01*
X84309322Y-94208594D01*
X84309322Y-94208594D01*
G37*
X84309322Y-94208594D02*
X84169218Y-94272323D01*
X84059250Y-94349543D01*
X83978676Y-94435887D01*
X83923046Y-94547272D01*
X83887911Y-94699616D01*
X83868821Y-94908835D01*
X83861328Y-95190846D01*
X83860536Y-95376555D01*
X83860536Y-96101046D01*
X83984473Y-96157515D01*
X84082090Y-96198787D01*
X84130450Y-96213985D01*
X84139702Y-96168762D01*
X84147042Y-96046824D01*
X84151536Y-95868772D01*
X84152490Y-95727395D01*
X84156590Y-95523146D01*
X84167646Y-95361113D01*
X84183789Y-95261891D01*
X84196613Y-95240805D01*
X84282814Y-95262338D01*
X84418138Y-95317566D01*
X84574830Y-95392436D01*
X84725137Y-95472892D01*
X84841307Y-95544880D01*
X84895587Y-95594346D01*
X84895802Y-95594881D01*
X84891133Y-95686428D01*
X84849268Y-95773820D01*
X84775765Y-95844802D01*
X84668484Y-95868543D01*
X84576798Y-95865777D01*
X84446942Y-95863741D01*
X84378779Y-95894164D01*
X84337841Y-95974543D01*
X84332679Y-95989700D01*
X84314933Y-96104331D01*
X84362391Y-96173934D01*
X84486093Y-96207105D01*
X84619719Y-96213240D01*
X84860183Y-96167763D01*
X84984662Y-96102817D01*
X85138395Y-95950246D01*
X85219927Y-95762971D01*
X85227244Y-95565085D01*
X85158331Y-95380685D01*
X85054672Y-95265134D01*
X84951177Y-95200442D01*
X84788508Y-95118542D01*
X84598946Y-95035486D01*
X84567350Y-95022795D01*
X84359131Y-94930908D01*
X84239102Y-94849923D01*
X84200499Y-94769413D01*
X84236560Y-94678950D01*
X84298467Y-94608238D01*
X84444787Y-94521170D01*
X84605783Y-94514640D01*
X84753427Y-94581735D01*
X84859690Y-94715544D01*
X84873638Y-94750067D01*
X84954840Y-94877042D01*
X85073392Y-94971309D01*
X85222988Y-95048668D01*
X85222988Y-94829307D01*
X85214183Y-94695280D01*
X85176430Y-94589644D01*
X85092721Y-94476939D01*
X85012364Y-94390127D01*
X84887409Y-94267204D01*
X84790323Y-94201171D01*
X84686046Y-94174684D01*
X84568011Y-94170307D01*
X84309322Y-94208594D01*
G36*
X85533127Y-94216400D02*
G01*
X85525701Y-94344422D01*
X85519882Y-94538985D01*
X85516141Y-94784702D01*
X85514942Y-95042426D01*
X85514942Y-95914545D01*
X85668925Y-96068528D01*
X85775037Y-96163412D01*
X85868184Y-96201845D01*
X85995496Y-96199413D01*
X86046032Y-96193223D01*
X86203983Y-96175210D01*
X86334629Y-96164888D01*
X86366475Y-96163935D01*
X86473834Y-96170171D01*
X86627381Y-96185824D01*
X86686917Y-96193223D01*
X86833143Y-96204668D01*
X86931411Y-96179808D01*
X87028850Y-96103058D01*
X87064024Y-96068528D01*
X87218007Y-95914545D01*
X87218007Y-94283246D01*
X87094070Y-94226776D01*
X86987350Y-94184950D01*
X86924913Y-94170307D01*
X86908904Y-94216583D01*
X86893942Y-94345884D01*
X86881022Y-94543914D01*
X86871143Y-94796380D01*
X86866378Y-95009675D01*
X86853065Y-95849042D01*
X86736920Y-95865464D01*
X86631284Y-95853982D01*
X86579523Y-95816805D01*
X86565055Y-95747298D01*
X86552702Y-95599240D01*
X86543448Y-95391391D01*
X86538272Y-95142512D01*
X86537526Y-95014435D01*
X86536781Y-94277145D01*
X86383543Y-94223726D01*
X86275084Y-94187406D01*
X86216087Y-94170468D01*
X86214386Y-94170307D01*
X86208467Y-94216349D01*
X86201961Y-94344018D01*
X86195414Y-94537632D01*
X86189373Y-94781507D01*
X86185152Y-95009675D01*
X86171839Y-95849042D01*
X85879885Y-95849042D01*
X85866487Y-95083275D01*
X85853090Y-94317508D01*
X85710762Y-94243908D01*
X85605678Y-94193366D01*
X85543483Y-94170431D01*
X85541688Y-94170307D01*
X85533127Y-94216400D01*
X85533127Y-94216400D01*
G37*
X85533127Y-94216400D02*
X85525701Y-94344422D01*
X85519882Y-94538985D01*
X85516141Y-94784702D01*
X85514942Y-95042426D01*
X85514942Y-95914545D01*
X85668925Y-96068528D01*
X85775037Y-96163412D01*
X85868184Y-96201845D01*
X85995496Y-96199413D01*
X86046032Y-96193223D01*
X86203983Y-96175210D01*
X86334629Y-96164888D01*
X86366475Y-96163935D01*
X86473834Y-96170171D01*
X86627381Y-96185824D01*
X86686917Y-96193223D01*
X86833143Y-96204668D01*
X86931411Y-96179808D01*
X87028850Y-96103058D01*
X87064024Y-96068528D01*
X87218007Y-95914545D01*
X87218007Y-94283246D01*
X87094070Y-94226776D01*
X86987350Y-94184950D01*
X86924913Y-94170307D01*
X86908904Y-94216583D01*
X86893942Y-94345884D01*
X86881022Y-94543914D01*
X86871143Y-94796380D01*
X86866378Y-95009675D01*
X86853065Y-95849042D01*
X86736920Y-95865464D01*
X86631284Y-95853982D01*
X86579523Y-95816805D01*
X86565055Y-95747298D01*
X86552702Y-95599240D01*
X86543448Y-95391391D01*
X86538272Y-95142512D01*
X86537526Y-95014435D01*
X86536781Y-94277145D01*
X86383543Y-94223726D01*
X86275084Y-94187406D01*
X86216087Y-94170468D01*
X86214386Y-94170307D01*
X86208467Y-94216349D01*
X86201961Y-94344018D01*
X86195414Y-94537632D01*
X86189373Y-94781507D01*
X86185152Y-95009675D01*
X86171839Y-95849042D01*
X85879885Y-95849042D01*
X85866487Y-95083275D01*
X85853090Y-94317508D01*
X85710762Y-94243908D01*
X85605678Y-94193366D01*
X85543483Y-94170431D01*
X85541688Y-94170307D01*
X85533127Y-94216400D01*
G36*
X87510143Y-94574093D02*
G01*
X87510761Y-94937769D01*
X87513153Y-95217532D01*
X87518329Y-95426784D01*
X87527296Y-95578926D01*
X87541064Y-95687359D01*
X87560639Y-95765485D01*
X87587032Y-95826707D01*
X87607016Y-95861652D01*
X87772517Y-96051157D01*
X87982352Y-96169942D01*
X88214514Y-96212564D01*
X88446992Y-96173583D01*
X88585428Y-96103532D01*
X88730758Y-95982353D01*
X88829805Y-95834354D01*
X88889565Y-95640534D01*
X88917031Y-95381892D01*
X88920921Y-95192146D01*
X88920397Y-95178510D01*
X88580459Y-95178510D01*
X88578383Y-95396096D01*
X88568870Y-95540134D01*
X88546992Y-95634364D01*
X88507824Y-95702523D01*
X88461024Y-95753936D01*
X88303854Y-95853175D01*
X88135100Y-95861653D01*
X87975607Y-95778799D01*
X87963193Y-95767572D01*
X87910209Y-95709171D01*
X87876986Y-95639686D01*
X87859000Y-95536270D01*
X87851725Y-95376073D01*
X87850574Y-95198965D01*
X87853068Y-94976467D01*
X87863392Y-94828037D01*
X87885809Y-94730489D01*
X87924582Y-94660637D01*
X87956374Y-94623539D01*
X88104061Y-94529975D01*
X88274154Y-94518725D01*
X88436508Y-94590190D01*
X88467840Y-94616720D01*
X88521178Y-94675636D01*
X88554469Y-94745837D01*
X88572344Y-94850418D01*
X88579434Y-95012479D01*
X88580459Y-95178510D01*
X88920397Y-95178510D01*
X88909160Y-94886579D01*
X88869213Y-94656993D01*
X88794087Y-94484387D01*
X88676786Y-94349760D01*
X88585428Y-94280759D01*
X88419373Y-94206214D01*
X88226908Y-94171613D01*
X88048001Y-94180875D01*
X87947892Y-94218238D01*
X87908607Y-94228872D01*
X87882539Y-94189225D01*
X87864342Y-94082981D01*
X87850574Y-93921145D01*
X87835501Y-93740902D01*
X87814564Y-93632458D01*
X87776468Y-93570446D01*
X87709915Y-93529499D01*
X87668103Y-93511366D01*
X87509961Y-93445120D01*
X87510143Y-94574093D01*
X87510143Y-94574093D01*
G37*
X87510143Y-94574093D02*
X87510761Y-94937769D01*
X87513153Y-95217532D01*
X87518329Y-95426784D01*
X87527296Y-95578926D01*
X87541064Y-95687359D01*
X87560639Y-95765485D01*
X87587032Y-95826707D01*
X87607016Y-95861652D01*
X87772517Y-96051157D01*
X87982352Y-96169942D01*
X88214514Y-96212564D01*
X88446992Y-96173583D01*
X88585428Y-96103532D01*
X88730758Y-95982353D01*
X88829805Y-95834354D01*
X88889565Y-95640534D01*
X88917031Y-95381892D01*
X88920921Y-95192146D01*
X88920397Y-95178510D01*
X88580459Y-95178510D01*
X88578383Y-95396096D01*
X88568870Y-95540134D01*
X88546992Y-95634364D01*
X88507824Y-95702523D01*
X88461024Y-95753936D01*
X88303854Y-95853175D01*
X88135100Y-95861653D01*
X87975607Y-95778799D01*
X87963193Y-95767572D01*
X87910209Y-95709171D01*
X87876986Y-95639686D01*
X87859000Y-95536270D01*
X87851725Y-95376073D01*
X87850574Y-95198965D01*
X87853068Y-94976467D01*
X87863392Y-94828037D01*
X87885809Y-94730489D01*
X87924582Y-94660637D01*
X87956374Y-94623539D01*
X88104061Y-94529975D01*
X88274154Y-94518725D01*
X88436508Y-94590190D01*
X88467840Y-94616720D01*
X88521178Y-94675636D01*
X88554469Y-94745837D01*
X88572344Y-94850418D01*
X88579434Y-95012479D01*
X88580459Y-95178510D01*
X88920397Y-95178510D01*
X88909160Y-94886579D01*
X88869213Y-94656993D01*
X88794087Y-94484387D01*
X88676786Y-94349760D01*
X88585428Y-94280759D01*
X88419373Y-94206214D01*
X88226908Y-94171613D01*
X88048001Y-94180875D01*
X87947892Y-94218238D01*
X87908607Y-94228872D01*
X87882539Y-94189225D01*
X87864342Y-94082981D01*
X87850574Y-93921145D01*
X87835501Y-93740902D01*
X87814564Y-93632458D01*
X87776468Y-93570446D01*
X87709915Y-93529499D01*
X87668103Y-93511366D01*
X87509961Y-93445120D01*
X87510143Y-94574093D01*
G36*
X89723428Y-94186534D02*
G01*
X89502391Y-94268099D01*
X89323317Y-94412366D01*
X89253280Y-94513920D01*
X89176929Y-94700268D01*
X89178515Y-94835010D01*
X89258653Y-94925631D01*
X89288304Y-94941040D01*
X89416326Y-94989084D01*
X89481706Y-94976776D01*
X89503852Y-94896098D01*
X89504980Y-94851533D01*
X89545523Y-94687581D01*
X89651198Y-94572891D01*
X89798076Y-94517497D01*
X89962227Y-94531435D01*
X90095663Y-94603827D01*
X90140731Y-94645120D01*
X90172677Y-94695216D01*
X90194256Y-94770942D01*
X90208227Y-94889128D01*
X90217345Y-95066600D01*
X90224369Y-95320186D01*
X90226188Y-95400479D01*
X90232822Y-95675158D01*
X90240364Y-95868481D01*
X90251675Y-95996388D01*
X90269615Y-96074822D01*
X90297045Y-96119725D01*
X90336823Y-96147038D01*
X90362290Y-96159105D01*
X90470444Y-96200367D01*
X90534110Y-96213985D01*
X90555146Y-96168505D01*
X90567987Y-96031006D01*
X90572700Y-95799902D01*
X90569356Y-95473604D01*
X90568314Y-95423276D01*
X90560965Y-95125581D01*
X90552274Y-94908205D01*
X90539908Y-94754153D01*
X90521530Y-94646430D01*
X90494805Y-94568042D01*
X90457398Y-94501994D01*
X90437830Y-94473691D01*
X90325634Y-94348467D01*
X90200150Y-94251063D01*
X90184787Y-94242561D01*
X89959777Y-94175433D01*
X89723428Y-94186534D01*
X89723428Y-94186534D01*
G37*
X89723428Y-94186534D02*
X89502391Y-94268099D01*
X89323317Y-94412366D01*
X89253280Y-94513920D01*
X89176929Y-94700268D01*
X89178515Y-94835010D01*
X89258653Y-94925631D01*
X89288304Y-94941040D01*
X89416326Y-94989084D01*
X89481706Y-94976776D01*
X89503852Y-94896098D01*
X89504980Y-94851533D01*
X89545523Y-94687581D01*
X89651198Y-94572891D01*
X89798076Y-94517497D01*
X89962227Y-94531435D01*
X90095663Y-94603827D01*
X90140731Y-94645120D01*
X90172677Y-94695216D01*
X90194256Y-94770942D01*
X90208227Y-94889128D01*
X90217345Y-95066600D01*
X90224369Y-95320186D01*
X90226188Y-95400479D01*
X90232822Y-95675158D01*
X90240364Y-95868481D01*
X90251675Y-95996388D01*
X90269615Y-96074822D01*
X90297045Y-96119725D01*
X90336823Y-96147038D01*
X90362290Y-96159105D01*
X90470444Y-96200367D01*
X90534110Y-96213985D01*
X90555146Y-96168505D01*
X90567987Y-96031006D01*
X90572700Y-95799902D01*
X90569356Y-95473604D01*
X90568314Y-95423276D01*
X90560965Y-95125581D01*
X90552274Y-94908205D01*
X90539908Y-94754153D01*
X90521530Y-94646430D01*
X90494805Y-94568042D01*
X90457398Y-94501994D01*
X90437830Y-94473691D01*
X90325634Y-94348467D01*
X90200150Y-94251063D01*
X90184787Y-94242561D01*
X89959777Y-94175433D01*
X89723428Y-94186534D01*
G36*
X91366759Y-94190601D02*
G01*
X91176095Y-94261403D01*
X91173914Y-94262764D01*
X91055994Y-94349550D01*
X90968940Y-94450973D01*
X90907714Y-94583145D01*
X90867277Y-94762182D01*
X90842591Y-95004195D01*
X90828618Y-95325299D01*
X90827393Y-95371048D01*
X90809800Y-96060869D01*
X90957848Y-96137427D01*
X91064970Y-96189163D01*
X91129649Y-96213678D01*
X91132641Y-96213985D01*
X91143834Y-96168751D01*
X91152725Y-96046736D01*
X91158194Y-95868468D01*
X91159387Y-95724116D01*
X91159414Y-95490271D01*
X91170104Y-95343419D01*
X91207367Y-95273376D01*
X91287112Y-95269958D01*
X91425251Y-95322983D01*
X91633812Y-95420454D01*
X91787171Y-95501409D01*
X91866048Y-95571644D01*
X91889236Y-95648194D01*
X91889272Y-95651982D01*
X91851007Y-95783852D01*
X91737717Y-95855091D01*
X91564336Y-95865410D01*
X91439450Y-95863620D01*
X91373601Y-95899589D01*
X91332536Y-95985985D01*
X91308901Y-96096054D01*
X91342961Y-96158508D01*
X91355786Y-96167446D01*
X91476528Y-96203343D01*
X91645612Y-96208426D01*
X91819739Y-96184631D01*
X91943124Y-96141147D01*
X92113713Y-95996309D01*
X92210681Y-95794694D01*
X92229885Y-95637180D01*
X92215230Y-95495104D01*
X92162199Y-95379127D01*
X92057194Y-95276121D01*
X91886614Y-95172954D01*
X91636862Y-95056496D01*
X91621647Y-95049914D01*
X91396671Y-94945981D01*
X91257843Y-94860743D01*
X91198338Y-94784147D01*
X91211328Y-94706139D01*
X91289988Y-94616664D01*
X91313510Y-94596073D01*
X91471067Y-94516236D01*
X91634323Y-94519597D01*
X91776505Y-94597874D01*
X91870840Y-94742781D01*
X91879605Y-94771224D01*
X91964962Y-94909174D01*
X92073271Y-94975620D01*
X92229885Y-95041471D01*
X92229885Y-94871097D01*
X92182244Y-94623454D01*
X92040841Y-94396307D01*
X91967258Y-94320318D01*
X91799991Y-94222790D01*
X91587274Y-94178640D01*
X91366759Y-94190601D01*
X91366759Y-94190601D01*
G37*
X91366759Y-94190601D02*
X91176095Y-94261403D01*
X91173914Y-94262764D01*
X91055994Y-94349550D01*
X90968940Y-94450973D01*
X90907714Y-94583145D01*
X90867277Y-94762182D01*
X90842591Y-95004195D01*
X90828618Y-95325299D01*
X90827393Y-95371048D01*
X90809800Y-96060869D01*
X90957848Y-96137427D01*
X91064970Y-96189163D01*
X91129649Y-96213678D01*
X91132641Y-96213985D01*
X91143834Y-96168751D01*
X91152725Y-96046736D01*
X91158194Y-95868468D01*
X91159387Y-95724116D01*
X91159414Y-95490271D01*
X91170104Y-95343419D01*
X91207367Y-95273376D01*
X91287112Y-95269958D01*
X91425251Y-95322983D01*
X91633812Y-95420454D01*
X91787171Y-95501409D01*
X91866048Y-95571644D01*
X91889236Y-95648194D01*
X91889272Y-95651982D01*
X91851007Y-95783852D01*
X91737717Y-95855091D01*
X91564336Y-95865410D01*
X91439450Y-95863620D01*
X91373601Y-95899589D01*
X91332536Y-95985985D01*
X91308901Y-96096054D01*
X91342961Y-96158508D01*
X91355786Y-96167446D01*
X91476528Y-96203343D01*
X91645612Y-96208426D01*
X91819739Y-96184631D01*
X91943124Y-96141147D01*
X92113713Y-95996309D01*
X92210681Y-95794694D01*
X92229885Y-95637180D01*
X92215230Y-95495104D01*
X92162199Y-95379127D01*
X92057194Y-95276121D01*
X91886614Y-95172954D01*
X91636862Y-95056496D01*
X91621647Y-95049914D01*
X91396671Y-94945981D01*
X91257843Y-94860743D01*
X91198338Y-94784147D01*
X91211328Y-94706139D01*
X91289988Y-94616664D01*
X91313510Y-94596073D01*
X91471067Y-94516236D01*
X91634323Y-94519597D01*
X91776505Y-94597874D01*
X91870840Y-94742781D01*
X91879605Y-94771224D01*
X91964962Y-94909174D01*
X92073271Y-94975620D01*
X92229885Y-95041471D01*
X92229885Y-94871097D01*
X92182244Y-94623454D01*
X92040841Y-94396307D01*
X91967258Y-94320318D01*
X91799991Y-94222790D01*
X91587274Y-94178640D01*
X91366759Y-94190601D01*
G36*
X93592337Y-93856429D02*
G01*
X93578077Y-94055313D01*
X93561698Y-94172511D01*
X93539002Y-94223632D01*
X93505788Y-94224286D01*
X93495019Y-94218183D01*
X93351767Y-94173997D01*
X93165425Y-94176577D01*
X92975976Y-94221999D01*
X92857483Y-94280759D01*
X92735991Y-94374631D01*
X92647177Y-94480865D01*
X92586208Y-94615850D01*
X92548250Y-94795976D01*
X92528468Y-95037633D01*
X92522030Y-95357211D01*
X92521914Y-95418516D01*
X92521839Y-96107147D01*
X92675077Y-96160566D01*
X92783913Y-96196908D01*
X92843626Y-96213828D01*
X92845383Y-96213985D01*
X92851264Y-96168100D01*
X92856268Y-96041539D01*
X92860016Y-95850941D01*
X92862127Y-95612948D01*
X92862452Y-95468252D01*
X92863129Y-95182955D01*
X92866614Y-94978480D01*
X92875088Y-94838334D01*
X92890734Y-94746023D01*
X92915731Y-94685053D01*
X92952262Y-94638931D01*
X92975071Y-94616720D01*
X93131751Y-94527214D01*
X93302726Y-94520511D01*
X93457850Y-94596208D01*
X93486537Y-94623539D01*
X93528613Y-94674929D01*
X93557799Y-94735886D01*
X93576429Y-94824025D01*
X93586839Y-94956961D01*
X93591363Y-95152309D01*
X93592337Y-95421652D01*
X93592337Y-96107147D01*
X93745575Y-96160566D01*
X93854411Y-96196908D01*
X93914124Y-96213828D01*
X93915881Y-96213985D01*
X93920375Y-96167414D01*
X93924425Y-96036051D01*
X93927870Y-95832422D01*
X93930547Y-95569054D01*
X93932294Y-95258471D01*
X93932949Y-94913201D01*
X93932950Y-94897843D01*
X93932950Y-93581701D01*
X93616666Y-93448289D01*
X93592337Y-93856429D01*
X93592337Y-93856429D01*
G37*
X93592337Y-93856429D02*
X93578077Y-94055313D01*
X93561698Y-94172511D01*
X93539002Y-94223632D01*
X93505788Y-94224286D01*
X93495019Y-94218183D01*
X93351767Y-94173997D01*
X93165425Y-94176577D01*
X92975976Y-94221999D01*
X92857483Y-94280759D01*
X92735991Y-94374631D01*
X92647177Y-94480865D01*
X92586208Y-94615850D01*
X92548250Y-94795976D01*
X92528468Y-95037633D01*
X92522030Y-95357211D01*
X92521914Y-95418516D01*
X92521839Y-96107147D01*
X92675077Y-96160566D01*
X92783913Y-96196908D01*
X92843626Y-96213828D01*
X92845383Y-96213985D01*
X92851264Y-96168100D01*
X92856268Y-96041539D01*
X92860016Y-95850941D01*
X92862127Y-95612948D01*
X92862452Y-95468252D01*
X92863129Y-95182955D01*
X92866614Y-94978480D01*
X92875088Y-94838334D01*
X92890734Y-94746023D01*
X92915731Y-94685053D01*
X92952262Y-94638931D01*
X92975071Y-94616720D01*
X93131751Y-94527214D01*
X93302726Y-94520511D01*
X93457850Y-94596208D01*
X93486537Y-94623539D01*
X93528613Y-94674929D01*
X93557799Y-94735886D01*
X93576429Y-94824025D01*
X93586839Y-94956961D01*
X93591363Y-95152309D01*
X93592337Y-95421652D01*
X93592337Y-96107147D01*
X93745575Y-96160566D01*
X93854411Y-96196908D01*
X93914124Y-96213828D01*
X93915881Y-96213985D01*
X93920375Y-96167414D01*
X93924425Y-96036051D01*
X93927870Y-95832422D01*
X93930547Y-95569054D01*
X93932294Y-95258471D01*
X93932949Y-94913201D01*
X93932950Y-94897843D01*
X93932950Y-93581701D01*
X93616666Y-93448289D01*
X93592337Y-93856429D01*
G36*
X97640747Y-94124461D02*
G01*
X97448903Y-94253519D01*
X97300648Y-94439915D01*
X97212084Y-94677109D01*
X97194172Y-94851691D01*
X97196206Y-94924544D01*
X97213240Y-94980324D01*
X97260064Y-95030298D01*
X97351473Y-95085733D01*
X97502258Y-95157896D01*
X97727213Y-95258055D01*
X97728352Y-95258558D01*
X97935415Y-95353396D01*
X98105212Y-95437609D01*
X98220388Y-95502133D01*
X98263590Y-95537900D01*
X98263601Y-95538188D01*
X98225525Y-95616074D01*
X98136484Y-95701924D01*
X98034263Y-95763769D01*
X97982474Y-95776054D01*
X97841184Y-95733564D01*
X97719512Y-95627152D01*
X97660145Y-95510156D01*
X97603033Y-95423905D01*
X97491161Y-95325681D01*
X97359654Y-95240827D01*
X97243632Y-95194681D01*
X97219371Y-95192146D01*
X97192062Y-95233868D01*
X97190416Y-95340519D01*
X97210486Y-95484321D01*
X97248322Y-95637501D01*
X97299977Y-95772283D01*
X97302586Y-95777516D01*
X97458031Y-95994557D01*
X97659493Y-96142185D01*
X97888288Y-96214644D01*
X98125733Y-96206177D01*
X98353146Y-96111027D01*
X98363257Y-96104337D01*
X98542150Y-95942211D01*
X98659780Y-95730682D01*
X98724877Y-95452543D01*
X98733613Y-95374398D01*
X98749086Y-95005549D01*
X98730537Y-94833541D01*
X98263601Y-94833541D01*
X98257534Y-94940838D01*
X98224351Y-94972152D01*
X98141623Y-94948725D01*
X98011221Y-94893348D01*
X97865457Y-94823932D01*
X97861834Y-94822094D01*
X97738283Y-94757108D01*
X97688697Y-94713740D01*
X97700925Y-94668275D01*
X97752412Y-94608536D01*
X97883399Y-94522085D01*
X98024462Y-94515733D01*
X98150995Y-94578649D01*
X98238392Y-94700003D01*
X98263601Y-94833541D01*
X98730537Y-94833541D01*
X98717260Y-94710435D01*
X98635609Y-94476382D01*
X98521939Y-94312413D01*
X98316775Y-94146716D01*
X98090786Y-94064519D01*
X97860075Y-94059281D01*
X97640747Y-94124461D01*
X97640747Y-94124461D01*
G37*
X97640747Y-94124461D02*
X97448903Y-94253519D01*
X97300648Y-94439915D01*
X97212084Y-94677109D01*
X97194172Y-94851691D01*
X97196206Y-94924544D01*
X97213240Y-94980324D01*
X97260064Y-95030298D01*
X97351473Y-95085733D01*
X97502258Y-95157896D01*
X97727213Y-95258055D01*
X97728352Y-95258558D01*
X97935415Y-95353396D01*
X98105212Y-95437609D01*
X98220388Y-95502133D01*
X98263590Y-95537900D01*
X98263601Y-95538188D01*
X98225525Y-95616074D01*
X98136484Y-95701924D01*
X98034263Y-95763769D01*
X97982474Y-95776054D01*
X97841184Y-95733564D01*
X97719512Y-95627152D01*
X97660145Y-95510156D01*
X97603033Y-95423905D01*
X97491161Y-95325681D01*
X97359654Y-95240827D01*
X97243632Y-95194681D01*
X97219371Y-95192146D01*
X97192062Y-95233868D01*
X97190416Y-95340519D01*
X97210486Y-95484321D01*
X97248322Y-95637501D01*
X97299977Y-95772283D01*
X97302586Y-95777516D01*
X97458031Y-95994557D01*
X97659493Y-96142185D01*
X97888288Y-96214644D01*
X98125733Y-96206177D01*
X98353146Y-96111027D01*
X98363257Y-96104337D01*
X98542150Y-95942211D01*
X98659780Y-95730682D01*
X98724877Y-95452543D01*
X98733613Y-95374398D01*
X98749086Y-95005549D01*
X98730537Y-94833541D01*
X98263601Y-94833541D01*
X98257534Y-94940838D01*
X98224351Y-94972152D01*
X98141623Y-94948725D01*
X98011221Y-94893348D01*
X97865457Y-94823932D01*
X97861834Y-94822094D01*
X97738283Y-94757108D01*
X97688697Y-94713740D01*
X97700925Y-94668275D01*
X97752412Y-94608536D01*
X97883399Y-94522085D01*
X98024462Y-94515733D01*
X98150995Y-94578649D01*
X98238392Y-94700003D01*
X98263601Y-94833541D01*
X98730537Y-94833541D01*
X98717260Y-94710435D01*
X98635609Y-94476382D01*
X98521939Y-94312413D01*
X98316775Y-94146716D01*
X98090786Y-94064519D01*
X97860075Y-94059281D01*
X97640747Y-94124461D01*
G36*
X101419632Y-94093358D02*
G01*
X101191564Y-94213280D01*
X101023248Y-94406278D01*
X100963459Y-94530355D01*
X100916934Y-94716653D01*
X100893118Y-94952045D01*
X100890860Y-95208952D01*
X100909008Y-95459799D01*
X100946411Y-95677009D01*
X101001916Y-95833005D01*
X101018975Y-95859871D01*
X101221030Y-96060415D01*
X101461022Y-96180529D01*
X101721434Y-96215680D01*
X101984753Y-96161337D01*
X102058033Y-96128756D01*
X102200739Y-96028353D01*
X102325986Y-95895225D01*
X102337823Y-95878341D01*
X102385935Y-95796969D01*
X102417738Y-95709984D01*
X102436526Y-95595475D01*
X102445592Y-95431530D01*
X102448229Y-95196240D01*
X102448275Y-95143487D01*
X102448154Y-95126699D01*
X101961685Y-95126699D01*
X101958854Y-95348761D01*
X101947712Y-95496123D01*
X101924291Y-95591308D01*
X101884619Y-95656837D01*
X101864367Y-95678736D01*
X101747940Y-95761953D01*
X101634902Y-95758158D01*
X101520609Y-95685973D01*
X101452441Y-95608911D01*
X101412070Y-95496429D01*
X101389398Y-95319055D01*
X101387843Y-95298367D01*
X101383973Y-94976911D01*
X101424417Y-94738167D01*
X101508626Y-94583600D01*
X101636053Y-94514678D01*
X101681540Y-94510920D01*
X101800981Y-94529821D01*
X101882683Y-94595306D01*
X101932637Y-94720544D01*
X101956834Y-94918704D01*
X101961685Y-95126699D01*
X102448154Y-95126699D01*
X102446463Y-94892765D01*
X102438853Y-94717582D01*
X102422186Y-94596191D01*
X102393201Y-94506847D01*
X102348640Y-94427803D01*
X102338793Y-94413107D01*
X102173280Y-94215011D01*
X101992930Y-94100014D01*
X101773365Y-94054365D01*
X101698805Y-94052135D01*
X101419632Y-94093358D01*
X101419632Y-94093358D01*
G37*
X101419632Y-94093358D02*
X101191564Y-94213280D01*
X101023248Y-94406278D01*
X100963459Y-94530355D01*
X100916934Y-94716653D01*
X100893118Y-94952045D01*
X100890860Y-95208952D01*
X100909008Y-95459799D01*
X100946411Y-95677009D01*
X101001916Y-95833005D01*
X101018975Y-95859871D01*
X101221030Y-96060415D01*
X101461022Y-96180529D01*
X101721434Y-96215680D01*
X101984753Y-96161337D01*
X102058033Y-96128756D01*
X102200739Y-96028353D01*
X102325986Y-95895225D01*
X102337823Y-95878341D01*
X102385935Y-95796969D01*
X102417738Y-95709984D01*
X102436526Y-95595475D01*
X102445592Y-95431530D01*
X102448229Y-95196240D01*
X102448275Y-95143487D01*
X102448154Y-95126699D01*
X101961685Y-95126699D01*
X101958854Y-95348761D01*
X101947712Y-95496123D01*
X101924291Y-95591308D01*
X101884619Y-95656837D01*
X101864367Y-95678736D01*
X101747940Y-95761953D01*
X101634902Y-95758158D01*
X101520609Y-95685973D01*
X101452441Y-95608911D01*
X101412070Y-95496429D01*
X101389398Y-95319055D01*
X101387843Y-95298367D01*
X101383973Y-94976911D01*
X101424417Y-94738167D01*
X101508626Y-94583600D01*
X101636053Y-94514678D01*
X101681540Y-94510920D01*
X101800981Y-94529821D01*
X101882683Y-94595306D01*
X101932637Y-94720544D01*
X101956834Y-94918704D01*
X101961685Y-95126699D01*
X102448154Y-95126699D01*
X102446463Y-94892765D01*
X102438853Y-94717582D01*
X102422186Y-94596191D01*
X102393201Y-94506847D01*
X102348640Y-94427803D01*
X102338793Y-94413107D01*
X102173280Y-94215011D01*
X101992930Y-94100014D01*
X101773365Y-94054365D01*
X101698805Y-94052135D01*
X101419632Y-94093358D01*
G36*
X95804284Y-94112865D02*
G01*
X95648128Y-94203190D01*
X95539559Y-94292845D01*
X95460155Y-94386776D01*
X95405454Y-94501646D01*
X95370990Y-94654114D01*
X95352299Y-94860844D01*
X95344919Y-95138496D01*
X95344061Y-95338086D01*
X95344061Y-96072766D01*
X95550862Y-96165472D01*
X95757662Y-96258179D01*
X95781992Y-95453492D01*
X95792045Y-95152966D01*
X95802591Y-94934835D01*
X95815657Y-94784186D01*
X95833271Y-94686107D01*
X95857461Y-94625688D01*
X95890254Y-94588016D01*
X95900775Y-94579862D01*
X96060187Y-94516178D01*
X96221321Y-94541378D01*
X96317241Y-94608238D01*
X96356259Y-94655616D01*
X96383267Y-94717787D01*
X96400432Y-94812039D01*
X96409918Y-94955657D01*
X96413893Y-95165931D01*
X96414559Y-95385070D01*
X96414690Y-95659999D01*
X96419397Y-95854602D01*
X96435154Y-95985851D01*
X96468433Y-96070718D01*
X96525707Y-96126177D01*
X96613447Y-96169201D01*
X96730638Y-96213907D01*
X96858632Y-96262571D01*
X96843396Y-95398910D01*
X96837261Y-95087565D01*
X96830082Y-94857483D01*
X96819795Y-94692614D01*
X96804330Y-94576909D01*
X96781621Y-94494316D01*
X96749601Y-94428788D01*
X96710997Y-94370974D01*
X96524747Y-94186283D01*
X96297479Y-94079481D01*
X96050291Y-94053898D01*
X95804284Y-94112865D01*
X95804284Y-94112865D01*
G37*
X95804284Y-94112865D02*
X95648128Y-94203190D01*
X95539559Y-94292845D01*
X95460155Y-94386776D01*
X95405454Y-94501646D01*
X95370990Y-94654114D01*
X95352299Y-94860844D01*
X95344919Y-95138496D01*
X95344061Y-95338086D01*
X95344061Y-96072766D01*
X95550862Y-96165472D01*
X95757662Y-96258179D01*
X95781992Y-95453492D01*
X95792045Y-95152966D01*
X95802591Y-94934835D01*
X95815657Y-94784186D01*
X95833271Y-94686107D01*
X95857461Y-94625688D01*
X95890254Y-94588016D01*
X95900775Y-94579862D01*
X96060187Y-94516178D01*
X96221321Y-94541378D01*
X96317241Y-94608238D01*
X96356259Y-94655616D01*
X96383267Y-94717787D01*
X96400432Y-94812039D01*
X96409918Y-94955657D01*
X96413893Y-95165931D01*
X96414559Y-95385070D01*
X96414690Y-95659999D01*
X96419397Y-95854602D01*
X96435154Y-95985851D01*
X96468433Y-96070718D01*
X96525707Y-96126177D01*
X96613447Y-96169201D01*
X96730638Y-96213907D01*
X96858632Y-96262571D01*
X96843396Y-95398910D01*
X96837261Y-95087565D01*
X96830082Y-94857483D01*
X96819795Y-94692614D01*
X96804330Y-94576909D01*
X96781621Y-94494316D01*
X96749601Y-94428788D01*
X96710997Y-94370974D01*
X96524747Y-94186283D01*
X96297479Y-94079481D01*
X96050291Y-94053898D01*
X95804284Y-94112865D01*
G36*
X99546834Y-94086506D02*
G01*
X99360916Y-94179204D01*
X99196820Y-94349885D01*
X99151628Y-94413107D01*
X99102396Y-94495834D01*
X99070453Y-94585687D01*
X99052178Y-94705608D01*
X99043952Y-94878537D01*
X99042145Y-95106835D01*
X99050303Y-95419693D01*
X99078659Y-95654598D01*
X99133038Y-95829847D01*
X99219263Y-95963738D01*
X99343159Y-96074569D01*
X99352263Y-96081131D01*
X99474366Y-96148256D01*
X99621400Y-96181467D01*
X99808396Y-96189655D01*
X100112387Y-96189655D01*
X100112515Y-96484762D01*
X100115344Y-96649117D01*
X100132582Y-96745523D01*
X100177630Y-96803343D01*
X100263886Y-96851941D01*
X100284601Y-96861869D01*
X100381538Y-96908398D01*
X100456593Y-96937786D01*
X100512402Y-96940324D01*
X100551603Y-96906302D01*
X100576832Y-96826012D01*
X100590728Y-96689743D01*
X100595927Y-96487787D01*
X100595066Y-96210434D01*
X100590784Y-95847976D01*
X100589447Y-95739560D01*
X100584629Y-95365837D01*
X100580313Y-95121369D01*
X100112643Y-95121369D01*
X100110015Y-95328877D01*
X100098333Y-95464645D01*
X100071903Y-95554192D01*
X100025031Y-95623039D01*
X99993207Y-95656618D01*
X99863108Y-95754869D01*
X99747921Y-95762866D01*
X99629066Y-95681730D01*
X99626053Y-95678736D01*
X99577695Y-95616030D01*
X99548278Y-95530808D01*
X99533440Y-95399564D01*
X99528819Y-95198793D01*
X99528735Y-95154314D01*
X99539902Y-94877639D01*
X99576253Y-94685842D01*
X99642059Y-94568757D01*
X99741593Y-94516215D01*
X99799119Y-94510920D01*
X99935649Y-94535767D01*
X100029298Y-94617581D01*
X100085670Y-94767270D01*
X100110367Y-94995743D01*
X100112643Y-95121369D01*
X100580313Y-95121369D01*
X100579522Y-95076587D01*
X100572922Y-94858970D01*
X100563623Y-94700146D01*
X100550423Y-94587274D01*
X100532115Y-94507513D01*
X100507497Y-94448023D01*
X100475363Y-94395963D01*
X100461585Y-94376373D01*
X100278812Y-94191328D01*
X100047724Y-94086412D01*
X99780410Y-94057163D01*
X99546834Y-94086506D01*
X99546834Y-94086506D01*
G37*
X99546834Y-94086506D02*
X99360916Y-94179204D01*
X99196820Y-94349885D01*
X99151628Y-94413107D01*
X99102396Y-94495834D01*
X99070453Y-94585687D01*
X99052178Y-94705608D01*
X99043952Y-94878537D01*
X99042145Y-95106835D01*
X99050303Y-95419693D01*
X99078659Y-95654598D01*
X99133038Y-95829847D01*
X99219263Y-95963738D01*
X99343159Y-96074569D01*
X99352263Y-96081131D01*
X99474366Y-96148256D01*
X99621400Y-96181467D01*
X99808396Y-96189655D01*
X100112387Y-96189655D01*
X100112515Y-96484762D01*
X100115344Y-96649117D01*
X100132582Y-96745523D01*
X100177630Y-96803343D01*
X100263886Y-96851941D01*
X100284601Y-96861869D01*
X100381538Y-96908398D01*
X100456593Y-96937786D01*
X100512402Y-96940324D01*
X100551603Y-96906302D01*
X100576832Y-96826012D01*
X100590728Y-96689743D01*
X100595927Y-96487787D01*
X100595066Y-96210434D01*
X100590784Y-95847976D01*
X100589447Y-95739560D01*
X100584629Y-95365837D01*
X100580313Y-95121369D01*
X100112643Y-95121369D01*
X100110015Y-95328877D01*
X100098333Y-95464645D01*
X100071903Y-95554192D01*
X100025031Y-95623039D01*
X99993207Y-95656618D01*
X99863108Y-95754869D01*
X99747921Y-95762866D01*
X99629066Y-95681730D01*
X99626053Y-95678736D01*
X99577695Y-95616030D01*
X99548278Y-95530808D01*
X99533440Y-95399564D01*
X99528819Y-95198793D01*
X99528735Y-95154314D01*
X99539902Y-94877639D01*
X99576253Y-94685842D01*
X99642059Y-94568757D01*
X99741593Y-94516215D01*
X99799119Y-94510920D01*
X99935649Y-94535767D01*
X100029298Y-94617581D01*
X100085670Y-94767270D01*
X100110367Y-94995743D01*
X100112643Y-95121369D01*
X100580313Y-95121369D01*
X100579522Y-95076587D01*
X100572922Y-94858970D01*
X100563623Y-94700146D01*
X100550423Y-94587274D01*
X100532115Y-94507513D01*
X100507497Y-94448023D01*
X100475363Y-94395963D01*
X100461585Y-94376373D01*
X100278812Y-94191328D01*
X100047724Y-94086412D01*
X99780410Y-94057163D01*
X99546834Y-94086506D01*
%LPC*%
D14*
X43300000Y-150050000D03*
D15*
X48300000Y-150050000D03*
D16*
X91500000Y-102550000D03*
D17*
X93750000Y-102550000D03*
X93090990Y-104140990D03*
X91500000Y-104800000D03*
X89909010Y-104140990D03*
X89250000Y-102550000D03*
X89909010Y-100959010D03*
X91500000Y-100300000D03*
X93090990Y-100959010D03*
X148590990Y-150409010D03*
X147000000Y-149750000D03*
X145409010Y-150409010D03*
X144750000Y-152000000D03*
X145409010Y-153590990D03*
X147000000Y-154250000D03*
X148590990Y-153590990D03*
X149250000Y-152000000D03*
D16*
X147000000Y-152000000D03*
D17*
X34590990Y-150409010D03*
X33000000Y-149750000D03*
X31409010Y-150409010D03*
X30750000Y-152000000D03*
X31409010Y-153590990D03*
X33000000Y-154250000D03*
X34590990Y-153590990D03*
X35250000Y-152000000D03*
D16*
X33000000Y-152000000D03*
X123000000Y-46000000D03*
D17*
X125250000Y-46000000D03*
X124590990Y-47590990D03*
X123000000Y-48250000D03*
X121409010Y-47590990D03*
X120750000Y-46000000D03*
X121409010Y-44409010D03*
X123000000Y-43750000D03*
X124590990Y-44409010D03*
X68940990Y-44359010D03*
X67350000Y-43700000D03*
X65759010Y-44359010D03*
X65100000Y-45950000D03*
X65759010Y-47540990D03*
X67350000Y-48200000D03*
X68940990Y-47540990D03*
X69600000Y-45950000D03*
D16*
X67350000Y-46000000D03*
D18*
X39000000Y-134200000D03*
D19*
X39000000Y-131660000D03*
D18*
X115620000Y-134000000D03*
D19*
X118160000Y-134000000D03*
X115620000Y-131460000D03*
X118160000Y-131460000D03*
X115620000Y-128920000D03*
X118160000Y-128920000D03*
X115620000Y-126380000D03*
X118160000Y-126380000D03*
X115620000Y-123840000D03*
X118160000Y-123840000D03*
X115620000Y-121300000D03*
X118160000Y-121300000D03*
X115620000Y-118760000D03*
X118160000Y-118760000D03*
X115620000Y-116220000D03*
X118160000Y-116220000D03*
X115620000Y-113680000D03*
X118160000Y-113680000D03*
X115620000Y-111140000D03*
X118160000Y-111140000D03*
X115620000Y-108600000D03*
X118160000Y-108600000D03*
X115620000Y-106060000D03*
X118160000Y-106060000D03*
X115620000Y-103520000D03*
X118160000Y-103520000D03*
X115620000Y-100980000D03*
X118160000Y-100980000D03*
X115620000Y-98440000D03*
X118160000Y-98440000D03*
X115620000Y-95900000D03*
X118160000Y-95900000D03*
X115620000Y-93360000D03*
X118160000Y-93360000D03*
X115620000Y-90820000D03*
X118160000Y-90820000D03*
X115620000Y-88280000D03*
X118160000Y-88280000D03*
X115620000Y-85740000D03*
X118160000Y-85740000D03*
X115620000Y-83200000D03*
X118160000Y-83200000D03*
X115620000Y-80660000D03*
X118160000Y-80660000D03*
X115620000Y-78120000D03*
X118160000Y-78120000D03*
X115620000Y-75580000D03*
X118160000Y-75580000D03*
X115620000Y-73040000D03*
X118160000Y-73040000D03*
D18*
X64800000Y-134000000D03*
D19*
X67340000Y-134000000D03*
X64800000Y-131460000D03*
X67340000Y-131460000D03*
X64800000Y-128920000D03*
X67340000Y-128920000D03*
X64800000Y-126380000D03*
X67340000Y-126380000D03*
X64800000Y-123840000D03*
X67340000Y-123840000D03*
X64800000Y-121300000D03*
X67340000Y-121300000D03*
X64800000Y-118760000D03*
X67340000Y-118760000D03*
X64800000Y-116220000D03*
X67340000Y-116220000D03*
X64800000Y-113680000D03*
X67340000Y-113680000D03*
X64800000Y-111140000D03*
X67340000Y-111140000D03*
X64800000Y-108600000D03*
X67340000Y-108600000D03*
X64800000Y-106060000D03*
X67340000Y-106060000D03*
X64800000Y-103520000D03*
X67340000Y-103520000D03*
X64800000Y-100980000D03*
X67340000Y-100980000D03*
X64800000Y-98440000D03*
X67340000Y-98440000D03*
X64800000Y-95900000D03*
X67340000Y-95900000D03*
X64800000Y-93360000D03*
X67340000Y-93360000D03*
X64800000Y-90820000D03*
X67340000Y-90820000D03*
X64800000Y-88280000D03*
X67340000Y-88280000D03*
X64800000Y-85740000D03*
X67340000Y-85740000D03*
X64800000Y-83200000D03*
X67340000Y-83200000D03*
X64800000Y-80660000D03*
X67340000Y-80660000D03*
X64800000Y-78120000D03*
X67340000Y-78120000D03*
X64800000Y-75580000D03*
X67340000Y-75580000D03*
X64800000Y-73040000D03*
X67340000Y-73040000D03*
D18*
X33350000Y-130550000D03*
D19*
X33350000Y-133090000D03*
X33350000Y-135630000D03*
X115730000Y-29100000D03*
X113190000Y-29100000D03*
D18*
X110650000Y-29100000D03*
X128000000Y-140000000D03*
D19*
X128000000Y-142540000D03*
X130540000Y-140000000D03*
X130540000Y-142540000D03*
X133080000Y-140000000D03*
X133080000Y-142540000D03*
X135620000Y-140000000D03*
X135620000Y-142540000D03*
D18*
X74950000Y-28500000D03*
D19*
X77490000Y-28500000D03*
X80030000Y-28500000D03*
X98730000Y-50050000D03*
X96190000Y-50050000D03*
D18*
X93650000Y-50050000D03*
X75700000Y-49950000D03*
D19*
X78240000Y-49950000D03*
X80780000Y-49950000D03*
D18*
X139500000Y-150000000D03*
D19*
X139500000Y-147460000D03*
X136960000Y-150000000D03*
X136960000Y-147460000D03*
X134420000Y-150000000D03*
X134420000Y-147460000D03*
X131880000Y-150000000D03*
X131880000Y-147460000D03*
X150620000Y-142540000D03*
X150620000Y-140000000D03*
X148080000Y-142540000D03*
X148080000Y-140000000D03*
X145540000Y-142540000D03*
X145540000Y-140000000D03*
X143000000Y-142540000D03*
D18*
X143000000Y-140000000D03*
X111150000Y-50300000D03*
D19*
X113690000Y-50300000D03*
X116230000Y-50300000D03*
X98030000Y-29300000D03*
X95490000Y-29300000D03*
D18*
X92950000Y-29300000D03*
D20*
X39950000Y-78250000D03*
X39950000Y-82750000D03*
X33450000Y-78250000D03*
X33450000Y-82750000D03*
X46300000Y-82750000D03*
X46300000Y-78250000D03*
X52800000Y-82750000D03*
X52800000Y-78250000D03*
X33400000Y-93650000D03*
X33400000Y-89150000D03*
X39900000Y-93650000D03*
X39900000Y-89150000D03*
X52600000Y-89300000D03*
X52600000Y-93800000D03*
X46100000Y-89300000D03*
X46100000Y-93800000D03*
D18*
X127900000Y-129150000D03*
X127900000Y-78150000D03*
X148900000Y-129150000D03*
X148900000Y-78150000D03*
D21*
X108230000Y-38030000D03*
X109500000Y-36760000D03*
D22*
X109500000Y-39300000D03*
X93050000Y-60050000D03*
D21*
X93050000Y-57510000D03*
X91780000Y-58780000D03*
X100920000Y-37720000D03*
X99650000Y-38990000D03*
D22*
X99650000Y-36450000D03*
X116400000Y-36850000D03*
D21*
X116400000Y-39390000D03*
X117670000Y-38120000D03*
D22*
X100000000Y-57600000D03*
D21*
X100000000Y-60140000D03*
X101270000Y-58870000D03*
X91380000Y-37680000D03*
X92650000Y-36410000D03*
D22*
X92650000Y-38950000D03*
D21*
X82920000Y-59270000D03*
X81650000Y-60540000D03*
D22*
X81650000Y-58000000D03*
X117850000Y-58300000D03*
D21*
X117850000Y-60840000D03*
X119120000Y-59570000D03*
X82920000Y-37770000D03*
X81650000Y-39040000D03*
D22*
X81650000Y-36500000D03*
X74500000Y-60500000D03*
D21*
X74500000Y-57960000D03*
X73230000Y-59230000D03*
X109380000Y-59580000D03*
X110650000Y-58310000D03*
D22*
X110650000Y-60850000D03*
X74600000Y-38950000D03*
D21*
X74600000Y-36410000D03*
X73330000Y-37680000D03*
D16*
X33950000Y-65000000D03*
D17*
X36200000Y-65000000D03*
X35540990Y-66590990D03*
X33950000Y-67250000D03*
X32359010Y-66590990D03*
X31700000Y-65000000D03*
X32359010Y-63409010D03*
X33950000Y-62750000D03*
X35540990Y-63409010D03*
X150090990Y-63409010D03*
X148500000Y-62750000D03*
X146909010Y-63409010D03*
X146250000Y-65000000D03*
X146909010Y-66590990D03*
X148500000Y-67250000D03*
X150090990Y-66590990D03*
X150750000Y-65000000D03*
D16*
X148500000Y-65000000D03*
D18*
X50050000Y-65350000D03*
D19*
X50050000Y-67890000D03*
X47510000Y-65350000D03*
X47510000Y-67890000D03*
X44970000Y-65350000D03*
X44970000Y-67890000D03*
M02*
