G04 #@! TF.GenerationSoftware,KiCad,Pcbnew,(5.1.2)-2*
G04 #@! TF.CreationDate,2021-07-04T15:20:40+03:00*
G04 #@! TF.ProjectId,control_board,636f6e74-726f-46c5-9f62-6f6172642e6b,rev?*
G04 #@! TF.SameCoordinates,Original*
G04 #@! TF.FileFunction,Paste,Top*
G04 #@! TF.FilePolarity,Positive*
%FSLAX46Y46*%
G04 Gerber Fmt 4.6, Leading zero omitted, Abs format (unit mm)*
G04 Created by KiCad (PCBNEW (5.1.2)-2) date 2021-07-04 15:20:40*
%MOMM*%
%LPD*%
G04 APERTURE LIST*
%ADD10C,0.100000*%
%ADD11C,0.975000*%
%ADD12R,3.800000X2.000000*%
%ADD13R,1.500000X2.000000*%
G04 APERTURE END LIST*
D10*
G36*
X136005142Y-73801174D02*
G01*
X136028803Y-73804684D01*
X136052007Y-73810496D01*
X136074529Y-73818554D01*
X136096153Y-73828782D01*
X136116670Y-73841079D01*
X136135883Y-73855329D01*
X136153607Y-73871393D01*
X136169671Y-73889117D01*
X136183921Y-73908330D01*
X136196218Y-73928847D01*
X136206446Y-73950471D01*
X136214504Y-73972993D01*
X136220316Y-73996197D01*
X136223826Y-74019858D01*
X136225000Y-74043750D01*
X136225000Y-74956250D01*
X136223826Y-74980142D01*
X136220316Y-75003803D01*
X136214504Y-75027007D01*
X136206446Y-75049529D01*
X136196218Y-75071153D01*
X136183921Y-75091670D01*
X136169671Y-75110883D01*
X136153607Y-75128607D01*
X136135883Y-75144671D01*
X136116670Y-75158921D01*
X136096153Y-75171218D01*
X136074529Y-75181446D01*
X136052007Y-75189504D01*
X136028803Y-75195316D01*
X136005142Y-75198826D01*
X135981250Y-75200000D01*
X135493750Y-75200000D01*
X135469858Y-75198826D01*
X135446197Y-75195316D01*
X135422993Y-75189504D01*
X135400471Y-75181446D01*
X135378847Y-75171218D01*
X135358330Y-75158921D01*
X135339117Y-75144671D01*
X135321393Y-75128607D01*
X135305329Y-75110883D01*
X135291079Y-75091670D01*
X135278782Y-75071153D01*
X135268554Y-75049529D01*
X135260496Y-75027007D01*
X135254684Y-75003803D01*
X135251174Y-74980142D01*
X135250000Y-74956250D01*
X135250000Y-74043750D01*
X135251174Y-74019858D01*
X135254684Y-73996197D01*
X135260496Y-73972993D01*
X135268554Y-73950471D01*
X135278782Y-73928847D01*
X135291079Y-73908330D01*
X135305329Y-73889117D01*
X135321393Y-73871393D01*
X135339117Y-73855329D01*
X135358330Y-73841079D01*
X135378847Y-73828782D01*
X135400471Y-73818554D01*
X135422993Y-73810496D01*
X135446197Y-73804684D01*
X135469858Y-73801174D01*
X135493750Y-73800000D01*
X135981250Y-73800000D01*
X136005142Y-73801174D01*
X136005142Y-73801174D01*
G37*
D11*
X135737500Y-74500000D03*
D10*
G36*
X134130142Y-73801174D02*
G01*
X134153803Y-73804684D01*
X134177007Y-73810496D01*
X134199529Y-73818554D01*
X134221153Y-73828782D01*
X134241670Y-73841079D01*
X134260883Y-73855329D01*
X134278607Y-73871393D01*
X134294671Y-73889117D01*
X134308921Y-73908330D01*
X134321218Y-73928847D01*
X134331446Y-73950471D01*
X134339504Y-73972993D01*
X134345316Y-73996197D01*
X134348826Y-74019858D01*
X134350000Y-74043750D01*
X134350000Y-74956250D01*
X134348826Y-74980142D01*
X134345316Y-75003803D01*
X134339504Y-75027007D01*
X134331446Y-75049529D01*
X134321218Y-75071153D01*
X134308921Y-75091670D01*
X134294671Y-75110883D01*
X134278607Y-75128607D01*
X134260883Y-75144671D01*
X134241670Y-75158921D01*
X134221153Y-75171218D01*
X134199529Y-75181446D01*
X134177007Y-75189504D01*
X134153803Y-75195316D01*
X134130142Y-75198826D01*
X134106250Y-75200000D01*
X133618750Y-75200000D01*
X133594858Y-75198826D01*
X133571197Y-75195316D01*
X133547993Y-75189504D01*
X133525471Y-75181446D01*
X133503847Y-75171218D01*
X133483330Y-75158921D01*
X133464117Y-75144671D01*
X133446393Y-75128607D01*
X133430329Y-75110883D01*
X133416079Y-75091670D01*
X133403782Y-75071153D01*
X133393554Y-75049529D01*
X133385496Y-75027007D01*
X133379684Y-75003803D01*
X133376174Y-74980142D01*
X133375000Y-74956250D01*
X133375000Y-74043750D01*
X133376174Y-74019858D01*
X133379684Y-73996197D01*
X133385496Y-73972993D01*
X133393554Y-73950471D01*
X133403782Y-73928847D01*
X133416079Y-73908330D01*
X133430329Y-73889117D01*
X133446393Y-73871393D01*
X133464117Y-73855329D01*
X133483330Y-73841079D01*
X133503847Y-73828782D01*
X133525471Y-73818554D01*
X133547993Y-73810496D01*
X133571197Y-73804684D01*
X133594858Y-73801174D01*
X133618750Y-73800000D01*
X134106250Y-73800000D01*
X134130142Y-73801174D01*
X134130142Y-73801174D01*
G37*
D11*
X133862500Y-74500000D03*
D10*
G36*
X41605142Y-117551174D02*
G01*
X41628803Y-117554684D01*
X41652007Y-117560496D01*
X41674529Y-117568554D01*
X41696153Y-117578782D01*
X41716670Y-117591079D01*
X41735883Y-117605329D01*
X41753607Y-117621393D01*
X41769671Y-117639117D01*
X41783921Y-117658330D01*
X41796218Y-117678847D01*
X41806446Y-117700471D01*
X41814504Y-117722993D01*
X41820316Y-117746197D01*
X41823826Y-117769858D01*
X41825000Y-117793750D01*
X41825000Y-118706250D01*
X41823826Y-118730142D01*
X41820316Y-118753803D01*
X41814504Y-118777007D01*
X41806446Y-118799529D01*
X41796218Y-118821153D01*
X41783921Y-118841670D01*
X41769671Y-118860883D01*
X41753607Y-118878607D01*
X41735883Y-118894671D01*
X41716670Y-118908921D01*
X41696153Y-118921218D01*
X41674529Y-118931446D01*
X41652007Y-118939504D01*
X41628803Y-118945316D01*
X41605142Y-118948826D01*
X41581250Y-118950000D01*
X41093750Y-118950000D01*
X41069858Y-118948826D01*
X41046197Y-118945316D01*
X41022993Y-118939504D01*
X41000471Y-118931446D01*
X40978847Y-118921218D01*
X40958330Y-118908921D01*
X40939117Y-118894671D01*
X40921393Y-118878607D01*
X40905329Y-118860883D01*
X40891079Y-118841670D01*
X40878782Y-118821153D01*
X40868554Y-118799529D01*
X40860496Y-118777007D01*
X40854684Y-118753803D01*
X40851174Y-118730142D01*
X40850000Y-118706250D01*
X40850000Y-117793750D01*
X40851174Y-117769858D01*
X40854684Y-117746197D01*
X40860496Y-117722993D01*
X40868554Y-117700471D01*
X40878782Y-117678847D01*
X40891079Y-117658330D01*
X40905329Y-117639117D01*
X40921393Y-117621393D01*
X40939117Y-117605329D01*
X40958330Y-117591079D01*
X40978847Y-117578782D01*
X41000471Y-117568554D01*
X41022993Y-117560496D01*
X41046197Y-117554684D01*
X41069858Y-117551174D01*
X41093750Y-117550000D01*
X41581250Y-117550000D01*
X41605142Y-117551174D01*
X41605142Y-117551174D01*
G37*
D11*
X41337500Y-118250000D03*
D10*
G36*
X39730142Y-117551174D02*
G01*
X39753803Y-117554684D01*
X39777007Y-117560496D01*
X39799529Y-117568554D01*
X39821153Y-117578782D01*
X39841670Y-117591079D01*
X39860883Y-117605329D01*
X39878607Y-117621393D01*
X39894671Y-117639117D01*
X39908921Y-117658330D01*
X39921218Y-117678847D01*
X39931446Y-117700471D01*
X39939504Y-117722993D01*
X39945316Y-117746197D01*
X39948826Y-117769858D01*
X39950000Y-117793750D01*
X39950000Y-118706250D01*
X39948826Y-118730142D01*
X39945316Y-118753803D01*
X39939504Y-118777007D01*
X39931446Y-118799529D01*
X39921218Y-118821153D01*
X39908921Y-118841670D01*
X39894671Y-118860883D01*
X39878607Y-118878607D01*
X39860883Y-118894671D01*
X39841670Y-118908921D01*
X39821153Y-118921218D01*
X39799529Y-118931446D01*
X39777007Y-118939504D01*
X39753803Y-118945316D01*
X39730142Y-118948826D01*
X39706250Y-118950000D01*
X39218750Y-118950000D01*
X39194858Y-118948826D01*
X39171197Y-118945316D01*
X39147993Y-118939504D01*
X39125471Y-118931446D01*
X39103847Y-118921218D01*
X39083330Y-118908921D01*
X39064117Y-118894671D01*
X39046393Y-118878607D01*
X39030329Y-118860883D01*
X39016079Y-118841670D01*
X39003782Y-118821153D01*
X38993554Y-118799529D01*
X38985496Y-118777007D01*
X38979684Y-118753803D01*
X38976174Y-118730142D01*
X38975000Y-118706250D01*
X38975000Y-117793750D01*
X38976174Y-117769858D01*
X38979684Y-117746197D01*
X38985496Y-117722993D01*
X38993554Y-117700471D01*
X39003782Y-117678847D01*
X39016079Y-117658330D01*
X39030329Y-117639117D01*
X39046393Y-117621393D01*
X39064117Y-117605329D01*
X39083330Y-117591079D01*
X39103847Y-117578782D01*
X39125471Y-117568554D01*
X39147993Y-117560496D01*
X39171197Y-117554684D01*
X39194858Y-117551174D01*
X39218750Y-117550000D01*
X39706250Y-117550000D01*
X39730142Y-117551174D01*
X39730142Y-117551174D01*
G37*
D11*
X39462500Y-118250000D03*
D10*
G36*
X39830142Y-120851174D02*
G01*
X39853803Y-120854684D01*
X39877007Y-120860496D01*
X39899529Y-120868554D01*
X39921153Y-120878782D01*
X39941670Y-120891079D01*
X39960883Y-120905329D01*
X39978607Y-120921393D01*
X39994671Y-120939117D01*
X40008921Y-120958330D01*
X40021218Y-120978847D01*
X40031446Y-121000471D01*
X40039504Y-121022993D01*
X40045316Y-121046197D01*
X40048826Y-121069858D01*
X40050000Y-121093750D01*
X40050000Y-122006250D01*
X40048826Y-122030142D01*
X40045316Y-122053803D01*
X40039504Y-122077007D01*
X40031446Y-122099529D01*
X40021218Y-122121153D01*
X40008921Y-122141670D01*
X39994671Y-122160883D01*
X39978607Y-122178607D01*
X39960883Y-122194671D01*
X39941670Y-122208921D01*
X39921153Y-122221218D01*
X39899529Y-122231446D01*
X39877007Y-122239504D01*
X39853803Y-122245316D01*
X39830142Y-122248826D01*
X39806250Y-122250000D01*
X39318750Y-122250000D01*
X39294858Y-122248826D01*
X39271197Y-122245316D01*
X39247993Y-122239504D01*
X39225471Y-122231446D01*
X39203847Y-122221218D01*
X39183330Y-122208921D01*
X39164117Y-122194671D01*
X39146393Y-122178607D01*
X39130329Y-122160883D01*
X39116079Y-122141670D01*
X39103782Y-122121153D01*
X39093554Y-122099529D01*
X39085496Y-122077007D01*
X39079684Y-122053803D01*
X39076174Y-122030142D01*
X39075000Y-122006250D01*
X39075000Y-121093750D01*
X39076174Y-121069858D01*
X39079684Y-121046197D01*
X39085496Y-121022993D01*
X39093554Y-121000471D01*
X39103782Y-120978847D01*
X39116079Y-120958330D01*
X39130329Y-120939117D01*
X39146393Y-120921393D01*
X39164117Y-120905329D01*
X39183330Y-120891079D01*
X39203847Y-120878782D01*
X39225471Y-120868554D01*
X39247993Y-120860496D01*
X39271197Y-120854684D01*
X39294858Y-120851174D01*
X39318750Y-120850000D01*
X39806250Y-120850000D01*
X39830142Y-120851174D01*
X39830142Y-120851174D01*
G37*
D11*
X39562500Y-121550000D03*
D10*
G36*
X41705142Y-120851174D02*
G01*
X41728803Y-120854684D01*
X41752007Y-120860496D01*
X41774529Y-120868554D01*
X41796153Y-120878782D01*
X41816670Y-120891079D01*
X41835883Y-120905329D01*
X41853607Y-120921393D01*
X41869671Y-120939117D01*
X41883921Y-120958330D01*
X41896218Y-120978847D01*
X41906446Y-121000471D01*
X41914504Y-121022993D01*
X41920316Y-121046197D01*
X41923826Y-121069858D01*
X41925000Y-121093750D01*
X41925000Y-122006250D01*
X41923826Y-122030142D01*
X41920316Y-122053803D01*
X41914504Y-122077007D01*
X41906446Y-122099529D01*
X41896218Y-122121153D01*
X41883921Y-122141670D01*
X41869671Y-122160883D01*
X41853607Y-122178607D01*
X41835883Y-122194671D01*
X41816670Y-122208921D01*
X41796153Y-122221218D01*
X41774529Y-122231446D01*
X41752007Y-122239504D01*
X41728803Y-122245316D01*
X41705142Y-122248826D01*
X41681250Y-122250000D01*
X41193750Y-122250000D01*
X41169858Y-122248826D01*
X41146197Y-122245316D01*
X41122993Y-122239504D01*
X41100471Y-122231446D01*
X41078847Y-122221218D01*
X41058330Y-122208921D01*
X41039117Y-122194671D01*
X41021393Y-122178607D01*
X41005329Y-122160883D01*
X40991079Y-122141670D01*
X40978782Y-122121153D01*
X40968554Y-122099529D01*
X40960496Y-122077007D01*
X40954684Y-122053803D01*
X40951174Y-122030142D01*
X40950000Y-122006250D01*
X40950000Y-121093750D01*
X40951174Y-121069858D01*
X40954684Y-121046197D01*
X40960496Y-121022993D01*
X40968554Y-121000471D01*
X40978782Y-120978847D01*
X40991079Y-120958330D01*
X41005329Y-120939117D01*
X41021393Y-120921393D01*
X41039117Y-120905329D01*
X41058330Y-120891079D01*
X41078847Y-120878782D01*
X41100471Y-120868554D01*
X41122993Y-120860496D01*
X41146197Y-120854684D01*
X41169858Y-120851174D01*
X41193750Y-120850000D01*
X41681250Y-120850000D01*
X41705142Y-120851174D01*
X41705142Y-120851174D01*
G37*
D11*
X41437500Y-121550000D03*
D10*
G36*
X39680142Y-114301174D02*
G01*
X39703803Y-114304684D01*
X39727007Y-114310496D01*
X39749529Y-114318554D01*
X39771153Y-114328782D01*
X39791670Y-114341079D01*
X39810883Y-114355329D01*
X39828607Y-114371393D01*
X39844671Y-114389117D01*
X39858921Y-114408330D01*
X39871218Y-114428847D01*
X39881446Y-114450471D01*
X39889504Y-114472993D01*
X39895316Y-114496197D01*
X39898826Y-114519858D01*
X39900000Y-114543750D01*
X39900000Y-115456250D01*
X39898826Y-115480142D01*
X39895316Y-115503803D01*
X39889504Y-115527007D01*
X39881446Y-115549529D01*
X39871218Y-115571153D01*
X39858921Y-115591670D01*
X39844671Y-115610883D01*
X39828607Y-115628607D01*
X39810883Y-115644671D01*
X39791670Y-115658921D01*
X39771153Y-115671218D01*
X39749529Y-115681446D01*
X39727007Y-115689504D01*
X39703803Y-115695316D01*
X39680142Y-115698826D01*
X39656250Y-115700000D01*
X39168750Y-115700000D01*
X39144858Y-115698826D01*
X39121197Y-115695316D01*
X39097993Y-115689504D01*
X39075471Y-115681446D01*
X39053847Y-115671218D01*
X39033330Y-115658921D01*
X39014117Y-115644671D01*
X38996393Y-115628607D01*
X38980329Y-115610883D01*
X38966079Y-115591670D01*
X38953782Y-115571153D01*
X38943554Y-115549529D01*
X38935496Y-115527007D01*
X38929684Y-115503803D01*
X38926174Y-115480142D01*
X38925000Y-115456250D01*
X38925000Y-114543750D01*
X38926174Y-114519858D01*
X38929684Y-114496197D01*
X38935496Y-114472993D01*
X38943554Y-114450471D01*
X38953782Y-114428847D01*
X38966079Y-114408330D01*
X38980329Y-114389117D01*
X38996393Y-114371393D01*
X39014117Y-114355329D01*
X39033330Y-114341079D01*
X39053847Y-114328782D01*
X39075471Y-114318554D01*
X39097993Y-114310496D01*
X39121197Y-114304684D01*
X39144858Y-114301174D01*
X39168750Y-114300000D01*
X39656250Y-114300000D01*
X39680142Y-114301174D01*
X39680142Y-114301174D01*
G37*
D11*
X39412500Y-115000000D03*
D10*
G36*
X41555142Y-114301174D02*
G01*
X41578803Y-114304684D01*
X41602007Y-114310496D01*
X41624529Y-114318554D01*
X41646153Y-114328782D01*
X41666670Y-114341079D01*
X41685883Y-114355329D01*
X41703607Y-114371393D01*
X41719671Y-114389117D01*
X41733921Y-114408330D01*
X41746218Y-114428847D01*
X41756446Y-114450471D01*
X41764504Y-114472993D01*
X41770316Y-114496197D01*
X41773826Y-114519858D01*
X41775000Y-114543750D01*
X41775000Y-115456250D01*
X41773826Y-115480142D01*
X41770316Y-115503803D01*
X41764504Y-115527007D01*
X41756446Y-115549529D01*
X41746218Y-115571153D01*
X41733921Y-115591670D01*
X41719671Y-115610883D01*
X41703607Y-115628607D01*
X41685883Y-115644671D01*
X41666670Y-115658921D01*
X41646153Y-115671218D01*
X41624529Y-115681446D01*
X41602007Y-115689504D01*
X41578803Y-115695316D01*
X41555142Y-115698826D01*
X41531250Y-115700000D01*
X41043750Y-115700000D01*
X41019858Y-115698826D01*
X40996197Y-115695316D01*
X40972993Y-115689504D01*
X40950471Y-115681446D01*
X40928847Y-115671218D01*
X40908330Y-115658921D01*
X40889117Y-115644671D01*
X40871393Y-115628607D01*
X40855329Y-115610883D01*
X40841079Y-115591670D01*
X40828782Y-115571153D01*
X40818554Y-115549529D01*
X40810496Y-115527007D01*
X40804684Y-115503803D01*
X40801174Y-115480142D01*
X40800000Y-115456250D01*
X40800000Y-114543750D01*
X40801174Y-114519858D01*
X40804684Y-114496197D01*
X40810496Y-114472993D01*
X40818554Y-114450471D01*
X40828782Y-114428847D01*
X40841079Y-114408330D01*
X40855329Y-114389117D01*
X40871393Y-114371393D01*
X40889117Y-114355329D01*
X40908330Y-114341079D01*
X40928847Y-114328782D01*
X40950471Y-114318554D01*
X40972993Y-114310496D01*
X40996197Y-114304684D01*
X41019858Y-114301174D01*
X41043750Y-114300000D01*
X41531250Y-114300000D01*
X41555142Y-114301174D01*
X41555142Y-114301174D01*
G37*
D11*
X41287500Y-115000000D03*
D10*
G36*
X41655142Y-111001174D02*
G01*
X41678803Y-111004684D01*
X41702007Y-111010496D01*
X41724529Y-111018554D01*
X41746153Y-111028782D01*
X41766670Y-111041079D01*
X41785883Y-111055329D01*
X41803607Y-111071393D01*
X41819671Y-111089117D01*
X41833921Y-111108330D01*
X41846218Y-111128847D01*
X41856446Y-111150471D01*
X41864504Y-111172993D01*
X41870316Y-111196197D01*
X41873826Y-111219858D01*
X41875000Y-111243750D01*
X41875000Y-112156250D01*
X41873826Y-112180142D01*
X41870316Y-112203803D01*
X41864504Y-112227007D01*
X41856446Y-112249529D01*
X41846218Y-112271153D01*
X41833921Y-112291670D01*
X41819671Y-112310883D01*
X41803607Y-112328607D01*
X41785883Y-112344671D01*
X41766670Y-112358921D01*
X41746153Y-112371218D01*
X41724529Y-112381446D01*
X41702007Y-112389504D01*
X41678803Y-112395316D01*
X41655142Y-112398826D01*
X41631250Y-112400000D01*
X41143750Y-112400000D01*
X41119858Y-112398826D01*
X41096197Y-112395316D01*
X41072993Y-112389504D01*
X41050471Y-112381446D01*
X41028847Y-112371218D01*
X41008330Y-112358921D01*
X40989117Y-112344671D01*
X40971393Y-112328607D01*
X40955329Y-112310883D01*
X40941079Y-112291670D01*
X40928782Y-112271153D01*
X40918554Y-112249529D01*
X40910496Y-112227007D01*
X40904684Y-112203803D01*
X40901174Y-112180142D01*
X40900000Y-112156250D01*
X40900000Y-111243750D01*
X40901174Y-111219858D01*
X40904684Y-111196197D01*
X40910496Y-111172993D01*
X40918554Y-111150471D01*
X40928782Y-111128847D01*
X40941079Y-111108330D01*
X40955329Y-111089117D01*
X40971393Y-111071393D01*
X40989117Y-111055329D01*
X41008330Y-111041079D01*
X41028847Y-111028782D01*
X41050471Y-111018554D01*
X41072993Y-111010496D01*
X41096197Y-111004684D01*
X41119858Y-111001174D01*
X41143750Y-111000000D01*
X41631250Y-111000000D01*
X41655142Y-111001174D01*
X41655142Y-111001174D01*
G37*
D11*
X41387500Y-111700000D03*
D10*
G36*
X39780142Y-111001174D02*
G01*
X39803803Y-111004684D01*
X39827007Y-111010496D01*
X39849529Y-111018554D01*
X39871153Y-111028782D01*
X39891670Y-111041079D01*
X39910883Y-111055329D01*
X39928607Y-111071393D01*
X39944671Y-111089117D01*
X39958921Y-111108330D01*
X39971218Y-111128847D01*
X39981446Y-111150471D01*
X39989504Y-111172993D01*
X39995316Y-111196197D01*
X39998826Y-111219858D01*
X40000000Y-111243750D01*
X40000000Y-112156250D01*
X39998826Y-112180142D01*
X39995316Y-112203803D01*
X39989504Y-112227007D01*
X39981446Y-112249529D01*
X39971218Y-112271153D01*
X39958921Y-112291670D01*
X39944671Y-112310883D01*
X39928607Y-112328607D01*
X39910883Y-112344671D01*
X39891670Y-112358921D01*
X39871153Y-112371218D01*
X39849529Y-112381446D01*
X39827007Y-112389504D01*
X39803803Y-112395316D01*
X39780142Y-112398826D01*
X39756250Y-112400000D01*
X39268750Y-112400000D01*
X39244858Y-112398826D01*
X39221197Y-112395316D01*
X39197993Y-112389504D01*
X39175471Y-112381446D01*
X39153847Y-112371218D01*
X39133330Y-112358921D01*
X39114117Y-112344671D01*
X39096393Y-112328607D01*
X39080329Y-112310883D01*
X39066079Y-112291670D01*
X39053782Y-112271153D01*
X39043554Y-112249529D01*
X39035496Y-112227007D01*
X39029684Y-112203803D01*
X39026174Y-112180142D01*
X39025000Y-112156250D01*
X39025000Y-111243750D01*
X39026174Y-111219858D01*
X39029684Y-111196197D01*
X39035496Y-111172993D01*
X39043554Y-111150471D01*
X39053782Y-111128847D01*
X39066079Y-111108330D01*
X39080329Y-111089117D01*
X39096393Y-111071393D01*
X39114117Y-111055329D01*
X39133330Y-111041079D01*
X39153847Y-111028782D01*
X39175471Y-111018554D01*
X39197993Y-111010496D01*
X39221197Y-111004684D01*
X39244858Y-111001174D01*
X39268750Y-111000000D01*
X39756250Y-111000000D01*
X39780142Y-111001174D01*
X39780142Y-111001174D01*
G37*
D11*
X39512500Y-111700000D03*
D10*
G36*
X39742642Y-107801174D02*
G01*
X39766303Y-107804684D01*
X39789507Y-107810496D01*
X39812029Y-107818554D01*
X39833653Y-107828782D01*
X39854170Y-107841079D01*
X39873383Y-107855329D01*
X39891107Y-107871393D01*
X39907171Y-107889117D01*
X39921421Y-107908330D01*
X39933718Y-107928847D01*
X39943946Y-107950471D01*
X39952004Y-107972993D01*
X39957816Y-107996197D01*
X39961326Y-108019858D01*
X39962500Y-108043750D01*
X39962500Y-108956250D01*
X39961326Y-108980142D01*
X39957816Y-109003803D01*
X39952004Y-109027007D01*
X39943946Y-109049529D01*
X39933718Y-109071153D01*
X39921421Y-109091670D01*
X39907171Y-109110883D01*
X39891107Y-109128607D01*
X39873383Y-109144671D01*
X39854170Y-109158921D01*
X39833653Y-109171218D01*
X39812029Y-109181446D01*
X39789507Y-109189504D01*
X39766303Y-109195316D01*
X39742642Y-109198826D01*
X39718750Y-109200000D01*
X39231250Y-109200000D01*
X39207358Y-109198826D01*
X39183697Y-109195316D01*
X39160493Y-109189504D01*
X39137971Y-109181446D01*
X39116347Y-109171218D01*
X39095830Y-109158921D01*
X39076617Y-109144671D01*
X39058893Y-109128607D01*
X39042829Y-109110883D01*
X39028579Y-109091670D01*
X39016282Y-109071153D01*
X39006054Y-109049529D01*
X38997996Y-109027007D01*
X38992184Y-109003803D01*
X38988674Y-108980142D01*
X38987500Y-108956250D01*
X38987500Y-108043750D01*
X38988674Y-108019858D01*
X38992184Y-107996197D01*
X38997996Y-107972993D01*
X39006054Y-107950471D01*
X39016282Y-107928847D01*
X39028579Y-107908330D01*
X39042829Y-107889117D01*
X39058893Y-107871393D01*
X39076617Y-107855329D01*
X39095830Y-107841079D01*
X39116347Y-107828782D01*
X39137971Y-107818554D01*
X39160493Y-107810496D01*
X39183697Y-107804684D01*
X39207358Y-107801174D01*
X39231250Y-107800000D01*
X39718750Y-107800000D01*
X39742642Y-107801174D01*
X39742642Y-107801174D01*
G37*
D11*
X39475000Y-108500000D03*
D10*
G36*
X41617642Y-107801174D02*
G01*
X41641303Y-107804684D01*
X41664507Y-107810496D01*
X41687029Y-107818554D01*
X41708653Y-107828782D01*
X41729170Y-107841079D01*
X41748383Y-107855329D01*
X41766107Y-107871393D01*
X41782171Y-107889117D01*
X41796421Y-107908330D01*
X41808718Y-107928847D01*
X41818946Y-107950471D01*
X41827004Y-107972993D01*
X41832816Y-107996197D01*
X41836326Y-108019858D01*
X41837500Y-108043750D01*
X41837500Y-108956250D01*
X41836326Y-108980142D01*
X41832816Y-109003803D01*
X41827004Y-109027007D01*
X41818946Y-109049529D01*
X41808718Y-109071153D01*
X41796421Y-109091670D01*
X41782171Y-109110883D01*
X41766107Y-109128607D01*
X41748383Y-109144671D01*
X41729170Y-109158921D01*
X41708653Y-109171218D01*
X41687029Y-109181446D01*
X41664507Y-109189504D01*
X41641303Y-109195316D01*
X41617642Y-109198826D01*
X41593750Y-109200000D01*
X41106250Y-109200000D01*
X41082358Y-109198826D01*
X41058697Y-109195316D01*
X41035493Y-109189504D01*
X41012971Y-109181446D01*
X40991347Y-109171218D01*
X40970830Y-109158921D01*
X40951617Y-109144671D01*
X40933893Y-109128607D01*
X40917829Y-109110883D01*
X40903579Y-109091670D01*
X40891282Y-109071153D01*
X40881054Y-109049529D01*
X40872996Y-109027007D01*
X40867184Y-109003803D01*
X40863674Y-108980142D01*
X40862500Y-108956250D01*
X40862500Y-108043750D01*
X40863674Y-108019858D01*
X40867184Y-107996197D01*
X40872996Y-107972993D01*
X40881054Y-107950471D01*
X40891282Y-107928847D01*
X40903579Y-107908330D01*
X40917829Y-107889117D01*
X40933893Y-107871393D01*
X40951617Y-107855329D01*
X40970830Y-107841079D01*
X40991347Y-107828782D01*
X41012971Y-107818554D01*
X41035493Y-107810496D01*
X41058697Y-107804684D01*
X41082358Y-107801174D01*
X41106250Y-107800000D01*
X41593750Y-107800000D01*
X41617642Y-107801174D01*
X41617642Y-107801174D01*
G37*
D11*
X41350000Y-108500000D03*
D10*
G36*
X39880142Y-101201174D02*
G01*
X39903803Y-101204684D01*
X39927007Y-101210496D01*
X39949529Y-101218554D01*
X39971153Y-101228782D01*
X39991670Y-101241079D01*
X40010883Y-101255329D01*
X40028607Y-101271393D01*
X40044671Y-101289117D01*
X40058921Y-101308330D01*
X40071218Y-101328847D01*
X40081446Y-101350471D01*
X40089504Y-101372993D01*
X40095316Y-101396197D01*
X40098826Y-101419858D01*
X40100000Y-101443750D01*
X40100000Y-102356250D01*
X40098826Y-102380142D01*
X40095316Y-102403803D01*
X40089504Y-102427007D01*
X40081446Y-102449529D01*
X40071218Y-102471153D01*
X40058921Y-102491670D01*
X40044671Y-102510883D01*
X40028607Y-102528607D01*
X40010883Y-102544671D01*
X39991670Y-102558921D01*
X39971153Y-102571218D01*
X39949529Y-102581446D01*
X39927007Y-102589504D01*
X39903803Y-102595316D01*
X39880142Y-102598826D01*
X39856250Y-102600000D01*
X39368750Y-102600000D01*
X39344858Y-102598826D01*
X39321197Y-102595316D01*
X39297993Y-102589504D01*
X39275471Y-102581446D01*
X39253847Y-102571218D01*
X39233330Y-102558921D01*
X39214117Y-102544671D01*
X39196393Y-102528607D01*
X39180329Y-102510883D01*
X39166079Y-102491670D01*
X39153782Y-102471153D01*
X39143554Y-102449529D01*
X39135496Y-102427007D01*
X39129684Y-102403803D01*
X39126174Y-102380142D01*
X39125000Y-102356250D01*
X39125000Y-101443750D01*
X39126174Y-101419858D01*
X39129684Y-101396197D01*
X39135496Y-101372993D01*
X39143554Y-101350471D01*
X39153782Y-101328847D01*
X39166079Y-101308330D01*
X39180329Y-101289117D01*
X39196393Y-101271393D01*
X39214117Y-101255329D01*
X39233330Y-101241079D01*
X39253847Y-101228782D01*
X39275471Y-101218554D01*
X39297993Y-101210496D01*
X39321197Y-101204684D01*
X39344858Y-101201174D01*
X39368750Y-101200000D01*
X39856250Y-101200000D01*
X39880142Y-101201174D01*
X39880142Y-101201174D01*
G37*
D11*
X39612500Y-101900000D03*
D10*
G36*
X41755142Y-101201174D02*
G01*
X41778803Y-101204684D01*
X41802007Y-101210496D01*
X41824529Y-101218554D01*
X41846153Y-101228782D01*
X41866670Y-101241079D01*
X41885883Y-101255329D01*
X41903607Y-101271393D01*
X41919671Y-101289117D01*
X41933921Y-101308330D01*
X41946218Y-101328847D01*
X41956446Y-101350471D01*
X41964504Y-101372993D01*
X41970316Y-101396197D01*
X41973826Y-101419858D01*
X41975000Y-101443750D01*
X41975000Y-102356250D01*
X41973826Y-102380142D01*
X41970316Y-102403803D01*
X41964504Y-102427007D01*
X41956446Y-102449529D01*
X41946218Y-102471153D01*
X41933921Y-102491670D01*
X41919671Y-102510883D01*
X41903607Y-102528607D01*
X41885883Y-102544671D01*
X41866670Y-102558921D01*
X41846153Y-102571218D01*
X41824529Y-102581446D01*
X41802007Y-102589504D01*
X41778803Y-102595316D01*
X41755142Y-102598826D01*
X41731250Y-102600000D01*
X41243750Y-102600000D01*
X41219858Y-102598826D01*
X41196197Y-102595316D01*
X41172993Y-102589504D01*
X41150471Y-102581446D01*
X41128847Y-102571218D01*
X41108330Y-102558921D01*
X41089117Y-102544671D01*
X41071393Y-102528607D01*
X41055329Y-102510883D01*
X41041079Y-102491670D01*
X41028782Y-102471153D01*
X41018554Y-102449529D01*
X41010496Y-102427007D01*
X41004684Y-102403803D01*
X41001174Y-102380142D01*
X41000000Y-102356250D01*
X41000000Y-101443750D01*
X41001174Y-101419858D01*
X41004684Y-101396197D01*
X41010496Y-101372993D01*
X41018554Y-101350471D01*
X41028782Y-101328847D01*
X41041079Y-101308330D01*
X41055329Y-101289117D01*
X41071393Y-101271393D01*
X41089117Y-101255329D01*
X41108330Y-101241079D01*
X41128847Y-101228782D01*
X41150471Y-101218554D01*
X41172993Y-101210496D01*
X41196197Y-101204684D01*
X41219858Y-101201174D01*
X41243750Y-101200000D01*
X41731250Y-101200000D01*
X41755142Y-101201174D01*
X41755142Y-101201174D01*
G37*
D11*
X41487500Y-101900000D03*
D10*
G36*
X41655142Y-104501174D02*
G01*
X41678803Y-104504684D01*
X41702007Y-104510496D01*
X41724529Y-104518554D01*
X41746153Y-104528782D01*
X41766670Y-104541079D01*
X41785883Y-104555329D01*
X41803607Y-104571393D01*
X41819671Y-104589117D01*
X41833921Y-104608330D01*
X41846218Y-104628847D01*
X41856446Y-104650471D01*
X41864504Y-104672993D01*
X41870316Y-104696197D01*
X41873826Y-104719858D01*
X41875000Y-104743750D01*
X41875000Y-105656250D01*
X41873826Y-105680142D01*
X41870316Y-105703803D01*
X41864504Y-105727007D01*
X41856446Y-105749529D01*
X41846218Y-105771153D01*
X41833921Y-105791670D01*
X41819671Y-105810883D01*
X41803607Y-105828607D01*
X41785883Y-105844671D01*
X41766670Y-105858921D01*
X41746153Y-105871218D01*
X41724529Y-105881446D01*
X41702007Y-105889504D01*
X41678803Y-105895316D01*
X41655142Y-105898826D01*
X41631250Y-105900000D01*
X41143750Y-105900000D01*
X41119858Y-105898826D01*
X41096197Y-105895316D01*
X41072993Y-105889504D01*
X41050471Y-105881446D01*
X41028847Y-105871218D01*
X41008330Y-105858921D01*
X40989117Y-105844671D01*
X40971393Y-105828607D01*
X40955329Y-105810883D01*
X40941079Y-105791670D01*
X40928782Y-105771153D01*
X40918554Y-105749529D01*
X40910496Y-105727007D01*
X40904684Y-105703803D01*
X40901174Y-105680142D01*
X40900000Y-105656250D01*
X40900000Y-104743750D01*
X40901174Y-104719858D01*
X40904684Y-104696197D01*
X40910496Y-104672993D01*
X40918554Y-104650471D01*
X40928782Y-104628847D01*
X40941079Y-104608330D01*
X40955329Y-104589117D01*
X40971393Y-104571393D01*
X40989117Y-104555329D01*
X41008330Y-104541079D01*
X41028847Y-104528782D01*
X41050471Y-104518554D01*
X41072993Y-104510496D01*
X41096197Y-104504684D01*
X41119858Y-104501174D01*
X41143750Y-104500000D01*
X41631250Y-104500000D01*
X41655142Y-104501174D01*
X41655142Y-104501174D01*
G37*
D11*
X41387500Y-105200000D03*
D10*
G36*
X39780142Y-104501174D02*
G01*
X39803803Y-104504684D01*
X39827007Y-104510496D01*
X39849529Y-104518554D01*
X39871153Y-104528782D01*
X39891670Y-104541079D01*
X39910883Y-104555329D01*
X39928607Y-104571393D01*
X39944671Y-104589117D01*
X39958921Y-104608330D01*
X39971218Y-104628847D01*
X39981446Y-104650471D01*
X39989504Y-104672993D01*
X39995316Y-104696197D01*
X39998826Y-104719858D01*
X40000000Y-104743750D01*
X40000000Y-105656250D01*
X39998826Y-105680142D01*
X39995316Y-105703803D01*
X39989504Y-105727007D01*
X39981446Y-105749529D01*
X39971218Y-105771153D01*
X39958921Y-105791670D01*
X39944671Y-105810883D01*
X39928607Y-105828607D01*
X39910883Y-105844671D01*
X39891670Y-105858921D01*
X39871153Y-105871218D01*
X39849529Y-105881446D01*
X39827007Y-105889504D01*
X39803803Y-105895316D01*
X39780142Y-105898826D01*
X39756250Y-105900000D01*
X39268750Y-105900000D01*
X39244858Y-105898826D01*
X39221197Y-105895316D01*
X39197993Y-105889504D01*
X39175471Y-105881446D01*
X39153847Y-105871218D01*
X39133330Y-105858921D01*
X39114117Y-105844671D01*
X39096393Y-105828607D01*
X39080329Y-105810883D01*
X39066079Y-105791670D01*
X39053782Y-105771153D01*
X39043554Y-105749529D01*
X39035496Y-105727007D01*
X39029684Y-105703803D01*
X39026174Y-105680142D01*
X39025000Y-105656250D01*
X39025000Y-104743750D01*
X39026174Y-104719858D01*
X39029684Y-104696197D01*
X39035496Y-104672993D01*
X39043554Y-104650471D01*
X39053782Y-104628847D01*
X39066079Y-104608330D01*
X39080329Y-104589117D01*
X39096393Y-104571393D01*
X39114117Y-104555329D01*
X39133330Y-104541079D01*
X39153847Y-104528782D01*
X39175471Y-104518554D01*
X39197993Y-104510496D01*
X39221197Y-104504684D01*
X39244858Y-104501174D01*
X39268750Y-104500000D01*
X39756250Y-104500000D01*
X39780142Y-104501174D01*
X39780142Y-104501174D01*
G37*
D11*
X39512500Y-105200000D03*
D10*
G36*
X46105142Y-117601174D02*
G01*
X46128803Y-117604684D01*
X46152007Y-117610496D01*
X46174529Y-117618554D01*
X46196153Y-117628782D01*
X46216670Y-117641079D01*
X46235883Y-117655329D01*
X46253607Y-117671393D01*
X46269671Y-117689117D01*
X46283921Y-117708330D01*
X46296218Y-117728847D01*
X46306446Y-117750471D01*
X46314504Y-117772993D01*
X46320316Y-117796197D01*
X46323826Y-117819858D01*
X46325000Y-117843750D01*
X46325000Y-118756250D01*
X46323826Y-118780142D01*
X46320316Y-118803803D01*
X46314504Y-118827007D01*
X46306446Y-118849529D01*
X46296218Y-118871153D01*
X46283921Y-118891670D01*
X46269671Y-118910883D01*
X46253607Y-118928607D01*
X46235883Y-118944671D01*
X46216670Y-118958921D01*
X46196153Y-118971218D01*
X46174529Y-118981446D01*
X46152007Y-118989504D01*
X46128803Y-118995316D01*
X46105142Y-118998826D01*
X46081250Y-119000000D01*
X45593750Y-119000000D01*
X45569858Y-118998826D01*
X45546197Y-118995316D01*
X45522993Y-118989504D01*
X45500471Y-118981446D01*
X45478847Y-118971218D01*
X45458330Y-118958921D01*
X45439117Y-118944671D01*
X45421393Y-118928607D01*
X45405329Y-118910883D01*
X45391079Y-118891670D01*
X45378782Y-118871153D01*
X45368554Y-118849529D01*
X45360496Y-118827007D01*
X45354684Y-118803803D01*
X45351174Y-118780142D01*
X45350000Y-118756250D01*
X45350000Y-117843750D01*
X45351174Y-117819858D01*
X45354684Y-117796197D01*
X45360496Y-117772993D01*
X45368554Y-117750471D01*
X45378782Y-117728847D01*
X45391079Y-117708330D01*
X45405329Y-117689117D01*
X45421393Y-117671393D01*
X45439117Y-117655329D01*
X45458330Y-117641079D01*
X45478847Y-117628782D01*
X45500471Y-117618554D01*
X45522993Y-117610496D01*
X45546197Y-117604684D01*
X45569858Y-117601174D01*
X45593750Y-117600000D01*
X46081250Y-117600000D01*
X46105142Y-117601174D01*
X46105142Y-117601174D01*
G37*
D11*
X45837500Y-118300000D03*
D10*
G36*
X44230142Y-117601174D02*
G01*
X44253803Y-117604684D01*
X44277007Y-117610496D01*
X44299529Y-117618554D01*
X44321153Y-117628782D01*
X44341670Y-117641079D01*
X44360883Y-117655329D01*
X44378607Y-117671393D01*
X44394671Y-117689117D01*
X44408921Y-117708330D01*
X44421218Y-117728847D01*
X44431446Y-117750471D01*
X44439504Y-117772993D01*
X44445316Y-117796197D01*
X44448826Y-117819858D01*
X44450000Y-117843750D01*
X44450000Y-118756250D01*
X44448826Y-118780142D01*
X44445316Y-118803803D01*
X44439504Y-118827007D01*
X44431446Y-118849529D01*
X44421218Y-118871153D01*
X44408921Y-118891670D01*
X44394671Y-118910883D01*
X44378607Y-118928607D01*
X44360883Y-118944671D01*
X44341670Y-118958921D01*
X44321153Y-118971218D01*
X44299529Y-118981446D01*
X44277007Y-118989504D01*
X44253803Y-118995316D01*
X44230142Y-118998826D01*
X44206250Y-119000000D01*
X43718750Y-119000000D01*
X43694858Y-118998826D01*
X43671197Y-118995316D01*
X43647993Y-118989504D01*
X43625471Y-118981446D01*
X43603847Y-118971218D01*
X43583330Y-118958921D01*
X43564117Y-118944671D01*
X43546393Y-118928607D01*
X43530329Y-118910883D01*
X43516079Y-118891670D01*
X43503782Y-118871153D01*
X43493554Y-118849529D01*
X43485496Y-118827007D01*
X43479684Y-118803803D01*
X43476174Y-118780142D01*
X43475000Y-118756250D01*
X43475000Y-117843750D01*
X43476174Y-117819858D01*
X43479684Y-117796197D01*
X43485496Y-117772993D01*
X43493554Y-117750471D01*
X43503782Y-117728847D01*
X43516079Y-117708330D01*
X43530329Y-117689117D01*
X43546393Y-117671393D01*
X43564117Y-117655329D01*
X43583330Y-117641079D01*
X43603847Y-117628782D01*
X43625471Y-117618554D01*
X43647993Y-117610496D01*
X43671197Y-117604684D01*
X43694858Y-117601174D01*
X43718750Y-117600000D01*
X44206250Y-117600000D01*
X44230142Y-117601174D01*
X44230142Y-117601174D01*
G37*
D11*
X43962500Y-118300000D03*
D10*
G36*
X44280142Y-120851174D02*
G01*
X44303803Y-120854684D01*
X44327007Y-120860496D01*
X44349529Y-120868554D01*
X44371153Y-120878782D01*
X44391670Y-120891079D01*
X44410883Y-120905329D01*
X44428607Y-120921393D01*
X44444671Y-120939117D01*
X44458921Y-120958330D01*
X44471218Y-120978847D01*
X44481446Y-121000471D01*
X44489504Y-121022993D01*
X44495316Y-121046197D01*
X44498826Y-121069858D01*
X44500000Y-121093750D01*
X44500000Y-122006250D01*
X44498826Y-122030142D01*
X44495316Y-122053803D01*
X44489504Y-122077007D01*
X44481446Y-122099529D01*
X44471218Y-122121153D01*
X44458921Y-122141670D01*
X44444671Y-122160883D01*
X44428607Y-122178607D01*
X44410883Y-122194671D01*
X44391670Y-122208921D01*
X44371153Y-122221218D01*
X44349529Y-122231446D01*
X44327007Y-122239504D01*
X44303803Y-122245316D01*
X44280142Y-122248826D01*
X44256250Y-122250000D01*
X43768750Y-122250000D01*
X43744858Y-122248826D01*
X43721197Y-122245316D01*
X43697993Y-122239504D01*
X43675471Y-122231446D01*
X43653847Y-122221218D01*
X43633330Y-122208921D01*
X43614117Y-122194671D01*
X43596393Y-122178607D01*
X43580329Y-122160883D01*
X43566079Y-122141670D01*
X43553782Y-122121153D01*
X43543554Y-122099529D01*
X43535496Y-122077007D01*
X43529684Y-122053803D01*
X43526174Y-122030142D01*
X43525000Y-122006250D01*
X43525000Y-121093750D01*
X43526174Y-121069858D01*
X43529684Y-121046197D01*
X43535496Y-121022993D01*
X43543554Y-121000471D01*
X43553782Y-120978847D01*
X43566079Y-120958330D01*
X43580329Y-120939117D01*
X43596393Y-120921393D01*
X43614117Y-120905329D01*
X43633330Y-120891079D01*
X43653847Y-120878782D01*
X43675471Y-120868554D01*
X43697993Y-120860496D01*
X43721197Y-120854684D01*
X43744858Y-120851174D01*
X43768750Y-120850000D01*
X44256250Y-120850000D01*
X44280142Y-120851174D01*
X44280142Y-120851174D01*
G37*
D11*
X44012500Y-121550000D03*
D10*
G36*
X46155142Y-120851174D02*
G01*
X46178803Y-120854684D01*
X46202007Y-120860496D01*
X46224529Y-120868554D01*
X46246153Y-120878782D01*
X46266670Y-120891079D01*
X46285883Y-120905329D01*
X46303607Y-120921393D01*
X46319671Y-120939117D01*
X46333921Y-120958330D01*
X46346218Y-120978847D01*
X46356446Y-121000471D01*
X46364504Y-121022993D01*
X46370316Y-121046197D01*
X46373826Y-121069858D01*
X46375000Y-121093750D01*
X46375000Y-122006250D01*
X46373826Y-122030142D01*
X46370316Y-122053803D01*
X46364504Y-122077007D01*
X46356446Y-122099529D01*
X46346218Y-122121153D01*
X46333921Y-122141670D01*
X46319671Y-122160883D01*
X46303607Y-122178607D01*
X46285883Y-122194671D01*
X46266670Y-122208921D01*
X46246153Y-122221218D01*
X46224529Y-122231446D01*
X46202007Y-122239504D01*
X46178803Y-122245316D01*
X46155142Y-122248826D01*
X46131250Y-122250000D01*
X45643750Y-122250000D01*
X45619858Y-122248826D01*
X45596197Y-122245316D01*
X45572993Y-122239504D01*
X45550471Y-122231446D01*
X45528847Y-122221218D01*
X45508330Y-122208921D01*
X45489117Y-122194671D01*
X45471393Y-122178607D01*
X45455329Y-122160883D01*
X45441079Y-122141670D01*
X45428782Y-122121153D01*
X45418554Y-122099529D01*
X45410496Y-122077007D01*
X45404684Y-122053803D01*
X45401174Y-122030142D01*
X45400000Y-122006250D01*
X45400000Y-121093750D01*
X45401174Y-121069858D01*
X45404684Y-121046197D01*
X45410496Y-121022993D01*
X45418554Y-121000471D01*
X45428782Y-120978847D01*
X45441079Y-120958330D01*
X45455329Y-120939117D01*
X45471393Y-120921393D01*
X45489117Y-120905329D01*
X45508330Y-120891079D01*
X45528847Y-120878782D01*
X45550471Y-120868554D01*
X45572993Y-120860496D01*
X45596197Y-120854684D01*
X45619858Y-120851174D01*
X45643750Y-120850000D01*
X46131250Y-120850000D01*
X46155142Y-120851174D01*
X46155142Y-120851174D01*
G37*
D11*
X45887500Y-121550000D03*
D10*
G36*
X46105142Y-114351174D02*
G01*
X46128803Y-114354684D01*
X46152007Y-114360496D01*
X46174529Y-114368554D01*
X46196153Y-114378782D01*
X46216670Y-114391079D01*
X46235883Y-114405329D01*
X46253607Y-114421393D01*
X46269671Y-114439117D01*
X46283921Y-114458330D01*
X46296218Y-114478847D01*
X46306446Y-114500471D01*
X46314504Y-114522993D01*
X46320316Y-114546197D01*
X46323826Y-114569858D01*
X46325000Y-114593750D01*
X46325000Y-115506250D01*
X46323826Y-115530142D01*
X46320316Y-115553803D01*
X46314504Y-115577007D01*
X46306446Y-115599529D01*
X46296218Y-115621153D01*
X46283921Y-115641670D01*
X46269671Y-115660883D01*
X46253607Y-115678607D01*
X46235883Y-115694671D01*
X46216670Y-115708921D01*
X46196153Y-115721218D01*
X46174529Y-115731446D01*
X46152007Y-115739504D01*
X46128803Y-115745316D01*
X46105142Y-115748826D01*
X46081250Y-115750000D01*
X45593750Y-115750000D01*
X45569858Y-115748826D01*
X45546197Y-115745316D01*
X45522993Y-115739504D01*
X45500471Y-115731446D01*
X45478847Y-115721218D01*
X45458330Y-115708921D01*
X45439117Y-115694671D01*
X45421393Y-115678607D01*
X45405329Y-115660883D01*
X45391079Y-115641670D01*
X45378782Y-115621153D01*
X45368554Y-115599529D01*
X45360496Y-115577007D01*
X45354684Y-115553803D01*
X45351174Y-115530142D01*
X45350000Y-115506250D01*
X45350000Y-114593750D01*
X45351174Y-114569858D01*
X45354684Y-114546197D01*
X45360496Y-114522993D01*
X45368554Y-114500471D01*
X45378782Y-114478847D01*
X45391079Y-114458330D01*
X45405329Y-114439117D01*
X45421393Y-114421393D01*
X45439117Y-114405329D01*
X45458330Y-114391079D01*
X45478847Y-114378782D01*
X45500471Y-114368554D01*
X45522993Y-114360496D01*
X45546197Y-114354684D01*
X45569858Y-114351174D01*
X45593750Y-114350000D01*
X46081250Y-114350000D01*
X46105142Y-114351174D01*
X46105142Y-114351174D01*
G37*
D11*
X45837500Y-115050000D03*
D10*
G36*
X44230142Y-114351174D02*
G01*
X44253803Y-114354684D01*
X44277007Y-114360496D01*
X44299529Y-114368554D01*
X44321153Y-114378782D01*
X44341670Y-114391079D01*
X44360883Y-114405329D01*
X44378607Y-114421393D01*
X44394671Y-114439117D01*
X44408921Y-114458330D01*
X44421218Y-114478847D01*
X44431446Y-114500471D01*
X44439504Y-114522993D01*
X44445316Y-114546197D01*
X44448826Y-114569858D01*
X44450000Y-114593750D01*
X44450000Y-115506250D01*
X44448826Y-115530142D01*
X44445316Y-115553803D01*
X44439504Y-115577007D01*
X44431446Y-115599529D01*
X44421218Y-115621153D01*
X44408921Y-115641670D01*
X44394671Y-115660883D01*
X44378607Y-115678607D01*
X44360883Y-115694671D01*
X44341670Y-115708921D01*
X44321153Y-115721218D01*
X44299529Y-115731446D01*
X44277007Y-115739504D01*
X44253803Y-115745316D01*
X44230142Y-115748826D01*
X44206250Y-115750000D01*
X43718750Y-115750000D01*
X43694858Y-115748826D01*
X43671197Y-115745316D01*
X43647993Y-115739504D01*
X43625471Y-115731446D01*
X43603847Y-115721218D01*
X43583330Y-115708921D01*
X43564117Y-115694671D01*
X43546393Y-115678607D01*
X43530329Y-115660883D01*
X43516079Y-115641670D01*
X43503782Y-115621153D01*
X43493554Y-115599529D01*
X43485496Y-115577007D01*
X43479684Y-115553803D01*
X43476174Y-115530142D01*
X43475000Y-115506250D01*
X43475000Y-114593750D01*
X43476174Y-114569858D01*
X43479684Y-114546197D01*
X43485496Y-114522993D01*
X43493554Y-114500471D01*
X43503782Y-114478847D01*
X43516079Y-114458330D01*
X43530329Y-114439117D01*
X43546393Y-114421393D01*
X43564117Y-114405329D01*
X43583330Y-114391079D01*
X43603847Y-114378782D01*
X43625471Y-114368554D01*
X43647993Y-114360496D01*
X43671197Y-114354684D01*
X43694858Y-114351174D01*
X43718750Y-114350000D01*
X44206250Y-114350000D01*
X44230142Y-114351174D01*
X44230142Y-114351174D01*
G37*
D11*
X43962500Y-115050000D03*
D10*
G36*
X44380142Y-111101174D02*
G01*
X44403803Y-111104684D01*
X44427007Y-111110496D01*
X44449529Y-111118554D01*
X44471153Y-111128782D01*
X44491670Y-111141079D01*
X44510883Y-111155329D01*
X44528607Y-111171393D01*
X44544671Y-111189117D01*
X44558921Y-111208330D01*
X44571218Y-111228847D01*
X44581446Y-111250471D01*
X44589504Y-111272993D01*
X44595316Y-111296197D01*
X44598826Y-111319858D01*
X44600000Y-111343750D01*
X44600000Y-112256250D01*
X44598826Y-112280142D01*
X44595316Y-112303803D01*
X44589504Y-112327007D01*
X44581446Y-112349529D01*
X44571218Y-112371153D01*
X44558921Y-112391670D01*
X44544671Y-112410883D01*
X44528607Y-112428607D01*
X44510883Y-112444671D01*
X44491670Y-112458921D01*
X44471153Y-112471218D01*
X44449529Y-112481446D01*
X44427007Y-112489504D01*
X44403803Y-112495316D01*
X44380142Y-112498826D01*
X44356250Y-112500000D01*
X43868750Y-112500000D01*
X43844858Y-112498826D01*
X43821197Y-112495316D01*
X43797993Y-112489504D01*
X43775471Y-112481446D01*
X43753847Y-112471218D01*
X43733330Y-112458921D01*
X43714117Y-112444671D01*
X43696393Y-112428607D01*
X43680329Y-112410883D01*
X43666079Y-112391670D01*
X43653782Y-112371153D01*
X43643554Y-112349529D01*
X43635496Y-112327007D01*
X43629684Y-112303803D01*
X43626174Y-112280142D01*
X43625000Y-112256250D01*
X43625000Y-111343750D01*
X43626174Y-111319858D01*
X43629684Y-111296197D01*
X43635496Y-111272993D01*
X43643554Y-111250471D01*
X43653782Y-111228847D01*
X43666079Y-111208330D01*
X43680329Y-111189117D01*
X43696393Y-111171393D01*
X43714117Y-111155329D01*
X43733330Y-111141079D01*
X43753847Y-111128782D01*
X43775471Y-111118554D01*
X43797993Y-111110496D01*
X43821197Y-111104684D01*
X43844858Y-111101174D01*
X43868750Y-111100000D01*
X44356250Y-111100000D01*
X44380142Y-111101174D01*
X44380142Y-111101174D01*
G37*
D11*
X44112500Y-111800000D03*
D10*
G36*
X46255142Y-111101174D02*
G01*
X46278803Y-111104684D01*
X46302007Y-111110496D01*
X46324529Y-111118554D01*
X46346153Y-111128782D01*
X46366670Y-111141079D01*
X46385883Y-111155329D01*
X46403607Y-111171393D01*
X46419671Y-111189117D01*
X46433921Y-111208330D01*
X46446218Y-111228847D01*
X46456446Y-111250471D01*
X46464504Y-111272993D01*
X46470316Y-111296197D01*
X46473826Y-111319858D01*
X46475000Y-111343750D01*
X46475000Y-112256250D01*
X46473826Y-112280142D01*
X46470316Y-112303803D01*
X46464504Y-112327007D01*
X46456446Y-112349529D01*
X46446218Y-112371153D01*
X46433921Y-112391670D01*
X46419671Y-112410883D01*
X46403607Y-112428607D01*
X46385883Y-112444671D01*
X46366670Y-112458921D01*
X46346153Y-112471218D01*
X46324529Y-112481446D01*
X46302007Y-112489504D01*
X46278803Y-112495316D01*
X46255142Y-112498826D01*
X46231250Y-112500000D01*
X45743750Y-112500000D01*
X45719858Y-112498826D01*
X45696197Y-112495316D01*
X45672993Y-112489504D01*
X45650471Y-112481446D01*
X45628847Y-112471218D01*
X45608330Y-112458921D01*
X45589117Y-112444671D01*
X45571393Y-112428607D01*
X45555329Y-112410883D01*
X45541079Y-112391670D01*
X45528782Y-112371153D01*
X45518554Y-112349529D01*
X45510496Y-112327007D01*
X45504684Y-112303803D01*
X45501174Y-112280142D01*
X45500000Y-112256250D01*
X45500000Y-111343750D01*
X45501174Y-111319858D01*
X45504684Y-111296197D01*
X45510496Y-111272993D01*
X45518554Y-111250471D01*
X45528782Y-111228847D01*
X45541079Y-111208330D01*
X45555329Y-111189117D01*
X45571393Y-111171393D01*
X45589117Y-111155329D01*
X45608330Y-111141079D01*
X45628847Y-111128782D01*
X45650471Y-111118554D01*
X45672993Y-111110496D01*
X45696197Y-111104684D01*
X45719858Y-111101174D01*
X45743750Y-111100000D01*
X46231250Y-111100000D01*
X46255142Y-111101174D01*
X46255142Y-111101174D01*
G37*
D11*
X45987500Y-111800000D03*
D10*
G36*
X46305142Y-107851174D02*
G01*
X46328803Y-107854684D01*
X46352007Y-107860496D01*
X46374529Y-107868554D01*
X46396153Y-107878782D01*
X46416670Y-107891079D01*
X46435883Y-107905329D01*
X46453607Y-107921393D01*
X46469671Y-107939117D01*
X46483921Y-107958330D01*
X46496218Y-107978847D01*
X46506446Y-108000471D01*
X46514504Y-108022993D01*
X46520316Y-108046197D01*
X46523826Y-108069858D01*
X46525000Y-108093750D01*
X46525000Y-109006250D01*
X46523826Y-109030142D01*
X46520316Y-109053803D01*
X46514504Y-109077007D01*
X46506446Y-109099529D01*
X46496218Y-109121153D01*
X46483921Y-109141670D01*
X46469671Y-109160883D01*
X46453607Y-109178607D01*
X46435883Y-109194671D01*
X46416670Y-109208921D01*
X46396153Y-109221218D01*
X46374529Y-109231446D01*
X46352007Y-109239504D01*
X46328803Y-109245316D01*
X46305142Y-109248826D01*
X46281250Y-109250000D01*
X45793750Y-109250000D01*
X45769858Y-109248826D01*
X45746197Y-109245316D01*
X45722993Y-109239504D01*
X45700471Y-109231446D01*
X45678847Y-109221218D01*
X45658330Y-109208921D01*
X45639117Y-109194671D01*
X45621393Y-109178607D01*
X45605329Y-109160883D01*
X45591079Y-109141670D01*
X45578782Y-109121153D01*
X45568554Y-109099529D01*
X45560496Y-109077007D01*
X45554684Y-109053803D01*
X45551174Y-109030142D01*
X45550000Y-109006250D01*
X45550000Y-108093750D01*
X45551174Y-108069858D01*
X45554684Y-108046197D01*
X45560496Y-108022993D01*
X45568554Y-108000471D01*
X45578782Y-107978847D01*
X45591079Y-107958330D01*
X45605329Y-107939117D01*
X45621393Y-107921393D01*
X45639117Y-107905329D01*
X45658330Y-107891079D01*
X45678847Y-107878782D01*
X45700471Y-107868554D01*
X45722993Y-107860496D01*
X45746197Y-107854684D01*
X45769858Y-107851174D01*
X45793750Y-107850000D01*
X46281250Y-107850000D01*
X46305142Y-107851174D01*
X46305142Y-107851174D01*
G37*
D11*
X46037500Y-108550000D03*
D10*
G36*
X44430142Y-107851174D02*
G01*
X44453803Y-107854684D01*
X44477007Y-107860496D01*
X44499529Y-107868554D01*
X44521153Y-107878782D01*
X44541670Y-107891079D01*
X44560883Y-107905329D01*
X44578607Y-107921393D01*
X44594671Y-107939117D01*
X44608921Y-107958330D01*
X44621218Y-107978847D01*
X44631446Y-108000471D01*
X44639504Y-108022993D01*
X44645316Y-108046197D01*
X44648826Y-108069858D01*
X44650000Y-108093750D01*
X44650000Y-109006250D01*
X44648826Y-109030142D01*
X44645316Y-109053803D01*
X44639504Y-109077007D01*
X44631446Y-109099529D01*
X44621218Y-109121153D01*
X44608921Y-109141670D01*
X44594671Y-109160883D01*
X44578607Y-109178607D01*
X44560883Y-109194671D01*
X44541670Y-109208921D01*
X44521153Y-109221218D01*
X44499529Y-109231446D01*
X44477007Y-109239504D01*
X44453803Y-109245316D01*
X44430142Y-109248826D01*
X44406250Y-109250000D01*
X43918750Y-109250000D01*
X43894858Y-109248826D01*
X43871197Y-109245316D01*
X43847993Y-109239504D01*
X43825471Y-109231446D01*
X43803847Y-109221218D01*
X43783330Y-109208921D01*
X43764117Y-109194671D01*
X43746393Y-109178607D01*
X43730329Y-109160883D01*
X43716079Y-109141670D01*
X43703782Y-109121153D01*
X43693554Y-109099529D01*
X43685496Y-109077007D01*
X43679684Y-109053803D01*
X43676174Y-109030142D01*
X43675000Y-109006250D01*
X43675000Y-108093750D01*
X43676174Y-108069858D01*
X43679684Y-108046197D01*
X43685496Y-108022993D01*
X43693554Y-108000471D01*
X43703782Y-107978847D01*
X43716079Y-107958330D01*
X43730329Y-107939117D01*
X43746393Y-107921393D01*
X43764117Y-107905329D01*
X43783330Y-107891079D01*
X43803847Y-107878782D01*
X43825471Y-107868554D01*
X43847993Y-107860496D01*
X43871197Y-107854684D01*
X43894858Y-107851174D01*
X43918750Y-107850000D01*
X44406250Y-107850000D01*
X44430142Y-107851174D01*
X44430142Y-107851174D01*
G37*
D11*
X44162500Y-108550000D03*
D10*
G36*
X46455142Y-101251174D02*
G01*
X46478803Y-101254684D01*
X46502007Y-101260496D01*
X46524529Y-101268554D01*
X46546153Y-101278782D01*
X46566670Y-101291079D01*
X46585883Y-101305329D01*
X46603607Y-101321393D01*
X46619671Y-101339117D01*
X46633921Y-101358330D01*
X46646218Y-101378847D01*
X46656446Y-101400471D01*
X46664504Y-101422993D01*
X46670316Y-101446197D01*
X46673826Y-101469858D01*
X46675000Y-101493750D01*
X46675000Y-102406250D01*
X46673826Y-102430142D01*
X46670316Y-102453803D01*
X46664504Y-102477007D01*
X46656446Y-102499529D01*
X46646218Y-102521153D01*
X46633921Y-102541670D01*
X46619671Y-102560883D01*
X46603607Y-102578607D01*
X46585883Y-102594671D01*
X46566670Y-102608921D01*
X46546153Y-102621218D01*
X46524529Y-102631446D01*
X46502007Y-102639504D01*
X46478803Y-102645316D01*
X46455142Y-102648826D01*
X46431250Y-102650000D01*
X45943750Y-102650000D01*
X45919858Y-102648826D01*
X45896197Y-102645316D01*
X45872993Y-102639504D01*
X45850471Y-102631446D01*
X45828847Y-102621218D01*
X45808330Y-102608921D01*
X45789117Y-102594671D01*
X45771393Y-102578607D01*
X45755329Y-102560883D01*
X45741079Y-102541670D01*
X45728782Y-102521153D01*
X45718554Y-102499529D01*
X45710496Y-102477007D01*
X45704684Y-102453803D01*
X45701174Y-102430142D01*
X45700000Y-102406250D01*
X45700000Y-101493750D01*
X45701174Y-101469858D01*
X45704684Y-101446197D01*
X45710496Y-101422993D01*
X45718554Y-101400471D01*
X45728782Y-101378847D01*
X45741079Y-101358330D01*
X45755329Y-101339117D01*
X45771393Y-101321393D01*
X45789117Y-101305329D01*
X45808330Y-101291079D01*
X45828847Y-101278782D01*
X45850471Y-101268554D01*
X45872993Y-101260496D01*
X45896197Y-101254684D01*
X45919858Y-101251174D01*
X45943750Y-101250000D01*
X46431250Y-101250000D01*
X46455142Y-101251174D01*
X46455142Y-101251174D01*
G37*
D11*
X46187500Y-101950000D03*
D10*
G36*
X44580142Y-101251174D02*
G01*
X44603803Y-101254684D01*
X44627007Y-101260496D01*
X44649529Y-101268554D01*
X44671153Y-101278782D01*
X44691670Y-101291079D01*
X44710883Y-101305329D01*
X44728607Y-101321393D01*
X44744671Y-101339117D01*
X44758921Y-101358330D01*
X44771218Y-101378847D01*
X44781446Y-101400471D01*
X44789504Y-101422993D01*
X44795316Y-101446197D01*
X44798826Y-101469858D01*
X44800000Y-101493750D01*
X44800000Y-102406250D01*
X44798826Y-102430142D01*
X44795316Y-102453803D01*
X44789504Y-102477007D01*
X44781446Y-102499529D01*
X44771218Y-102521153D01*
X44758921Y-102541670D01*
X44744671Y-102560883D01*
X44728607Y-102578607D01*
X44710883Y-102594671D01*
X44691670Y-102608921D01*
X44671153Y-102621218D01*
X44649529Y-102631446D01*
X44627007Y-102639504D01*
X44603803Y-102645316D01*
X44580142Y-102648826D01*
X44556250Y-102650000D01*
X44068750Y-102650000D01*
X44044858Y-102648826D01*
X44021197Y-102645316D01*
X43997993Y-102639504D01*
X43975471Y-102631446D01*
X43953847Y-102621218D01*
X43933330Y-102608921D01*
X43914117Y-102594671D01*
X43896393Y-102578607D01*
X43880329Y-102560883D01*
X43866079Y-102541670D01*
X43853782Y-102521153D01*
X43843554Y-102499529D01*
X43835496Y-102477007D01*
X43829684Y-102453803D01*
X43826174Y-102430142D01*
X43825000Y-102406250D01*
X43825000Y-101493750D01*
X43826174Y-101469858D01*
X43829684Y-101446197D01*
X43835496Y-101422993D01*
X43843554Y-101400471D01*
X43853782Y-101378847D01*
X43866079Y-101358330D01*
X43880329Y-101339117D01*
X43896393Y-101321393D01*
X43914117Y-101305329D01*
X43933330Y-101291079D01*
X43953847Y-101278782D01*
X43975471Y-101268554D01*
X43997993Y-101260496D01*
X44021197Y-101254684D01*
X44044858Y-101251174D01*
X44068750Y-101250000D01*
X44556250Y-101250000D01*
X44580142Y-101251174D01*
X44580142Y-101251174D01*
G37*
D11*
X44312500Y-101950000D03*
D10*
G36*
X44480142Y-104551174D02*
G01*
X44503803Y-104554684D01*
X44527007Y-104560496D01*
X44549529Y-104568554D01*
X44571153Y-104578782D01*
X44591670Y-104591079D01*
X44610883Y-104605329D01*
X44628607Y-104621393D01*
X44644671Y-104639117D01*
X44658921Y-104658330D01*
X44671218Y-104678847D01*
X44681446Y-104700471D01*
X44689504Y-104722993D01*
X44695316Y-104746197D01*
X44698826Y-104769858D01*
X44700000Y-104793750D01*
X44700000Y-105706250D01*
X44698826Y-105730142D01*
X44695316Y-105753803D01*
X44689504Y-105777007D01*
X44681446Y-105799529D01*
X44671218Y-105821153D01*
X44658921Y-105841670D01*
X44644671Y-105860883D01*
X44628607Y-105878607D01*
X44610883Y-105894671D01*
X44591670Y-105908921D01*
X44571153Y-105921218D01*
X44549529Y-105931446D01*
X44527007Y-105939504D01*
X44503803Y-105945316D01*
X44480142Y-105948826D01*
X44456250Y-105950000D01*
X43968750Y-105950000D01*
X43944858Y-105948826D01*
X43921197Y-105945316D01*
X43897993Y-105939504D01*
X43875471Y-105931446D01*
X43853847Y-105921218D01*
X43833330Y-105908921D01*
X43814117Y-105894671D01*
X43796393Y-105878607D01*
X43780329Y-105860883D01*
X43766079Y-105841670D01*
X43753782Y-105821153D01*
X43743554Y-105799529D01*
X43735496Y-105777007D01*
X43729684Y-105753803D01*
X43726174Y-105730142D01*
X43725000Y-105706250D01*
X43725000Y-104793750D01*
X43726174Y-104769858D01*
X43729684Y-104746197D01*
X43735496Y-104722993D01*
X43743554Y-104700471D01*
X43753782Y-104678847D01*
X43766079Y-104658330D01*
X43780329Y-104639117D01*
X43796393Y-104621393D01*
X43814117Y-104605329D01*
X43833330Y-104591079D01*
X43853847Y-104578782D01*
X43875471Y-104568554D01*
X43897993Y-104560496D01*
X43921197Y-104554684D01*
X43944858Y-104551174D01*
X43968750Y-104550000D01*
X44456250Y-104550000D01*
X44480142Y-104551174D01*
X44480142Y-104551174D01*
G37*
D11*
X44212500Y-105250000D03*
D10*
G36*
X46355142Y-104551174D02*
G01*
X46378803Y-104554684D01*
X46402007Y-104560496D01*
X46424529Y-104568554D01*
X46446153Y-104578782D01*
X46466670Y-104591079D01*
X46485883Y-104605329D01*
X46503607Y-104621393D01*
X46519671Y-104639117D01*
X46533921Y-104658330D01*
X46546218Y-104678847D01*
X46556446Y-104700471D01*
X46564504Y-104722993D01*
X46570316Y-104746197D01*
X46573826Y-104769858D01*
X46575000Y-104793750D01*
X46575000Y-105706250D01*
X46573826Y-105730142D01*
X46570316Y-105753803D01*
X46564504Y-105777007D01*
X46556446Y-105799529D01*
X46546218Y-105821153D01*
X46533921Y-105841670D01*
X46519671Y-105860883D01*
X46503607Y-105878607D01*
X46485883Y-105894671D01*
X46466670Y-105908921D01*
X46446153Y-105921218D01*
X46424529Y-105931446D01*
X46402007Y-105939504D01*
X46378803Y-105945316D01*
X46355142Y-105948826D01*
X46331250Y-105950000D01*
X45843750Y-105950000D01*
X45819858Y-105948826D01*
X45796197Y-105945316D01*
X45772993Y-105939504D01*
X45750471Y-105931446D01*
X45728847Y-105921218D01*
X45708330Y-105908921D01*
X45689117Y-105894671D01*
X45671393Y-105878607D01*
X45655329Y-105860883D01*
X45641079Y-105841670D01*
X45628782Y-105821153D01*
X45618554Y-105799529D01*
X45610496Y-105777007D01*
X45604684Y-105753803D01*
X45601174Y-105730142D01*
X45600000Y-105706250D01*
X45600000Y-104793750D01*
X45601174Y-104769858D01*
X45604684Y-104746197D01*
X45610496Y-104722993D01*
X45618554Y-104700471D01*
X45628782Y-104678847D01*
X45641079Y-104658330D01*
X45655329Y-104639117D01*
X45671393Y-104621393D01*
X45689117Y-104605329D01*
X45708330Y-104591079D01*
X45728847Y-104578782D01*
X45750471Y-104568554D01*
X45772993Y-104560496D01*
X45796197Y-104554684D01*
X45819858Y-104551174D01*
X45843750Y-104550000D01*
X46331250Y-104550000D01*
X46355142Y-104551174D01*
X46355142Y-104551174D01*
G37*
D11*
X46087500Y-105250000D03*
D10*
G36*
X52130142Y-131401174D02*
G01*
X52153803Y-131404684D01*
X52177007Y-131410496D01*
X52199529Y-131418554D01*
X52221153Y-131428782D01*
X52241670Y-131441079D01*
X52260883Y-131455329D01*
X52278607Y-131471393D01*
X52294671Y-131489117D01*
X52308921Y-131508330D01*
X52321218Y-131528847D01*
X52331446Y-131550471D01*
X52339504Y-131572993D01*
X52345316Y-131596197D01*
X52348826Y-131619858D01*
X52350000Y-131643750D01*
X52350000Y-132556250D01*
X52348826Y-132580142D01*
X52345316Y-132603803D01*
X52339504Y-132627007D01*
X52331446Y-132649529D01*
X52321218Y-132671153D01*
X52308921Y-132691670D01*
X52294671Y-132710883D01*
X52278607Y-132728607D01*
X52260883Y-132744671D01*
X52241670Y-132758921D01*
X52221153Y-132771218D01*
X52199529Y-132781446D01*
X52177007Y-132789504D01*
X52153803Y-132795316D01*
X52130142Y-132798826D01*
X52106250Y-132800000D01*
X51618750Y-132800000D01*
X51594858Y-132798826D01*
X51571197Y-132795316D01*
X51547993Y-132789504D01*
X51525471Y-132781446D01*
X51503847Y-132771218D01*
X51483330Y-132758921D01*
X51464117Y-132744671D01*
X51446393Y-132728607D01*
X51430329Y-132710883D01*
X51416079Y-132691670D01*
X51403782Y-132671153D01*
X51393554Y-132649529D01*
X51385496Y-132627007D01*
X51379684Y-132603803D01*
X51376174Y-132580142D01*
X51375000Y-132556250D01*
X51375000Y-131643750D01*
X51376174Y-131619858D01*
X51379684Y-131596197D01*
X51385496Y-131572993D01*
X51393554Y-131550471D01*
X51403782Y-131528847D01*
X51416079Y-131508330D01*
X51430329Y-131489117D01*
X51446393Y-131471393D01*
X51464117Y-131455329D01*
X51483330Y-131441079D01*
X51503847Y-131428782D01*
X51525471Y-131418554D01*
X51547993Y-131410496D01*
X51571197Y-131404684D01*
X51594858Y-131401174D01*
X51618750Y-131400000D01*
X52106250Y-131400000D01*
X52130142Y-131401174D01*
X52130142Y-131401174D01*
G37*
D11*
X51862500Y-132100000D03*
D10*
G36*
X54005142Y-131401174D02*
G01*
X54028803Y-131404684D01*
X54052007Y-131410496D01*
X54074529Y-131418554D01*
X54096153Y-131428782D01*
X54116670Y-131441079D01*
X54135883Y-131455329D01*
X54153607Y-131471393D01*
X54169671Y-131489117D01*
X54183921Y-131508330D01*
X54196218Y-131528847D01*
X54206446Y-131550471D01*
X54214504Y-131572993D01*
X54220316Y-131596197D01*
X54223826Y-131619858D01*
X54225000Y-131643750D01*
X54225000Y-132556250D01*
X54223826Y-132580142D01*
X54220316Y-132603803D01*
X54214504Y-132627007D01*
X54206446Y-132649529D01*
X54196218Y-132671153D01*
X54183921Y-132691670D01*
X54169671Y-132710883D01*
X54153607Y-132728607D01*
X54135883Y-132744671D01*
X54116670Y-132758921D01*
X54096153Y-132771218D01*
X54074529Y-132781446D01*
X54052007Y-132789504D01*
X54028803Y-132795316D01*
X54005142Y-132798826D01*
X53981250Y-132800000D01*
X53493750Y-132800000D01*
X53469858Y-132798826D01*
X53446197Y-132795316D01*
X53422993Y-132789504D01*
X53400471Y-132781446D01*
X53378847Y-132771218D01*
X53358330Y-132758921D01*
X53339117Y-132744671D01*
X53321393Y-132728607D01*
X53305329Y-132710883D01*
X53291079Y-132691670D01*
X53278782Y-132671153D01*
X53268554Y-132649529D01*
X53260496Y-132627007D01*
X53254684Y-132603803D01*
X53251174Y-132580142D01*
X53250000Y-132556250D01*
X53250000Y-131643750D01*
X53251174Y-131619858D01*
X53254684Y-131596197D01*
X53260496Y-131572993D01*
X53268554Y-131550471D01*
X53278782Y-131528847D01*
X53291079Y-131508330D01*
X53305329Y-131489117D01*
X53321393Y-131471393D01*
X53339117Y-131455329D01*
X53358330Y-131441079D01*
X53378847Y-131428782D01*
X53400471Y-131418554D01*
X53422993Y-131410496D01*
X53446197Y-131404684D01*
X53469858Y-131401174D01*
X53493750Y-131400000D01*
X53981250Y-131400000D01*
X54005142Y-131401174D01*
X54005142Y-131401174D01*
G37*
D11*
X53737500Y-132100000D03*
D10*
G36*
X100030142Y-40901174D02*
G01*
X100053803Y-40904684D01*
X100077007Y-40910496D01*
X100099529Y-40918554D01*
X100121153Y-40928782D01*
X100141670Y-40941079D01*
X100160883Y-40955329D01*
X100178607Y-40971393D01*
X100194671Y-40989117D01*
X100208921Y-41008330D01*
X100221218Y-41028847D01*
X100231446Y-41050471D01*
X100239504Y-41072993D01*
X100245316Y-41096197D01*
X100248826Y-41119858D01*
X100250000Y-41143750D01*
X100250000Y-42056250D01*
X100248826Y-42080142D01*
X100245316Y-42103803D01*
X100239504Y-42127007D01*
X100231446Y-42149529D01*
X100221218Y-42171153D01*
X100208921Y-42191670D01*
X100194671Y-42210883D01*
X100178607Y-42228607D01*
X100160883Y-42244671D01*
X100141670Y-42258921D01*
X100121153Y-42271218D01*
X100099529Y-42281446D01*
X100077007Y-42289504D01*
X100053803Y-42295316D01*
X100030142Y-42298826D01*
X100006250Y-42300000D01*
X99518750Y-42300000D01*
X99494858Y-42298826D01*
X99471197Y-42295316D01*
X99447993Y-42289504D01*
X99425471Y-42281446D01*
X99403847Y-42271218D01*
X99383330Y-42258921D01*
X99364117Y-42244671D01*
X99346393Y-42228607D01*
X99330329Y-42210883D01*
X99316079Y-42191670D01*
X99303782Y-42171153D01*
X99293554Y-42149529D01*
X99285496Y-42127007D01*
X99279684Y-42103803D01*
X99276174Y-42080142D01*
X99275000Y-42056250D01*
X99275000Y-41143750D01*
X99276174Y-41119858D01*
X99279684Y-41096197D01*
X99285496Y-41072993D01*
X99293554Y-41050471D01*
X99303782Y-41028847D01*
X99316079Y-41008330D01*
X99330329Y-40989117D01*
X99346393Y-40971393D01*
X99364117Y-40955329D01*
X99383330Y-40941079D01*
X99403847Y-40928782D01*
X99425471Y-40918554D01*
X99447993Y-40910496D01*
X99471197Y-40904684D01*
X99494858Y-40901174D01*
X99518750Y-40900000D01*
X100006250Y-40900000D01*
X100030142Y-40901174D01*
X100030142Y-40901174D01*
G37*
D11*
X99762500Y-41600000D03*
D10*
G36*
X101905142Y-40901174D02*
G01*
X101928803Y-40904684D01*
X101952007Y-40910496D01*
X101974529Y-40918554D01*
X101996153Y-40928782D01*
X102016670Y-40941079D01*
X102035883Y-40955329D01*
X102053607Y-40971393D01*
X102069671Y-40989117D01*
X102083921Y-41008330D01*
X102096218Y-41028847D01*
X102106446Y-41050471D01*
X102114504Y-41072993D01*
X102120316Y-41096197D01*
X102123826Y-41119858D01*
X102125000Y-41143750D01*
X102125000Y-42056250D01*
X102123826Y-42080142D01*
X102120316Y-42103803D01*
X102114504Y-42127007D01*
X102106446Y-42149529D01*
X102096218Y-42171153D01*
X102083921Y-42191670D01*
X102069671Y-42210883D01*
X102053607Y-42228607D01*
X102035883Y-42244671D01*
X102016670Y-42258921D01*
X101996153Y-42271218D01*
X101974529Y-42281446D01*
X101952007Y-42289504D01*
X101928803Y-42295316D01*
X101905142Y-42298826D01*
X101881250Y-42300000D01*
X101393750Y-42300000D01*
X101369858Y-42298826D01*
X101346197Y-42295316D01*
X101322993Y-42289504D01*
X101300471Y-42281446D01*
X101278847Y-42271218D01*
X101258330Y-42258921D01*
X101239117Y-42244671D01*
X101221393Y-42228607D01*
X101205329Y-42210883D01*
X101191079Y-42191670D01*
X101178782Y-42171153D01*
X101168554Y-42149529D01*
X101160496Y-42127007D01*
X101154684Y-42103803D01*
X101151174Y-42080142D01*
X101150000Y-42056250D01*
X101150000Y-41143750D01*
X101151174Y-41119858D01*
X101154684Y-41096197D01*
X101160496Y-41072993D01*
X101168554Y-41050471D01*
X101178782Y-41028847D01*
X101191079Y-41008330D01*
X101205329Y-40989117D01*
X101221393Y-40971393D01*
X101239117Y-40955329D01*
X101258330Y-40941079D01*
X101278847Y-40928782D01*
X101300471Y-40918554D01*
X101322993Y-40910496D01*
X101346197Y-40904684D01*
X101369858Y-40901174D01*
X101393750Y-40900000D01*
X101881250Y-40900000D01*
X101905142Y-40901174D01*
X101905142Y-40901174D01*
G37*
D11*
X101637500Y-41600000D03*
D10*
G36*
X109780142Y-43451174D02*
G01*
X109803803Y-43454684D01*
X109827007Y-43460496D01*
X109849529Y-43468554D01*
X109871153Y-43478782D01*
X109891670Y-43491079D01*
X109910883Y-43505329D01*
X109928607Y-43521393D01*
X109944671Y-43539117D01*
X109958921Y-43558330D01*
X109971218Y-43578847D01*
X109981446Y-43600471D01*
X109989504Y-43622993D01*
X109995316Y-43646197D01*
X109998826Y-43669858D01*
X110000000Y-43693750D01*
X110000000Y-44181250D01*
X109998826Y-44205142D01*
X109995316Y-44228803D01*
X109989504Y-44252007D01*
X109981446Y-44274529D01*
X109971218Y-44296153D01*
X109958921Y-44316670D01*
X109944671Y-44335883D01*
X109928607Y-44353607D01*
X109910883Y-44369671D01*
X109891670Y-44383921D01*
X109871153Y-44396218D01*
X109849529Y-44406446D01*
X109827007Y-44414504D01*
X109803803Y-44420316D01*
X109780142Y-44423826D01*
X109756250Y-44425000D01*
X108843750Y-44425000D01*
X108819858Y-44423826D01*
X108796197Y-44420316D01*
X108772993Y-44414504D01*
X108750471Y-44406446D01*
X108728847Y-44396218D01*
X108708330Y-44383921D01*
X108689117Y-44369671D01*
X108671393Y-44353607D01*
X108655329Y-44335883D01*
X108641079Y-44316670D01*
X108628782Y-44296153D01*
X108618554Y-44274529D01*
X108610496Y-44252007D01*
X108604684Y-44228803D01*
X108601174Y-44205142D01*
X108600000Y-44181250D01*
X108600000Y-43693750D01*
X108601174Y-43669858D01*
X108604684Y-43646197D01*
X108610496Y-43622993D01*
X108618554Y-43600471D01*
X108628782Y-43578847D01*
X108641079Y-43558330D01*
X108655329Y-43539117D01*
X108671393Y-43521393D01*
X108689117Y-43505329D01*
X108708330Y-43491079D01*
X108728847Y-43478782D01*
X108750471Y-43468554D01*
X108772993Y-43460496D01*
X108796197Y-43454684D01*
X108819858Y-43451174D01*
X108843750Y-43450000D01*
X109756250Y-43450000D01*
X109780142Y-43451174D01*
X109780142Y-43451174D01*
G37*
D11*
X109300000Y-43937500D03*
D10*
G36*
X109780142Y-41576174D02*
G01*
X109803803Y-41579684D01*
X109827007Y-41585496D01*
X109849529Y-41593554D01*
X109871153Y-41603782D01*
X109891670Y-41616079D01*
X109910883Y-41630329D01*
X109928607Y-41646393D01*
X109944671Y-41664117D01*
X109958921Y-41683330D01*
X109971218Y-41703847D01*
X109981446Y-41725471D01*
X109989504Y-41747993D01*
X109995316Y-41771197D01*
X109998826Y-41794858D01*
X110000000Y-41818750D01*
X110000000Y-42306250D01*
X109998826Y-42330142D01*
X109995316Y-42353803D01*
X109989504Y-42377007D01*
X109981446Y-42399529D01*
X109971218Y-42421153D01*
X109958921Y-42441670D01*
X109944671Y-42460883D01*
X109928607Y-42478607D01*
X109910883Y-42494671D01*
X109891670Y-42508921D01*
X109871153Y-42521218D01*
X109849529Y-42531446D01*
X109827007Y-42539504D01*
X109803803Y-42545316D01*
X109780142Y-42548826D01*
X109756250Y-42550000D01*
X108843750Y-42550000D01*
X108819858Y-42548826D01*
X108796197Y-42545316D01*
X108772993Y-42539504D01*
X108750471Y-42531446D01*
X108728847Y-42521218D01*
X108708330Y-42508921D01*
X108689117Y-42494671D01*
X108671393Y-42478607D01*
X108655329Y-42460883D01*
X108641079Y-42441670D01*
X108628782Y-42421153D01*
X108618554Y-42399529D01*
X108610496Y-42377007D01*
X108604684Y-42353803D01*
X108601174Y-42330142D01*
X108600000Y-42306250D01*
X108600000Y-41818750D01*
X108601174Y-41794858D01*
X108604684Y-41771197D01*
X108610496Y-41747993D01*
X108618554Y-41725471D01*
X108628782Y-41703847D01*
X108641079Y-41683330D01*
X108655329Y-41664117D01*
X108671393Y-41646393D01*
X108689117Y-41630329D01*
X108708330Y-41616079D01*
X108728847Y-41603782D01*
X108750471Y-41593554D01*
X108772993Y-41585496D01*
X108796197Y-41579684D01*
X108819858Y-41576174D01*
X108843750Y-41575000D01*
X109756250Y-41575000D01*
X109780142Y-41576174D01*
X109780142Y-41576174D01*
G37*
D11*
X109300000Y-42062500D03*
D10*
G36*
X93030142Y-62226174D02*
G01*
X93053803Y-62229684D01*
X93077007Y-62235496D01*
X93099529Y-62243554D01*
X93121153Y-62253782D01*
X93141670Y-62266079D01*
X93160883Y-62280329D01*
X93178607Y-62296393D01*
X93194671Y-62314117D01*
X93208921Y-62333330D01*
X93221218Y-62353847D01*
X93231446Y-62375471D01*
X93239504Y-62397993D01*
X93245316Y-62421197D01*
X93248826Y-62444858D01*
X93250000Y-62468750D01*
X93250000Y-62956250D01*
X93248826Y-62980142D01*
X93245316Y-63003803D01*
X93239504Y-63027007D01*
X93231446Y-63049529D01*
X93221218Y-63071153D01*
X93208921Y-63091670D01*
X93194671Y-63110883D01*
X93178607Y-63128607D01*
X93160883Y-63144671D01*
X93141670Y-63158921D01*
X93121153Y-63171218D01*
X93099529Y-63181446D01*
X93077007Y-63189504D01*
X93053803Y-63195316D01*
X93030142Y-63198826D01*
X93006250Y-63200000D01*
X92093750Y-63200000D01*
X92069858Y-63198826D01*
X92046197Y-63195316D01*
X92022993Y-63189504D01*
X92000471Y-63181446D01*
X91978847Y-63171218D01*
X91958330Y-63158921D01*
X91939117Y-63144671D01*
X91921393Y-63128607D01*
X91905329Y-63110883D01*
X91891079Y-63091670D01*
X91878782Y-63071153D01*
X91868554Y-63049529D01*
X91860496Y-63027007D01*
X91854684Y-63003803D01*
X91851174Y-62980142D01*
X91850000Y-62956250D01*
X91850000Y-62468750D01*
X91851174Y-62444858D01*
X91854684Y-62421197D01*
X91860496Y-62397993D01*
X91868554Y-62375471D01*
X91878782Y-62353847D01*
X91891079Y-62333330D01*
X91905329Y-62314117D01*
X91921393Y-62296393D01*
X91939117Y-62280329D01*
X91958330Y-62266079D01*
X91978847Y-62253782D01*
X92000471Y-62243554D01*
X92022993Y-62235496D01*
X92046197Y-62229684D01*
X92069858Y-62226174D01*
X92093750Y-62225000D01*
X93006250Y-62225000D01*
X93030142Y-62226174D01*
X93030142Y-62226174D01*
G37*
D11*
X92550000Y-62712500D03*
D10*
G36*
X93030142Y-64101174D02*
G01*
X93053803Y-64104684D01*
X93077007Y-64110496D01*
X93099529Y-64118554D01*
X93121153Y-64128782D01*
X93141670Y-64141079D01*
X93160883Y-64155329D01*
X93178607Y-64171393D01*
X93194671Y-64189117D01*
X93208921Y-64208330D01*
X93221218Y-64228847D01*
X93231446Y-64250471D01*
X93239504Y-64272993D01*
X93245316Y-64296197D01*
X93248826Y-64319858D01*
X93250000Y-64343750D01*
X93250000Y-64831250D01*
X93248826Y-64855142D01*
X93245316Y-64878803D01*
X93239504Y-64902007D01*
X93231446Y-64924529D01*
X93221218Y-64946153D01*
X93208921Y-64966670D01*
X93194671Y-64985883D01*
X93178607Y-65003607D01*
X93160883Y-65019671D01*
X93141670Y-65033921D01*
X93121153Y-65046218D01*
X93099529Y-65056446D01*
X93077007Y-65064504D01*
X93053803Y-65070316D01*
X93030142Y-65073826D01*
X93006250Y-65075000D01*
X92093750Y-65075000D01*
X92069858Y-65073826D01*
X92046197Y-65070316D01*
X92022993Y-65064504D01*
X92000471Y-65056446D01*
X91978847Y-65046218D01*
X91958330Y-65033921D01*
X91939117Y-65019671D01*
X91921393Y-65003607D01*
X91905329Y-64985883D01*
X91891079Y-64966670D01*
X91878782Y-64946153D01*
X91868554Y-64924529D01*
X91860496Y-64902007D01*
X91854684Y-64878803D01*
X91851174Y-64855142D01*
X91850000Y-64831250D01*
X91850000Y-64343750D01*
X91851174Y-64319858D01*
X91854684Y-64296197D01*
X91860496Y-64272993D01*
X91868554Y-64250471D01*
X91878782Y-64228847D01*
X91891079Y-64208330D01*
X91905329Y-64189117D01*
X91921393Y-64171393D01*
X91939117Y-64155329D01*
X91958330Y-64141079D01*
X91978847Y-64128782D01*
X92000471Y-64118554D01*
X92022993Y-64110496D01*
X92046197Y-64104684D01*
X92069858Y-64101174D01*
X92093750Y-64100000D01*
X93006250Y-64100000D01*
X93030142Y-64101174D01*
X93030142Y-64101174D01*
G37*
D11*
X92550000Y-64587500D03*
D10*
G36*
X116430142Y-31776174D02*
G01*
X116453803Y-31779684D01*
X116477007Y-31785496D01*
X116499529Y-31793554D01*
X116521153Y-31803782D01*
X116541670Y-31816079D01*
X116560883Y-31830329D01*
X116578607Y-31846393D01*
X116594671Y-31864117D01*
X116608921Y-31883330D01*
X116621218Y-31903847D01*
X116631446Y-31925471D01*
X116639504Y-31947993D01*
X116645316Y-31971197D01*
X116648826Y-31994858D01*
X116650000Y-32018750D01*
X116650000Y-32506250D01*
X116648826Y-32530142D01*
X116645316Y-32553803D01*
X116639504Y-32577007D01*
X116631446Y-32599529D01*
X116621218Y-32621153D01*
X116608921Y-32641670D01*
X116594671Y-32660883D01*
X116578607Y-32678607D01*
X116560883Y-32694671D01*
X116541670Y-32708921D01*
X116521153Y-32721218D01*
X116499529Y-32731446D01*
X116477007Y-32739504D01*
X116453803Y-32745316D01*
X116430142Y-32748826D01*
X116406250Y-32750000D01*
X115493750Y-32750000D01*
X115469858Y-32748826D01*
X115446197Y-32745316D01*
X115422993Y-32739504D01*
X115400471Y-32731446D01*
X115378847Y-32721218D01*
X115358330Y-32708921D01*
X115339117Y-32694671D01*
X115321393Y-32678607D01*
X115305329Y-32660883D01*
X115291079Y-32641670D01*
X115278782Y-32621153D01*
X115268554Y-32599529D01*
X115260496Y-32577007D01*
X115254684Y-32553803D01*
X115251174Y-32530142D01*
X115250000Y-32506250D01*
X115250000Y-32018750D01*
X115251174Y-31994858D01*
X115254684Y-31971197D01*
X115260496Y-31947993D01*
X115268554Y-31925471D01*
X115278782Y-31903847D01*
X115291079Y-31883330D01*
X115305329Y-31864117D01*
X115321393Y-31846393D01*
X115339117Y-31830329D01*
X115358330Y-31816079D01*
X115378847Y-31803782D01*
X115400471Y-31793554D01*
X115422993Y-31785496D01*
X115446197Y-31779684D01*
X115469858Y-31776174D01*
X115493750Y-31775000D01*
X116406250Y-31775000D01*
X116430142Y-31776174D01*
X116430142Y-31776174D01*
G37*
D11*
X115950000Y-32262500D03*
D10*
G36*
X116430142Y-33651174D02*
G01*
X116453803Y-33654684D01*
X116477007Y-33660496D01*
X116499529Y-33668554D01*
X116521153Y-33678782D01*
X116541670Y-33691079D01*
X116560883Y-33705329D01*
X116578607Y-33721393D01*
X116594671Y-33739117D01*
X116608921Y-33758330D01*
X116621218Y-33778847D01*
X116631446Y-33800471D01*
X116639504Y-33822993D01*
X116645316Y-33846197D01*
X116648826Y-33869858D01*
X116650000Y-33893750D01*
X116650000Y-34381250D01*
X116648826Y-34405142D01*
X116645316Y-34428803D01*
X116639504Y-34452007D01*
X116631446Y-34474529D01*
X116621218Y-34496153D01*
X116608921Y-34516670D01*
X116594671Y-34535883D01*
X116578607Y-34553607D01*
X116560883Y-34569671D01*
X116541670Y-34583921D01*
X116521153Y-34596218D01*
X116499529Y-34606446D01*
X116477007Y-34614504D01*
X116453803Y-34620316D01*
X116430142Y-34623826D01*
X116406250Y-34625000D01*
X115493750Y-34625000D01*
X115469858Y-34623826D01*
X115446197Y-34620316D01*
X115422993Y-34614504D01*
X115400471Y-34606446D01*
X115378847Y-34596218D01*
X115358330Y-34583921D01*
X115339117Y-34569671D01*
X115321393Y-34553607D01*
X115305329Y-34535883D01*
X115291079Y-34516670D01*
X115278782Y-34496153D01*
X115268554Y-34474529D01*
X115260496Y-34452007D01*
X115254684Y-34428803D01*
X115251174Y-34405142D01*
X115250000Y-34381250D01*
X115250000Y-33893750D01*
X115251174Y-33869858D01*
X115254684Y-33846197D01*
X115260496Y-33822993D01*
X115268554Y-33800471D01*
X115278782Y-33778847D01*
X115291079Y-33758330D01*
X115305329Y-33739117D01*
X115321393Y-33721393D01*
X115339117Y-33705329D01*
X115358330Y-33691079D01*
X115378847Y-33678782D01*
X115400471Y-33668554D01*
X115422993Y-33660496D01*
X115446197Y-33654684D01*
X115469858Y-33651174D01*
X115493750Y-33650000D01*
X116406250Y-33650000D01*
X116430142Y-33651174D01*
X116430142Y-33651174D01*
G37*
D11*
X115950000Y-34137500D03*
D10*
G36*
X99880142Y-54601174D02*
G01*
X99903803Y-54604684D01*
X99927007Y-54610496D01*
X99949529Y-54618554D01*
X99971153Y-54628782D01*
X99991670Y-54641079D01*
X100010883Y-54655329D01*
X100028607Y-54671393D01*
X100044671Y-54689117D01*
X100058921Y-54708330D01*
X100071218Y-54728847D01*
X100081446Y-54750471D01*
X100089504Y-54772993D01*
X100095316Y-54796197D01*
X100098826Y-54819858D01*
X100100000Y-54843750D01*
X100100000Y-55331250D01*
X100098826Y-55355142D01*
X100095316Y-55378803D01*
X100089504Y-55402007D01*
X100081446Y-55424529D01*
X100071218Y-55446153D01*
X100058921Y-55466670D01*
X100044671Y-55485883D01*
X100028607Y-55503607D01*
X100010883Y-55519671D01*
X99991670Y-55533921D01*
X99971153Y-55546218D01*
X99949529Y-55556446D01*
X99927007Y-55564504D01*
X99903803Y-55570316D01*
X99880142Y-55573826D01*
X99856250Y-55575000D01*
X98943750Y-55575000D01*
X98919858Y-55573826D01*
X98896197Y-55570316D01*
X98872993Y-55564504D01*
X98850471Y-55556446D01*
X98828847Y-55546218D01*
X98808330Y-55533921D01*
X98789117Y-55519671D01*
X98771393Y-55503607D01*
X98755329Y-55485883D01*
X98741079Y-55466670D01*
X98728782Y-55446153D01*
X98718554Y-55424529D01*
X98710496Y-55402007D01*
X98704684Y-55378803D01*
X98701174Y-55355142D01*
X98700000Y-55331250D01*
X98700000Y-54843750D01*
X98701174Y-54819858D01*
X98704684Y-54796197D01*
X98710496Y-54772993D01*
X98718554Y-54750471D01*
X98728782Y-54728847D01*
X98741079Y-54708330D01*
X98755329Y-54689117D01*
X98771393Y-54671393D01*
X98789117Y-54655329D01*
X98808330Y-54641079D01*
X98828847Y-54628782D01*
X98850471Y-54618554D01*
X98872993Y-54610496D01*
X98896197Y-54604684D01*
X98919858Y-54601174D01*
X98943750Y-54600000D01*
X99856250Y-54600000D01*
X99880142Y-54601174D01*
X99880142Y-54601174D01*
G37*
D11*
X99400000Y-55087500D03*
D10*
G36*
X99880142Y-52726174D02*
G01*
X99903803Y-52729684D01*
X99927007Y-52735496D01*
X99949529Y-52743554D01*
X99971153Y-52753782D01*
X99991670Y-52766079D01*
X100010883Y-52780329D01*
X100028607Y-52796393D01*
X100044671Y-52814117D01*
X100058921Y-52833330D01*
X100071218Y-52853847D01*
X100081446Y-52875471D01*
X100089504Y-52897993D01*
X100095316Y-52921197D01*
X100098826Y-52944858D01*
X100100000Y-52968750D01*
X100100000Y-53456250D01*
X100098826Y-53480142D01*
X100095316Y-53503803D01*
X100089504Y-53527007D01*
X100081446Y-53549529D01*
X100071218Y-53571153D01*
X100058921Y-53591670D01*
X100044671Y-53610883D01*
X100028607Y-53628607D01*
X100010883Y-53644671D01*
X99991670Y-53658921D01*
X99971153Y-53671218D01*
X99949529Y-53681446D01*
X99927007Y-53689504D01*
X99903803Y-53695316D01*
X99880142Y-53698826D01*
X99856250Y-53700000D01*
X98943750Y-53700000D01*
X98919858Y-53698826D01*
X98896197Y-53695316D01*
X98872993Y-53689504D01*
X98850471Y-53681446D01*
X98828847Y-53671218D01*
X98808330Y-53658921D01*
X98789117Y-53644671D01*
X98771393Y-53628607D01*
X98755329Y-53610883D01*
X98741079Y-53591670D01*
X98728782Y-53571153D01*
X98718554Y-53549529D01*
X98710496Y-53527007D01*
X98704684Y-53503803D01*
X98701174Y-53480142D01*
X98700000Y-53456250D01*
X98700000Y-52968750D01*
X98701174Y-52944858D01*
X98704684Y-52921197D01*
X98710496Y-52897993D01*
X98718554Y-52875471D01*
X98728782Y-52853847D01*
X98741079Y-52833330D01*
X98755329Y-52814117D01*
X98771393Y-52796393D01*
X98789117Y-52780329D01*
X98808330Y-52766079D01*
X98828847Y-52753782D01*
X98850471Y-52743554D01*
X98872993Y-52735496D01*
X98896197Y-52729684D01*
X98919858Y-52726174D01*
X98943750Y-52725000D01*
X99856250Y-52725000D01*
X99880142Y-52726174D01*
X99880142Y-52726174D01*
G37*
D11*
X99400000Y-53212500D03*
D10*
G36*
X99130142Y-31676174D02*
G01*
X99153803Y-31679684D01*
X99177007Y-31685496D01*
X99199529Y-31693554D01*
X99221153Y-31703782D01*
X99241670Y-31716079D01*
X99260883Y-31730329D01*
X99278607Y-31746393D01*
X99294671Y-31764117D01*
X99308921Y-31783330D01*
X99321218Y-31803847D01*
X99331446Y-31825471D01*
X99339504Y-31847993D01*
X99345316Y-31871197D01*
X99348826Y-31894858D01*
X99350000Y-31918750D01*
X99350000Y-32406250D01*
X99348826Y-32430142D01*
X99345316Y-32453803D01*
X99339504Y-32477007D01*
X99331446Y-32499529D01*
X99321218Y-32521153D01*
X99308921Y-32541670D01*
X99294671Y-32560883D01*
X99278607Y-32578607D01*
X99260883Y-32594671D01*
X99241670Y-32608921D01*
X99221153Y-32621218D01*
X99199529Y-32631446D01*
X99177007Y-32639504D01*
X99153803Y-32645316D01*
X99130142Y-32648826D01*
X99106250Y-32650000D01*
X98193750Y-32650000D01*
X98169858Y-32648826D01*
X98146197Y-32645316D01*
X98122993Y-32639504D01*
X98100471Y-32631446D01*
X98078847Y-32621218D01*
X98058330Y-32608921D01*
X98039117Y-32594671D01*
X98021393Y-32578607D01*
X98005329Y-32560883D01*
X97991079Y-32541670D01*
X97978782Y-32521153D01*
X97968554Y-32499529D01*
X97960496Y-32477007D01*
X97954684Y-32453803D01*
X97951174Y-32430142D01*
X97950000Y-32406250D01*
X97950000Y-31918750D01*
X97951174Y-31894858D01*
X97954684Y-31871197D01*
X97960496Y-31847993D01*
X97968554Y-31825471D01*
X97978782Y-31803847D01*
X97991079Y-31783330D01*
X98005329Y-31764117D01*
X98021393Y-31746393D01*
X98039117Y-31730329D01*
X98058330Y-31716079D01*
X98078847Y-31703782D01*
X98100471Y-31693554D01*
X98122993Y-31685496D01*
X98146197Y-31679684D01*
X98169858Y-31676174D01*
X98193750Y-31675000D01*
X99106250Y-31675000D01*
X99130142Y-31676174D01*
X99130142Y-31676174D01*
G37*
D11*
X98650000Y-32162500D03*
D10*
G36*
X99130142Y-33551174D02*
G01*
X99153803Y-33554684D01*
X99177007Y-33560496D01*
X99199529Y-33568554D01*
X99221153Y-33578782D01*
X99241670Y-33591079D01*
X99260883Y-33605329D01*
X99278607Y-33621393D01*
X99294671Y-33639117D01*
X99308921Y-33658330D01*
X99321218Y-33678847D01*
X99331446Y-33700471D01*
X99339504Y-33722993D01*
X99345316Y-33746197D01*
X99348826Y-33769858D01*
X99350000Y-33793750D01*
X99350000Y-34281250D01*
X99348826Y-34305142D01*
X99345316Y-34328803D01*
X99339504Y-34352007D01*
X99331446Y-34374529D01*
X99321218Y-34396153D01*
X99308921Y-34416670D01*
X99294671Y-34435883D01*
X99278607Y-34453607D01*
X99260883Y-34469671D01*
X99241670Y-34483921D01*
X99221153Y-34496218D01*
X99199529Y-34506446D01*
X99177007Y-34514504D01*
X99153803Y-34520316D01*
X99130142Y-34523826D01*
X99106250Y-34525000D01*
X98193750Y-34525000D01*
X98169858Y-34523826D01*
X98146197Y-34520316D01*
X98122993Y-34514504D01*
X98100471Y-34506446D01*
X98078847Y-34496218D01*
X98058330Y-34483921D01*
X98039117Y-34469671D01*
X98021393Y-34453607D01*
X98005329Y-34435883D01*
X97991079Y-34416670D01*
X97978782Y-34396153D01*
X97968554Y-34374529D01*
X97960496Y-34352007D01*
X97954684Y-34328803D01*
X97951174Y-34305142D01*
X97950000Y-34281250D01*
X97950000Y-33793750D01*
X97951174Y-33769858D01*
X97954684Y-33746197D01*
X97960496Y-33722993D01*
X97968554Y-33700471D01*
X97978782Y-33678847D01*
X97991079Y-33658330D01*
X98005329Y-33639117D01*
X98021393Y-33621393D01*
X98039117Y-33605329D01*
X98058330Y-33591079D01*
X98078847Y-33578782D01*
X98100471Y-33568554D01*
X98122993Y-33560496D01*
X98146197Y-33554684D01*
X98169858Y-33551174D01*
X98193750Y-33550000D01*
X99106250Y-33550000D01*
X99130142Y-33551174D01*
X99130142Y-33551174D01*
G37*
D11*
X98650000Y-34037500D03*
D10*
G36*
X94280142Y-41076174D02*
G01*
X94303803Y-41079684D01*
X94327007Y-41085496D01*
X94349529Y-41093554D01*
X94371153Y-41103782D01*
X94391670Y-41116079D01*
X94410883Y-41130329D01*
X94428607Y-41146393D01*
X94444671Y-41164117D01*
X94458921Y-41183330D01*
X94471218Y-41203847D01*
X94481446Y-41225471D01*
X94489504Y-41247993D01*
X94495316Y-41271197D01*
X94498826Y-41294858D01*
X94500000Y-41318750D01*
X94500000Y-41806250D01*
X94498826Y-41830142D01*
X94495316Y-41853803D01*
X94489504Y-41877007D01*
X94481446Y-41899529D01*
X94471218Y-41921153D01*
X94458921Y-41941670D01*
X94444671Y-41960883D01*
X94428607Y-41978607D01*
X94410883Y-41994671D01*
X94391670Y-42008921D01*
X94371153Y-42021218D01*
X94349529Y-42031446D01*
X94327007Y-42039504D01*
X94303803Y-42045316D01*
X94280142Y-42048826D01*
X94256250Y-42050000D01*
X93343750Y-42050000D01*
X93319858Y-42048826D01*
X93296197Y-42045316D01*
X93272993Y-42039504D01*
X93250471Y-42031446D01*
X93228847Y-42021218D01*
X93208330Y-42008921D01*
X93189117Y-41994671D01*
X93171393Y-41978607D01*
X93155329Y-41960883D01*
X93141079Y-41941670D01*
X93128782Y-41921153D01*
X93118554Y-41899529D01*
X93110496Y-41877007D01*
X93104684Y-41853803D01*
X93101174Y-41830142D01*
X93100000Y-41806250D01*
X93100000Y-41318750D01*
X93101174Y-41294858D01*
X93104684Y-41271197D01*
X93110496Y-41247993D01*
X93118554Y-41225471D01*
X93128782Y-41203847D01*
X93141079Y-41183330D01*
X93155329Y-41164117D01*
X93171393Y-41146393D01*
X93189117Y-41130329D01*
X93208330Y-41116079D01*
X93228847Y-41103782D01*
X93250471Y-41093554D01*
X93272993Y-41085496D01*
X93296197Y-41079684D01*
X93319858Y-41076174D01*
X93343750Y-41075000D01*
X94256250Y-41075000D01*
X94280142Y-41076174D01*
X94280142Y-41076174D01*
G37*
D11*
X93800000Y-41562500D03*
D10*
G36*
X94280142Y-42951174D02*
G01*
X94303803Y-42954684D01*
X94327007Y-42960496D01*
X94349529Y-42968554D01*
X94371153Y-42978782D01*
X94391670Y-42991079D01*
X94410883Y-43005329D01*
X94428607Y-43021393D01*
X94444671Y-43039117D01*
X94458921Y-43058330D01*
X94471218Y-43078847D01*
X94481446Y-43100471D01*
X94489504Y-43122993D01*
X94495316Y-43146197D01*
X94498826Y-43169858D01*
X94500000Y-43193750D01*
X94500000Y-43681250D01*
X94498826Y-43705142D01*
X94495316Y-43728803D01*
X94489504Y-43752007D01*
X94481446Y-43774529D01*
X94471218Y-43796153D01*
X94458921Y-43816670D01*
X94444671Y-43835883D01*
X94428607Y-43853607D01*
X94410883Y-43869671D01*
X94391670Y-43883921D01*
X94371153Y-43896218D01*
X94349529Y-43906446D01*
X94327007Y-43914504D01*
X94303803Y-43920316D01*
X94280142Y-43923826D01*
X94256250Y-43925000D01*
X93343750Y-43925000D01*
X93319858Y-43923826D01*
X93296197Y-43920316D01*
X93272993Y-43914504D01*
X93250471Y-43906446D01*
X93228847Y-43896218D01*
X93208330Y-43883921D01*
X93189117Y-43869671D01*
X93171393Y-43853607D01*
X93155329Y-43835883D01*
X93141079Y-43816670D01*
X93128782Y-43796153D01*
X93118554Y-43774529D01*
X93110496Y-43752007D01*
X93104684Y-43728803D01*
X93101174Y-43705142D01*
X93100000Y-43681250D01*
X93100000Y-43193750D01*
X93101174Y-43169858D01*
X93104684Y-43146197D01*
X93110496Y-43122993D01*
X93118554Y-43100471D01*
X93128782Y-43078847D01*
X93141079Y-43058330D01*
X93155329Y-43039117D01*
X93171393Y-43021393D01*
X93189117Y-43005329D01*
X93208330Y-42991079D01*
X93228847Y-42978782D01*
X93250471Y-42968554D01*
X93272993Y-42960496D01*
X93296197Y-42954684D01*
X93319858Y-42951174D01*
X93343750Y-42950000D01*
X94256250Y-42950000D01*
X94280142Y-42951174D01*
X94280142Y-42951174D01*
G37*
D11*
X93800000Y-43437500D03*
D10*
G36*
X117805142Y-42001174D02*
G01*
X117828803Y-42004684D01*
X117852007Y-42010496D01*
X117874529Y-42018554D01*
X117896153Y-42028782D01*
X117916670Y-42041079D01*
X117935883Y-42055329D01*
X117953607Y-42071393D01*
X117969671Y-42089117D01*
X117983921Y-42108330D01*
X117996218Y-42128847D01*
X118006446Y-42150471D01*
X118014504Y-42172993D01*
X118020316Y-42196197D01*
X118023826Y-42219858D01*
X118025000Y-42243750D01*
X118025000Y-43156250D01*
X118023826Y-43180142D01*
X118020316Y-43203803D01*
X118014504Y-43227007D01*
X118006446Y-43249529D01*
X117996218Y-43271153D01*
X117983921Y-43291670D01*
X117969671Y-43310883D01*
X117953607Y-43328607D01*
X117935883Y-43344671D01*
X117916670Y-43358921D01*
X117896153Y-43371218D01*
X117874529Y-43381446D01*
X117852007Y-43389504D01*
X117828803Y-43395316D01*
X117805142Y-43398826D01*
X117781250Y-43400000D01*
X117293750Y-43400000D01*
X117269858Y-43398826D01*
X117246197Y-43395316D01*
X117222993Y-43389504D01*
X117200471Y-43381446D01*
X117178847Y-43371218D01*
X117158330Y-43358921D01*
X117139117Y-43344671D01*
X117121393Y-43328607D01*
X117105329Y-43310883D01*
X117091079Y-43291670D01*
X117078782Y-43271153D01*
X117068554Y-43249529D01*
X117060496Y-43227007D01*
X117054684Y-43203803D01*
X117051174Y-43180142D01*
X117050000Y-43156250D01*
X117050000Y-42243750D01*
X117051174Y-42219858D01*
X117054684Y-42196197D01*
X117060496Y-42172993D01*
X117068554Y-42150471D01*
X117078782Y-42128847D01*
X117091079Y-42108330D01*
X117105329Y-42089117D01*
X117121393Y-42071393D01*
X117139117Y-42055329D01*
X117158330Y-42041079D01*
X117178847Y-42028782D01*
X117200471Y-42018554D01*
X117222993Y-42010496D01*
X117246197Y-42004684D01*
X117269858Y-42001174D01*
X117293750Y-42000000D01*
X117781250Y-42000000D01*
X117805142Y-42001174D01*
X117805142Y-42001174D01*
G37*
D11*
X117537500Y-42700000D03*
D10*
G36*
X115930142Y-42001174D02*
G01*
X115953803Y-42004684D01*
X115977007Y-42010496D01*
X115999529Y-42018554D01*
X116021153Y-42028782D01*
X116041670Y-42041079D01*
X116060883Y-42055329D01*
X116078607Y-42071393D01*
X116094671Y-42089117D01*
X116108921Y-42108330D01*
X116121218Y-42128847D01*
X116131446Y-42150471D01*
X116139504Y-42172993D01*
X116145316Y-42196197D01*
X116148826Y-42219858D01*
X116150000Y-42243750D01*
X116150000Y-43156250D01*
X116148826Y-43180142D01*
X116145316Y-43203803D01*
X116139504Y-43227007D01*
X116131446Y-43249529D01*
X116121218Y-43271153D01*
X116108921Y-43291670D01*
X116094671Y-43310883D01*
X116078607Y-43328607D01*
X116060883Y-43344671D01*
X116041670Y-43358921D01*
X116021153Y-43371218D01*
X115999529Y-43381446D01*
X115977007Y-43389504D01*
X115953803Y-43395316D01*
X115930142Y-43398826D01*
X115906250Y-43400000D01*
X115418750Y-43400000D01*
X115394858Y-43398826D01*
X115371197Y-43395316D01*
X115347993Y-43389504D01*
X115325471Y-43381446D01*
X115303847Y-43371218D01*
X115283330Y-43358921D01*
X115264117Y-43344671D01*
X115246393Y-43328607D01*
X115230329Y-43310883D01*
X115216079Y-43291670D01*
X115203782Y-43271153D01*
X115193554Y-43249529D01*
X115185496Y-43227007D01*
X115179684Y-43203803D01*
X115176174Y-43180142D01*
X115175000Y-43156250D01*
X115175000Y-42243750D01*
X115176174Y-42219858D01*
X115179684Y-42196197D01*
X115185496Y-42172993D01*
X115193554Y-42150471D01*
X115203782Y-42128847D01*
X115216079Y-42108330D01*
X115230329Y-42089117D01*
X115246393Y-42071393D01*
X115264117Y-42055329D01*
X115283330Y-42041079D01*
X115303847Y-42028782D01*
X115325471Y-42018554D01*
X115347993Y-42010496D01*
X115371197Y-42004684D01*
X115394858Y-42001174D01*
X115418750Y-42000000D01*
X115906250Y-42000000D01*
X115930142Y-42001174D01*
X115930142Y-42001174D01*
G37*
D11*
X115662500Y-42700000D03*
D10*
G36*
X99130142Y-62351174D02*
G01*
X99153803Y-62354684D01*
X99177007Y-62360496D01*
X99199529Y-62368554D01*
X99221153Y-62378782D01*
X99241670Y-62391079D01*
X99260883Y-62405329D01*
X99278607Y-62421393D01*
X99294671Y-62439117D01*
X99308921Y-62458330D01*
X99321218Y-62478847D01*
X99331446Y-62500471D01*
X99339504Y-62522993D01*
X99345316Y-62546197D01*
X99348826Y-62569858D01*
X99350000Y-62593750D01*
X99350000Y-63506250D01*
X99348826Y-63530142D01*
X99345316Y-63553803D01*
X99339504Y-63577007D01*
X99331446Y-63599529D01*
X99321218Y-63621153D01*
X99308921Y-63641670D01*
X99294671Y-63660883D01*
X99278607Y-63678607D01*
X99260883Y-63694671D01*
X99241670Y-63708921D01*
X99221153Y-63721218D01*
X99199529Y-63731446D01*
X99177007Y-63739504D01*
X99153803Y-63745316D01*
X99130142Y-63748826D01*
X99106250Y-63750000D01*
X98618750Y-63750000D01*
X98594858Y-63748826D01*
X98571197Y-63745316D01*
X98547993Y-63739504D01*
X98525471Y-63731446D01*
X98503847Y-63721218D01*
X98483330Y-63708921D01*
X98464117Y-63694671D01*
X98446393Y-63678607D01*
X98430329Y-63660883D01*
X98416079Y-63641670D01*
X98403782Y-63621153D01*
X98393554Y-63599529D01*
X98385496Y-63577007D01*
X98379684Y-63553803D01*
X98376174Y-63530142D01*
X98375000Y-63506250D01*
X98375000Y-62593750D01*
X98376174Y-62569858D01*
X98379684Y-62546197D01*
X98385496Y-62522993D01*
X98393554Y-62500471D01*
X98403782Y-62478847D01*
X98416079Y-62458330D01*
X98430329Y-62439117D01*
X98446393Y-62421393D01*
X98464117Y-62405329D01*
X98483330Y-62391079D01*
X98503847Y-62378782D01*
X98525471Y-62368554D01*
X98547993Y-62360496D01*
X98571197Y-62354684D01*
X98594858Y-62351174D01*
X98618750Y-62350000D01*
X99106250Y-62350000D01*
X99130142Y-62351174D01*
X99130142Y-62351174D01*
G37*
D11*
X98862500Y-63050000D03*
D10*
G36*
X101005142Y-62351174D02*
G01*
X101028803Y-62354684D01*
X101052007Y-62360496D01*
X101074529Y-62368554D01*
X101096153Y-62378782D01*
X101116670Y-62391079D01*
X101135883Y-62405329D01*
X101153607Y-62421393D01*
X101169671Y-62439117D01*
X101183921Y-62458330D01*
X101196218Y-62478847D01*
X101206446Y-62500471D01*
X101214504Y-62522993D01*
X101220316Y-62546197D01*
X101223826Y-62569858D01*
X101225000Y-62593750D01*
X101225000Y-63506250D01*
X101223826Y-63530142D01*
X101220316Y-63553803D01*
X101214504Y-63577007D01*
X101206446Y-63599529D01*
X101196218Y-63621153D01*
X101183921Y-63641670D01*
X101169671Y-63660883D01*
X101153607Y-63678607D01*
X101135883Y-63694671D01*
X101116670Y-63708921D01*
X101096153Y-63721218D01*
X101074529Y-63731446D01*
X101052007Y-63739504D01*
X101028803Y-63745316D01*
X101005142Y-63748826D01*
X100981250Y-63750000D01*
X100493750Y-63750000D01*
X100469858Y-63748826D01*
X100446197Y-63745316D01*
X100422993Y-63739504D01*
X100400471Y-63731446D01*
X100378847Y-63721218D01*
X100358330Y-63708921D01*
X100339117Y-63694671D01*
X100321393Y-63678607D01*
X100305329Y-63660883D01*
X100291079Y-63641670D01*
X100278782Y-63621153D01*
X100268554Y-63599529D01*
X100260496Y-63577007D01*
X100254684Y-63553803D01*
X100251174Y-63530142D01*
X100250000Y-63506250D01*
X100250000Y-62593750D01*
X100251174Y-62569858D01*
X100254684Y-62546197D01*
X100260496Y-62522993D01*
X100268554Y-62500471D01*
X100278782Y-62478847D01*
X100291079Y-62458330D01*
X100305329Y-62439117D01*
X100321393Y-62421393D01*
X100339117Y-62405329D01*
X100358330Y-62391079D01*
X100378847Y-62378782D01*
X100400471Y-62368554D01*
X100422993Y-62360496D01*
X100446197Y-62354684D01*
X100469858Y-62351174D01*
X100493750Y-62350000D01*
X100981250Y-62350000D01*
X101005142Y-62351174D01*
X101005142Y-62351174D01*
G37*
D11*
X100737500Y-63050000D03*
D10*
G36*
X110305142Y-33001174D02*
G01*
X110328803Y-33004684D01*
X110352007Y-33010496D01*
X110374529Y-33018554D01*
X110396153Y-33028782D01*
X110416670Y-33041079D01*
X110435883Y-33055329D01*
X110453607Y-33071393D01*
X110469671Y-33089117D01*
X110483921Y-33108330D01*
X110496218Y-33128847D01*
X110506446Y-33150471D01*
X110514504Y-33172993D01*
X110520316Y-33196197D01*
X110523826Y-33219858D01*
X110525000Y-33243750D01*
X110525000Y-34156250D01*
X110523826Y-34180142D01*
X110520316Y-34203803D01*
X110514504Y-34227007D01*
X110506446Y-34249529D01*
X110496218Y-34271153D01*
X110483921Y-34291670D01*
X110469671Y-34310883D01*
X110453607Y-34328607D01*
X110435883Y-34344671D01*
X110416670Y-34358921D01*
X110396153Y-34371218D01*
X110374529Y-34381446D01*
X110352007Y-34389504D01*
X110328803Y-34395316D01*
X110305142Y-34398826D01*
X110281250Y-34400000D01*
X109793750Y-34400000D01*
X109769858Y-34398826D01*
X109746197Y-34395316D01*
X109722993Y-34389504D01*
X109700471Y-34381446D01*
X109678847Y-34371218D01*
X109658330Y-34358921D01*
X109639117Y-34344671D01*
X109621393Y-34328607D01*
X109605329Y-34310883D01*
X109591079Y-34291670D01*
X109578782Y-34271153D01*
X109568554Y-34249529D01*
X109560496Y-34227007D01*
X109554684Y-34203803D01*
X109551174Y-34180142D01*
X109550000Y-34156250D01*
X109550000Y-33243750D01*
X109551174Y-33219858D01*
X109554684Y-33196197D01*
X109560496Y-33172993D01*
X109568554Y-33150471D01*
X109578782Y-33128847D01*
X109591079Y-33108330D01*
X109605329Y-33089117D01*
X109621393Y-33071393D01*
X109639117Y-33055329D01*
X109658330Y-33041079D01*
X109678847Y-33028782D01*
X109700471Y-33018554D01*
X109722993Y-33010496D01*
X109746197Y-33004684D01*
X109769858Y-33001174D01*
X109793750Y-33000000D01*
X110281250Y-33000000D01*
X110305142Y-33001174D01*
X110305142Y-33001174D01*
G37*
D11*
X110037500Y-33700000D03*
D10*
G36*
X108430142Y-33001174D02*
G01*
X108453803Y-33004684D01*
X108477007Y-33010496D01*
X108499529Y-33018554D01*
X108521153Y-33028782D01*
X108541670Y-33041079D01*
X108560883Y-33055329D01*
X108578607Y-33071393D01*
X108594671Y-33089117D01*
X108608921Y-33108330D01*
X108621218Y-33128847D01*
X108631446Y-33150471D01*
X108639504Y-33172993D01*
X108645316Y-33196197D01*
X108648826Y-33219858D01*
X108650000Y-33243750D01*
X108650000Y-34156250D01*
X108648826Y-34180142D01*
X108645316Y-34203803D01*
X108639504Y-34227007D01*
X108631446Y-34249529D01*
X108621218Y-34271153D01*
X108608921Y-34291670D01*
X108594671Y-34310883D01*
X108578607Y-34328607D01*
X108560883Y-34344671D01*
X108541670Y-34358921D01*
X108521153Y-34371218D01*
X108499529Y-34381446D01*
X108477007Y-34389504D01*
X108453803Y-34395316D01*
X108430142Y-34398826D01*
X108406250Y-34400000D01*
X107918750Y-34400000D01*
X107894858Y-34398826D01*
X107871197Y-34395316D01*
X107847993Y-34389504D01*
X107825471Y-34381446D01*
X107803847Y-34371218D01*
X107783330Y-34358921D01*
X107764117Y-34344671D01*
X107746393Y-34328607D01*
X107730329Y-34310883D01*
X107716079Y-34291670D01*
X107703782Y-34271153D01*
X107693554Y-34249529D01*
X107685496Y-34227007D01*
X107679684Y-34203803D01*
X107676174Y-34180142D01*
X107675000Y-34156250D01*
X107675000Y-33243750D01*
X107676174Y-33219858D01*
X107679684Y-33196197D01*
X107685496Y-33172993D01*
X107693554Y-33150471D01*
X107703782Y-33128847D01*
X107716079Y-33108330D01*
X107730329Y-33089117D01*
X107746393Y-33071393D01*
X107764117Y-33055329D01*
X107783330Y-33041079D01*
X107803847Y-33028782D01*
X107825471Y-33018554D01*
X107847993Y-33010496D01*
X107871197Y-33004684D01*
X107894858Y-33001174D01*
X107918750Y-33000000D01*
X108406250Y-33000000D01*
X108430142Y-33001174D01*
X108430142Y-33001174D01*
G37*
D11*
X108162500Y-33700000D03*
D10*
G36*
X91630142Y-53801174D02*
G01*
X91653803Y-53804684D01*
X91677007Y-53810496D01*
X91699529Y-53818554D01*
X91721153Y-53828782D01*
X91741670Y-53841079D01*
X91760883Y-53855329D01*
X91778607Y-53871393D01*
X91794671Y-53889117D01*
X91808921Y-53908330D01*
X91821218Y-53928847D01*
X91831446Y-53950471D01*
X91839504Y-53972993D01*
X91845316Y-53996197D01*
X91848826Y-54019858D01*
X91850000Y-54043750D01*
X91850000Y-54956250D01*
X91848826Y-54980142D01*
X91845316Y-55003803D01*
X91839504Y-55027007D01*
X91831446Y-55049529D01*
X91821218Y-55071153D01*
X91808921Y-55091670D01*
X91794671Y-55110883D01*
X91778607Y-55128607D01*
X91760883Y-55144671D01*
X91741670Y-55158921D01*
X91721153Y-55171218D01*
X91699529Y-55181446D01*
X91677007Y-55189504D01*
X91653803Y-55195316D01*
X91630142Y-55198826D01*
X91606250Y-55200000D01*
X91118750Y-55200000D01*
X91094858Y-55198826D01*
X91071197Y-55195316D01*
X91047993Y-55189504D01*
X91025471Y-55181446D01*
X91003847Y-55171218D01*
X90983330Y-55158921D01*
X90964117Y-55144671D01*
X90946393Y-55128607D01*
X90930329Y-55110883D01*
X90916079Y-55091670D01*
X90903782Y-55071153D01*
X90893554Y-55049529D01*
X90885496Y-55027007D01*
X90879684Y-55003803D01*
X90876174Y-54980142D01*
X90875000Y-54956250D01*
X90875000Y-54043750D01*
X90876174Y-54019858D01*
X90879684Y-53996197D01*
X90885496Y-53972993D01*
X90893554Y-53950471D01*
X90903782Y-53928847D01*
X90916079Y-53908330D01*
X90930329Y-53889117D01*
X90946393Y-53871393D01*
X90964117Y-53855329D01*
X90983330Y-53841079D01*
X91003847Y-53828782D01*
X91025471Y-53818554D01*
X91047993Y-53810496D01*
X91071197Y-53804684D01*
X91094858Y-53801174D01*
X91118750Y-53800000D01*
X91606250Y-53800000D01*
X91630142Y-53801174D01*
X91630142Y-53801174D01*
G37*
D11*
X91362500Y-54500000D03*
D10*
G36*
X93505142Y-53801174D02*
G01*
X93528803Y-53804684D01*
X93552007Y-53810496D01*
X93574529Y-53818554D01*
X93596153Y-53828782D01*
X93616670Y-53841079D01*
X93635883Y-53855329D01*
X93653607Y-53871393D01*
X93669671Y-53889117D01*
X93683921Y-53908330D01*
X93696218Y-53928847D01*
X93706446Y-53950471D01*
X93714504Y-53972993D01*
X93720316Y-53996197D01*
X93723826Y-54019858D01*
X93725000Y-54043750D01*
X93725000Y-54956250D01*
X93723826Y-54980142D01*
X93720316Y-55003803D01*
X93714504Y-55027007D01*
X93706446Y-55049529D01*
X93696218Y-55071153D01*
X93683921Y-55091670D01*
X93669671Y-55110883D01*
X93653607Y-55128607D01*
X93635883Y-55144671D01*
X93616670Y-55158921D01*
X93596153Y-55171218D01*
X93574529Y-55181446D01*
X93552007Y-55189504D01*
X93528803Y-55195316D01*
X93505142Y-55198826D01*
X93481250Y-55200000D01*
X92993750Y-55200000D01*
X92969858Y-55198826D01*
X92946197Y-55195316D01*
X92922993Y-55189504D01*
X92900471Y-55181446D01*
X92878847Y-55171218D01*
X92858330Y-55158921D01*
X92839117Y-55144671D01*
X92821393Y-55128607D01*
X92805329Y-55110883D01*
X92791079Y-55091670D01*
X92778782Y-55071153D01*
X92768554Y-55049529D01*
X92760496Y-55027007D01*
X92754684Y-55003803D01*
X92751174Y-54980142D01*
X92750000Y-54956250D01*
X92750000Y-54043750D01*
X92751174Y-54019858D01*
X92754684Y-53996197D01*
X92760496Y-53972993D01*
X92768554Y-53950471D01*
X92778782Y-53928847D01*
X92791079Y-53908330D01*
X92805329Y-53889117D01*
X92821393Y-53871393D01*
X92839117Y-53855329D01*
X92858330Y-53841079D01*
X92878847Y-53828782D01*
X92900471Y-53818554D01*
X92922993Y-53810496D01*
X92946197Y-53804684D01*
X92969858Y-53801174D01*
X92993750Y-53800000D01*
X93481250Y-53800000D01*
X93505142Y-53801174D01*
X93505142Y-53801174D01*
G37*
D11*
X93237500Y-54500000D03*
D10*
G36*
X92855142Y-33001174D02*
G01*
X92878803Y-33004684D01*
X92902007Y-33010496D01*
X92924529Y-33018554D01*
X92946153Y-33028782D01*
X92966670Y-33041079D01*
X92985883Y-33055329D01*
X93003607Y-33071393D01*
X93019671Y-33089117D01*
X93033921Y-33108330D01*
X93046218Y-33128847D01*
X93056446Y-33150471D01*
X93064504Y-33172993D01*
X93070316Y-33196197D01*
X93073826Y-33219858D01*
X93075000Y-33243750D01*
X93075000Y-34156250D01*
X93073826Y-34180142D01*
X93070316Y-34203803D01*
X93064504Y-34227007D01*
X93056446Y-34249529D01*
X93046218Y-34271153D01*
X93033921Y-34291670D01*
X93019671Y-34310883D01*
X93003607Y-34328607D01*
X92985883Y-34344671D01*
X92966670Y-34358921D01*
X92946153Y-34371218D01*
X92924529Y-34381446D01*
X92902007Y-34389504D01*
X92878803Y-34395316D01*
X92855142Y-34398826D01*
X92831250Y-34400000D01*
X92343750Y-34400000D01*
X92319858Y-34398826D01*
X92296197Y-34395316D01*
X92272993Y-34389504D01*
X92250471Y-34381446D01*
X92228847Y-34371218D01*
X92208330Y-34358921D01*
X92189117Y-34344671D01*
X92171393Y-34328607D01*
X92155329Y-34310883D01*
X92141079Y-34291670D01*
X92128782Y-34271153D01*
X92118554Y-34249529D01*
X92110496Y-34227007D01*
X92104684Y-34203803D01*
X92101174Y-34180142D01*
X92100000Y-34156250D01*
X92100000Y-33243750D01*
X92101174Y-33219858D01*
X92104684Y-33196197D01*
X92110496Y-33172993D01*
X92118554Y-33150471D01*
X92128782Y-33128847D01*
X92141079Y-33108330D01*
X92155329Y-33089117D01*
X92171393Y-33071393D01*
X92189117Y-33055329D01*
X92208330Y-33041079D01*
X92228847Y-33028782D01*
X92250471Y-33018554D01*
X92272993Y-33010496D01*
X92296197Y-33004684D01*
X92319858Y-33001174D01*
X92343750Y-33000000D01*
X92831250Y-33000000D01*
X92855142Y-33001174D01*
X92855142Y-33001174D01*
G37*
D11*
X92587500Y-33700000D03*
D10*
G36*
X90980142Y-33001174D02*
G01*
X91003803Y-33004684D01*
X91027007Y-33010496D01*
X91049529Y-33018554D01*
X91071153Y-33028782D01*
X91091670Y-33041079D01*
X91110883Y-33055329D01*
X91128607Y-33071393D01*
X91144671Y-33089117D01*
X91158921Y-33108330D01*
X91171218Y-33128847D01*
X91181446Y-33150471D01*
X91189504Y-33172993D01*
X91195316Y-33196197D01*
X91198826Y-33219858D01*
X91200000Y-33243750D01*
X91200000Y-34156250D01*
X91198826Y-34180142D01*
X91195316Y-34203803D01*
X91189504Y-34227007D01*
X91181446Y-34249529D01*
X91171218Y-34271153D01*
X91158921Y-34291670D01*
X91144671Y-34310883D01*
X91128607Y-34328607D01*
X91110883Y-34344671D01*
X91091670Y-34358921D01*
X91071153Y-34371218D01*
X91049529Y-34381446D01*
X91027007Y-34389504D01*
X91003803Y-34395316D01*
X90980142Y-34398826D01*
X90956250Y-34400000D01*
X90468750Y-34400000D01*
X90444858Y-34398826D01*
X90421197Y-34395316D01*
X90397993Y-34389504D01*
X90375471Y-34381446D01*
X90353847Y-34371218D01*
X90333330Y-34358921D01*
X90314117Y-34344671D01*
X90296393Y-34328607D01*
X90280329Y-34310883D01*
X90266079Y-34291670D01*
X90253782Y-34271153D01*
X90243554Y-34249529D01*
X90235496Y-34227007D01*
X90229684Y-34203803D01*
X90226174Y-34180142D01*
X90225000Y-34156250D01*
X90225000Y-33243750D01*
X90226174Y-33219858D01*
X90229684Y-33196197D01*
X90235496Y-33172993D01*
X90243554Y-33150471D01*
X90253782Y-33128847D01*
X90266079Y-33108330D01*
X90280329Y-33089117D01*
X90296393Y-33071393D01*
X90314117Y-33055329D01*
X90333330Y-33041079D01*
X90353847Y-33028782D01*
X90375471Y-33018554D01*
X90397993Y-33010496D01*
X90421197Y-33004684D01*
X90444858Y-33001174D01*
X90468750Y-33000000D01*
X90956250Y-33000000D01*
X90980142Y-33001174D01*
X90980142Y-33001174D01*
G37*
D11*
X90712500Y-33700000D03*
D10*
G36*
X81330142Y-41451174D02*
G01*
X81353803Y-41454684D01*
X81377007Y-41460496D01*
X81399529Y-41468554D01*
X81421153Y-41478782D01*
X81441670Y-41491079D01*
X81460883Y-41505329D01*
X81478607Y-41521393D01*
X81494671Y-41539117D01*
X81508921Y-41558330D01*
X81521218Y-41578847D01*
X81531446Y-41600471D01*
X81539504Y-41622993D01*
X81545316Y-41646197D01*
X81548826Y-41669858D01*
X81550000Y-41693750D01*
X81550000Y-42606250D01*
X81548826Y-42630142D01*
X81545316Y-42653803D01*
X81539504Y-42677007D01*
X81531446Y-42699529D01*
X81521218Y-42721153D01*
X81508921Y-42741670D01*
X81494671Y-42760883D01*
X81478607Y-42778607D01*
X81460883Y-42794671D01*
X81441670Y-42808921D01*
X81421153Y-42821218D01*
X81399529Y-42831446D01*
X81377007Y-42839504D01*
X81353803Y-42845316D01*
X81330142Y-42848826D01*
X81306250Y-42850000D01*
X80818750Y-42850000D01*
X80794858Y-42848826D01*
X80771197Y-42845316D01*
X80747993Y-42839504D01*
X80725471Y-42831446D01*
X80703847Y-42821218D01*
X80683330Y-42808921D01*
X80664117Y-42794671D01*
X80646393Y-42778607D01*
X80630329Y-42760883D01*
X80616079Y-42741670D01*
X80603782Y-42721153D01*
X80593554Y-42699529D01*
X80585496Y-42677007D01*
X80579684Y-42653803D01*
X80576174Y-42630142D01*
X80575000Y-42606250D01*
X80575000Y-41693750D01*
X80576174Y-41669858D01*
X80579684Y-41646197D01*
X80585496Y-41622993D01*
X80593554Y-41600471D01*
X80603782Y-41578847D01*
X80616079Y-41558330D01*
X80630329Y-41539117D01*
X80646393Y-41521393D01*
X80664117Y-41505329D01*
X80683330Y-41491079D01*
X80703847Y-41478782D01*
X80725471Y-41468554D01*
X80747993Y-41460496D01*
X80771197Y-41454684D01*
X80794858Y-41451174D01*
X80818750Y-41450000D01*
X81306250Y-41450000D01*
X81330142Y-41451174D01*
X81330142Y-41451174D01*
G37*
D11*
X81062500Y-42150000D03*
D10*
G36*
X83205142Y-41451174D02*
G01*
X83228803Y-41454684D01*
X83252007Y-41460496D01*
X83274529Y-41468554D01*
X83296153Y-41478782D01*
X83316670Y-41491079D01*
X83335883Y-41505329D01*
X83353607Y-41521393D01*
X83369671Y-41539117D01*
X83383921Y-41558330D01*
X83396218Y-41578847D01*
X83406446Y-41600471D01*
X83414504Y-41622993D01*
X83420316Y-41646197D01*
X83423826Y-41669858D01*
X83425000Y-41693750D01*
X83425000Y-42606250D01*
X83423826Y-42630142D01*
X83420316Y-42653803D01*
X83414504Y-42677007D01*
X83406446Y-42699529D01*
X83396218Y-42721153D01*
X83383921Y-42741670D01*
X83369671Y-42760883D01*
X83353607Y-42778607D01*
X83335883Y-42794671D01*
X83316670Y-42808921D01*
X83296153Y-42821218D01*
X83274529Y-42831446D01*
X83252007Y-42839504D01*
X83228803Y-42845316D01*
X83205142Y-42848826D01*
X83181250Y-42850000D01*
X82693750Y-42850000D01*
X82669858Y-42848826D01*
X82646197Y-42845316D01*
X82622993Y-42839504D01*
X82600471Y-42831446D01*
X82578847Y-42821218D01*
X82558330Y-42808921D01*
X82539117Y-42794671D01*
X82521393Y-42778607D01*
X82505329Y-42760883D01*
X82491079Y-42741670D01*
X82478782Y-42721153D01*
X82468554Y-42699529D01*
X82460496Y-42677007D01*
X82454684Y-42653803D01*
X82451174Y-42630142D01*
X82450000Y-42606250D01*
X82450000Y-41693750D01*
X82451174Y-41669858D01*
X82454684Y-41646197D01*
X82460496Y-41622993D01*
X82468554Y-41600471D01*
X82478782Y-41578847D01*
X82491079Y-41558330D01*
X82505329Y-41539117D01*
X82521393Y-41521393D01*
X82539117Y-41505329D01*
X82558330Y-41491079D01*
X82578847Y-41478782D01*
X82600471Y-41468554D01*
X82622993Y-41460496D01*
X82646197Y-41454684D01*
X82669858Y-41451174D01*
X82693750Y-41450000D01*
X83181250Y-41450000D01*
X83205142Y-41451174D01*
X83205142Y-41451174D01*
G37*
D11*
X82937500Y-42150000D03*
D10*
G36*
X81280142Y-63801174D02*
G01*
X81303803Y-63804684D01*
X81327007Y-63810496D01*
X81349529Y-63818554D01*
X81371153Y-63828782D01*
X81391670Y-63841079D01*
X81410883Y-63855329D01*
X81428607Y-63871393D01*
X81444671Y-63889117D01*
X81458921Y-63908330D01*
X81471218Y-63928847D01*
X81481446Y-63950471D01*
X81489504Y-63972993D01*
X81495316Y-63996197D01*
X81498826Y-64019858D01*
X81500000Y-64043750D01*
X81500000Y-64956250D01*
X81498826Y-64980142D01*
X81495316Y-65003803D01*
X81489504Y-65027007D01*
X81481446Y-65049529D01*
X81471218Y-65071153D01*
X81458921Y-65091670D01*
X81444671Y-65110883D01*
X81428607Y-65128607D01*
X81410883Y-65144671D01*
X81391670Y-65158921D01*
X81371153Y-65171218D01*
X81349529Y-65181446D01*
X81327007Y-65189504D01*
X81303803Y-65195316D01*
X81280142Y-65198826D01*
X81256250Y-65200000D01*
X80768750Y-65200000D01*
X80744858Y-65198826D01*
X80721197Y-65195316D01*
X80697993Y-65189504D01*
X80675471Y-65181446D01*
X80653847Y-65171218D01*
X80633330Y-65158921D01*
X80614117Y-65144671D01*
X80596393Y-65128607D01*
X80580329Y-65110883D01*
X80566079Y-65091670D01*
X80553782Y-65071153D01*
X80543554Y-65049529D01*
X80535496Y-65027007D01*
X80529684Y-65003803D01*
X80526174Y-64980142D01*
X80525000Y-64956250D01*
X80525000Y-64043750D01*
X80526174Y-64019858D01*
X80529684Y-63996197D01*
X80535496Y-63972993D01*
X80543554Y-63950471D01*
X80553782Y-63928847D01*
X80566079Y-63908330D01*
X80580329Y-63889117D01*
X80596393Y-63871393D01*
X80614117Y-63855329D01*
X80633330Y-63841079D01*
X80653847Y-63828782D01*
X80675471Y-63818554D01*
X80697993Y-63810496D01*
X80721197Y-63804684D01*
X80744858Y-63801174D01*
X80768750Y-63800000D01*
X81256250Y-63800000D01*
X81280142Y-63801174D01*
X81280142Y-63801174D01*
G37*
D11*
X81012500Y-64500000D03*
D10*
G36*
X83155142Y-63801174D02*
G01*
X83178803Y-63804684D01*
X83202007Y-63810496D01*
X83224529Y-63818554D01*
X83246153Y-63828782D01*
X83266670Y-63841079D01*
X83285883Y-63855329D01*
X83303607Y-63871393D01*
X83319671Y-63889117D01*
X83333921Y-63908330D01*
X83346218Y-63928847D01*
X83356446Y-63950471D01*
X83364504Y-63972993D01*
X83370316Y-63996197D01*
X83373826Y-64019858D01*
X83375000Y-64043750D01*
X83375000Y-64956250D01*
X83373826Y-64980142D01*
X83370316Y-65003803D01*
X83364504Y-65027007D01*
X83356446Y-65049529D01*
X83346218Y-65071153D01*
X83333921Y-65091670D01*
X83319671Y-65110883D01*
X83303607Y-65128607D01*
X83285883Y-65144671D01*
X83266670Y-65158921D01*
X83246153Y-65171218D01*
X83224529Y-65181446D01*
X83202007Y-65189504D01*
X83178803Y-65195316D01*
X83155142Y-65198826D01*
X83131250Y-65200000D01*
X82643750Y-65200000D01*
X82619858Y-65198826D01*
X82596197Y-65195316D01*
X82572993Y-65189504D01*
X82550471Y-65181446D01*
X82528847Y-65171218D01*
X82508330Y-65158921D01*
X82489117Y-65144671D01*
X82471393Y-65128607D01*
X82455329Y-65110883D01*
X82441079Y-65091670D01*
X82428782Y-65071153D01*
X82418554Y-65049529D01*
X82410496Y-65027007D01*
X82404684Y-65003803D01*
X82401174Y-64980142D01*
X82400000Y-64956250D01*
X82400000Y-64043750D01*
X82401174Y-64019858D01*
X82404684Y-63996197D01*
X82410496Y-63972993D01*
X82418554Y-63950471D01*
X82428782Y-63928847D01*
X82441079Y-63908330D01*
X82455329Y-63889117D01*
X82471393Y-63871393D01*
X82489117Y-63855329D01*
X82508330Y-63841079D01*
X82528847Y-63828782D01*
X82550471Y-63818554D01*
X82572993Y-63810496D01*
X82596197Y-63804684D01*
X82619858Y-63801174D01*
X82643750Y-63800000D01*
X83131250Y-63800000D01*
X83155142Y-63801174D01*
X83155142Y-63801174D01*
G37*
D11*
X82887500Y-64500000D03*
D10*
G36*
X117080142Y-64101174D02*
G01*
X117103803Y-64104684D01*
X117127007Y-64110496D01*
X117149529Y-64118554D01*
X117171153Y-64128782D01*
X117191670Y-64141079D01*
X117210883Y-64155329D01*
X117228607Y-64171393D01*
X117244671Y-64189117D01*
X117258921Y-64208330D01*
X117271218Y-64228847D01*
X117281446Y-64250471D01*
X117289504Y-64272993D01*
X117295316Y-64296197D01*
X117298826Y-64319858D01*
X117300000Y-64343750D01*
X117300000Y-65256250D01*
X117298826Y-65280142D01*
X117295316Y-65303803D01*
X117289504Y-65327007D01*
X117281446Y-65349529D01*
X117271218Y-65371153D01*
X117258921Y-65391670D01*
X117244671Y-65410883D01*
X117228607Y-65428607D01*
X117210883Y-65444671D01*
X117191670Y-65458921D01*
X117171153Y-65471218D01*
X117149529Y-65481446D01*
X117127007Y-65489504D01*
X117103803Y-65495316D01*
X117080142Y-65498826D01*
X117056250Y-65500000D01*
X116568750Y-65500000D01*
X116544858Y-65498826D01*
X116521197Y-65495316D01*
X116497993Y-65489504D01*
X116475471Y-65481446D01*
X116453847Y-65471218D01*
X116433330Y-65458921D01*
X116414117Y-65444671D01*
X116396393Y-65428607D01*
X116380329Y-65410883D01*
X116366079Y-65391670D01*
X116353782Y-65371153D01*
X116343554Y-65349529D01*
X116335496Y-65327007D01*
X116329684Y-65303803D01*
X116326174Y-65280142D01*
X116325000Y-65256250D01*
X116325000Y-64343750D01*
X116326174Y-64319858D01*
X116329684Y-64296197D01*
X116335496Y-64272993D01*
X116343554Y-64250471D01*
X116353782Y-64228847D01*
X116366079Y-64208330D01*
X116380329Y-64189117D01*
X116396393Y-64171393D01*
X116414117Y-64155329D01*
X116433330Y-64141079D01*
X116453847Y-64128782D01*
X116475471Y-64118554D01*
X116497993Y-64110496D01*
X116521197Y-64104684D01*
X116544858Y-64101174D01*
X116568750Y-64100000D01*
X117056250Y-64100000D01*
X117080142Y-64101174D01*
X117080142Y-64101174D01*
G37*
D11*
X116812500Y-64800000D03*
D10*
G36*
X118955142Y-64101174D02*
G01*
X118978803Y-64104684D01*
X119002007Y-64110496D01*
X119024529Y-64118554D01*
X119046153Y-64128782D01*
X119066670Y-64141079D01*
X119085883Y-64155329D01*
X119103607Y-64171393D01*
X119119671Y-64189117D01*
X119133921Y-64208330D01*
X119146218Y-64228847D01*
X119156446Y-64250471D01*
X119164504Y-64272993D01*
X119170316Y-64296197D01*
X119173826Y-64319858D01*
X119175000Y-64343750D01*
X119175000Y-65256250D01*
X119173826Y-65280142D01*
X119170316Y-65303803D01*
X119164504Y-65327007D01*
X119156446Y-65349529D01*
X119146218Y-65371153D01*
X119133921Y-65391670D01*
X119119671Y-65410883D01*
X119103607Y-65428607D01*
X119085883Y-65444671D01*
X119066670Y-65458921D01*
X119046153Y-65471218D01*
X119024529Y-65481446D01*
X119002007Y-65489504D01*
X118978803Y-65495316D01*
X118955142Y-65498826D01*
X118931250Y-65500000D01*
X118443750Y-65500000D01*
X118419858Y-65498826D01*
X118396197Y-65495316D01*
X118372993Y-65489504D01*
X118350471Y-65481446D01*
X118328847Y-65471218D01*
X118308330Y-65458921D01*
X118289117Y-65444671D01*
X118271393Y-65428607D01*
X118255329Y-65410883D01*
X118241079Y-65391670D01*
X118228782Y-65371153D01*
X118218554Y-65349529D01*
X118210496Y-65327007D01*
X118204684Y-65303803D01*
X118201174Y-65280142D01*
X118200000Y-65256250D01*
X118200000Y-64343750D01*
X118201174Y-64319858D01*
X118204684Y-64296197D01*
X118210496Y-64272993D01*
X118218554Y-64250471D01*
X118228782Y-64228847D01*
X118241079Y-64208330D01*
X118255329Y-64189117D01*
X118271393Y-64171393D01*
X118289117Y-64155329D01*
X118308330Y-64141079D01*
X118328847Y-64128782D01*
X118350471Y-64118554D01*
X118372993Y-64110496D01*
X118396197Y-64104684D01*
X118419858Y-64101174D01*
X118443750Y-64100000D01*
X118931250Y-64100000D01*
X118955142Y-64101174D01*
X118955142Y-64101174D01*
G37*
D11*
X118687500Y-64800000D03*
D10*
G36*
X81380142Y-54751174D02*
G01*
X81403803Y-54754684D01*
X81427007Y-54760496D01*
X81449529Y-54768554D01*
X81471153Y-54778782D01*
X81491670Y-54791079D01*
X81510883Y-54805329D01*
X81528607Y-54821393D01*
X81544671Y-54839117D01*
X81558921Y-54858330D01*
X81571218Y-54878847D01*
X81581446Y-54900471D01*
X81589504Y-54922993D01*
X81595316Y-54946197D01*
X81598826Y-54969858D01*
X81600000Y-54993750D01*
X81600000Y-55481250D01*
X81598826Y-55505142D01*
X81595316Y-55528803D01*
X81589504Y-55552007D01*
X81581446Y-55574529D01*
X81571218Y-55596153D01*
X81558921Y-55616670D01*
X81544671Y-55635883D01*
X81528607Y-55653607D01*
X81510883Y-55669671D01*
X81491670Y-55683921D01*
X81471153Y-55696218D01*
X81449529Y-55706446D01*
X81427007Y-55714504D01*
X81403803Y-55720316D01*
X81380142Y-55723826D01*
X81356250Y-55725000D01*
X80443750Y-55725000D01*
X80419858Y-55723826D01*
X80396197Y-55720316D01*
X80372993Y-55714504D01*
X80350471Y-55706446D01*
X80328847Y-55696218D01*
X80308330Y-55683921D01*
X80289117Y-55669671D01*
X80271393Y-55653607D01*
X80255329Y-55635883D01*
X80241079Y-55616670D01*
X80228782Y-55596153D01*
X80218554Y-55574529D01*
X80210496Y-55552007D01*
X80204684Y-55528803D01*
X80201174Y-55505142D01*
X80200000Y-55481250D01*
X80200000Y-54993750D01*
X80201174Y-54969858D01*
X80204684Y-54946197D01*
X80210496Y-54922993D01*
X80218554Y-54900471D01*
X80228782Y-54878847D01*
X80241079Y-54858330D01*
X80255329Y-54839117D01*
X80271393Y-54821393D01*
X80289117Y-54805329D01*
X80308330Y-54791079D01*
X80328847Y-54778782D01*
X80350471Y-54768554D01*
X80372993Y-54760496D01*
X80396197Y-54754684D01*
X80419858Y-54751174D01*
X80443750Y-54750000D01*
X81356250Y-54750000D01*
X81380142Y-54751174D01*
X81380142Y-54751174D01*
G37*
D11*
X80900000Y-55237500D03*
D10*
G36*
X81380142Y-52876174D02*
G01*
X81403803Y-52879684D01*
X81427007Y-52885496D01*
X81449529Y-52893554D01*
X81471153Y-52903782D01*
X81491670Y-52916079D01*
X81510883Y-52930329D01*
X81528607Y-52946393D01*
X81544671Y-52964117D01*
X81558921Y-52983330D01*
X81571218Y-53003847D01*
X81581446Y-53025471D01*
X81589504Y-53047993D01*
X81595316Y-53071197D01*
X81598826Y-53094858D01*
X81600000Y-53118750D01*
X81600000Y-53606250D01*
X81598826Y-53630142D01*
X81595316Y-53653803D01*
X81589504Y-53677007D01*
X81581446Y-53699529D01*
X81571218Y-53721153D01*
X81558921Y-53741670D01*
X81544671Y-53760883D01*
X81528607Y-53778607D01*
X81510883Y-53794671D01*
X81491670Y-53808921D01*
X81471153Y-53821218D01*
X81449529Y-53831446D01*
X81427007Y-53839504D01*
X81403803Y-53845316D01*
X81380142Y-53848826D01*
X81356250Y-53850000D01*
X80443750Y-53850000D01*
X80419858Y-53848826D01*
X80396197Y-53845316D01*
X80372993Y-53839504D01*
X80350471Y-53831446D01*
X80328847Y-53821218D01*
X80308330Y-53808921D01*
X80289117Y-53794671D01*
X80271393Y-53778607D01*
X80255329Y-53760883D01*
X80241079Y-53741670D01*
X80228782Y-53721153D01*
X80218554Y-53699529D01*
X80210496Y-53677007D01*
X80204684Y-53653803D01*
X80201174Y-53630142D01*
X80200000Y-53606250D01*
X80200000Y-53118750D01*
X80201174Y-53094858D01*
X80204684Y-53071197D01*
X80210496Y-53047993D01*
X80218554Y-53025471D01*
X80228782Y-53003847D01*
X80241079Y-52983330D01*
X80255329Y-52964117D01*
X80271393Y-52946393D01*
X80289117Y-52930329D01*
X80308330Y-52916079D01*
X80328847Y-52903782D01*
X80350471Y-52893554D01*
X80372993Y-52885496D01*
X80396197Y-52879684D01*
X80419858Y-52876174D01*
X80443750Y-52875000D01*
X81356250Y-52875000D01*
X81380142Y-52876174D01*
X81380142Y-52876174D01*
G37*
D11*
X80900000Y-53362500D03*
D10*
G36*
X118080142Y-55151174D02*
G01*
X118103803Y-55154684D01*
X118127007Y-55160496D01*
X118149529Y-55168554D01*
X118171153Y-55178782D01*
X118191670Y-55191079D01*
X118210883Y-55205329D01*
X118228607Y-55221393D01*
X118244671Y-55239117D01*
X118258921Y-55258330D01*
X118271218Y-55278847D01*
X118281446Y-55300471D01*
X118289504Y-55322993D01*
X118295316Y-55346197D01*
X118298826Y-55369858D01*
X118300000Y-55393750D01*
X118300000Y-55881250D01*
X118298826Y-55905142D01*
X118295316Y-55928803D01*
X118289504Y-55952007D01*
X118281446Y-55974529D01*
X118271218Y-55996153D01*
X118258921Y-56016670D01*
X118244671Y-56035883D01*
X118228607Y-56053607D01*
X118210883Y-56069671D01*
X118191670Y-56083921D01*
X118171153Y-56096218D01*
X118149529Y-56106446D01*
X118127007Y-56114504D01*
X118103803Y-56120316D01*
X118080142Y-56123826D01*
X118056250Y-56125000D01*
X117143750Y-56125000D01*
X117119858Y-56123826D01*
X117096197Y-56120316D01*
X117072993Y-56114504D01*
X117050471Y-56106446D01*
X117028847Y-56096218D01*
X117008330Y-56083921D01*
X116989117Y-56069671D01*
X116971393Y-56053607D01*
X116955329Y-56035883D01*
X116941079Y-56016670D01*
X116928782Y-55996153D01*
X116918554Y-55974529D01*
X116910496Y-55952007D01*
X116904684Y-55928803D01*
X116901174Y-55905142D01*
X116900000Y-55881250D01*
X116900000Y-55393750D01*
X116901174Y-55369858D01*
X116904684Y-55346197D01*
X116910496Y-55322993D01*
X116918554Y-55300471D01*
X116928782Y-55278847D01*
X116941079Y-55258330D01*
X116955329Y-55239117D01*
X116971393Y-55221393D01*
X116989117Y-55205329D01*
X117008330Y-55191079D01*
X117028847Y-55178782D01*
X117050471Y-55168554D01*
X117072993Y-55160496D01*
X117096197Y-55154684D01*
X117119858Y-55151174D01*
X117143750Y-55150000D01*
X118056250Y-55150000D01*
X118080142Y-55151174D01*
X118080142Y-55151174D01*
G37*
D11*
X117600000Y-55637500D03*
D10*
G36*
X118080142Y-53276174D02*
G01*
X118103803Y-53279684D01*
X118127007Y-53285496D01*
X118149529Y-53293554D01*
X118171153Y-53303782D01*
X118191670Y-53316079D01*
X118210883Y-53330329D01*
X118228607Y-53346393D01*
X118244671Y-53364117D01*
X118258921Y-53383330D01*
X118271218Y-53403847D01*
X118281446Y-53425471D01*
X118289504Y-53447993D01*
X118295316Y-53471197D01*
X118298826Y-53494858D01*
X118300000Y-53518750D01*
X118300000Y-54006250D01*
X118298826Y-54030142D01*
X118295316Y-54053803D01*
X118289504Y-54077007D01*
X118281446Y-54099529D01*
X118271218Y-54121153D01*
X118258921Y-54141670D01*
X118244671Y-54160883D01*
X118228607Y-54178607D01*
X118210883Y-54194671D01*
X118191670Y-54208921D01*
X118171153Y-54221218D01*
X118149529Y-54231446D01*
X118127007Y-54239504D01*
X118103803Y-54245316D01*
X118080142Y-54248826D01*
X118056250Y-54250000D01*
X117143750Y-54250000D01*
X117119858Y-54248826D01*
X117096197Y-54245316D01*
X117072993Y-54239504D01*
X117050471Y-54231446D01*
X117028847Y-54221218D01*
X117008330Y-54208921D01*
X116989117Y-54194671D01*
X116971393Y-54178607D01*
X116955329Y-54160883D01*
X116941079Y-54141670D01*
X116928782Y-54121153D01*
X116918554Y-54099529D01*
X116910496Y-54077007D01*
X116904684Y-54053803D01*
X116901174Y-54030142D01*
X116900000Y-54006250D01*
X116900000Y-53518750D01*
X116901174Y-53494858D01*
X116904684Y-53471197D01*
X116910496Y-53447993D01*
X116918554Y-53425471D01*
X116928782Y-53403847D01*
X116941079Y-53383330D01*
X116955329Y-53364117D01*
X116971393Y-53346393D01*
X116989117Y-53330329D01*
X117008330Y-53316079D01*
X117028847Y-53303782D01*
X117050471Y-53293554D01*
X117072993Y-53285496D01*
X117096197Y-53279684D01*
X117119858Y-53276174D01*
X117143750Y-53275000D01*
X118056250Y-53275000D01*
X118080142Y-53276174D01*
X118080142Y-53276174D01*
G37*
D11*
X117600000Y-53762500D03*
D10*
G36*
X81180142Y-33551174D02*
G01*
X81203803Y-33554684D01*
X81227007Y-33560496D01*
X81249529Y-33568554D01*
X81271153Y-33578782D01*
X81291670Y-33591079D01*
X81310883Y-33605329D01*
X81328607Y-33621393D01*
X81344671Y-33639117D01*
X81358921Y-33658330D01*
X81371218Y-33678847D01*
X81381446Y-33700471D01*
X81389504Y-33722993D01*
X81395316Y-33746197D01*
X81398826Y-33769858D01*
X81400000Y-33793750D01*
X81400000Y-34281250D01*
X81398826Y-34305142D01*
X81395316Y-34328803D01*
X81389504Y-34352007D01*
X81381446Y-34374529D01*
X81371218Y-34396153D01*
X81358921Y-34416670D01*
X81344671Y-34435883D01*
X81328607Y-34453607D01*
X81310883Y-34469671D01*
X81291670Y-34483921D01*
X81271153Y-34496218D01*
X81249529Y-34506446D01*
X81227007Y-34514504D01*
X81203803Y-34520316D01*
X81180142Y-34523826D01*
X81156250Y-34525000D01*
X80243750Y-34525000D01*
X80219858Y-34523826D01*
X80196197Y-34520316D01*
X80172993Y-34514504D01*
X80150471Y-34506446D01*
X80128847Y-34496218D01*
X80108330Y-34483921D01*
X80089117Y-34469671D01*
X80071393Y-34453607D01*
X80055329Y-34435883D01*
X80041079Y-34416670D01*
X80028782Y-34396153D01*
X80018554Y-34374529D01*
X80010496Y-34352007D01*
X80004684Y-34328803D01*
X80001174Y-34305142D01*
X80000000Y-34281250D01*
X80000000Y-33793750D01*
X80001174Y-33769858D01*
X80004684Y-33746197D01*
X80010496Y-33722993D01*
X80018554Y-33700471D01*
X80028782Y-33678847D01*
X80041079Y-33658330D01*
X80055329Y-33639117D01*
X80071393Y-33621393D01*
X80089117Y-33605329D01*
X80108330Y-33591079D01*
X80128847Y-33578782D01*
X80150471Y-33568554D01*
X80172993Y-33560496D01*
X80196197Y-33554684D01*
X80219858Y-33551174D01*
X80243750Y-33550000D01*
X81156250Y-33550000D01*
X81180142Y-33551174D01*
X81180142Y-33551174D01*
G37*
D11*
X80700000Y-34037500D03*
D10*
G36*
X81180142Y-31676174D02*
G01*
X81203803Y-31679684D01*
X81227007Y-31685496D01*
X81249529Y-31693554D01*
X81271153Y-31703782D01*
X81291670Y-31716079D01*
X81310883Y-31730329D01*
X81328607Y-31746393D01*
X81344671Y-31764117D01*
X81358921Y-31783330D01*
X81371218Y-31803847D01*
X81381446Y-31825471D01*
X81389504Y-31847993D01*
X81395316Y-31871197D01*
X81398826Y-31894858D01*
X81400000Y-31918750D01*
X81400000Y-32406250D01*
X81398826Y-32430142D01*
X81395316Y-32453803D01*
X81389504Y-32477007D01*
X81381446Y-32499529D01*
X81371218Y-32521153D01*
X81358921Y-32541670D01*
X81344671Y-32560883D01*
X81328607Y-32578607D01*
X81310883Y-32594671D01*
X81291670Y-32608921D01*
X81271153Y-32621218D01*
X81249529Y-32631446D01*
X81227007Y-32639504D01*
X81203803Y-32645316D01*
X81180142Y-32648826D01*
X81156250Y-32650000D01*
X80243750Y-32650000D01*
X80219858Y-32648826D01*
X80196197Y-32645316D01*
X80172993Y-32639504D01*
X80150471Y-32631446D01*
X80128847Y-32621218D01*
X80108330Y-32608921D01*
X80089117Y-32594671D01*
X80071393Y-32578607D01*
X80055329Y-32560883D01*
X80041079Y-32541670D01*
X80028782Y-32521153D01*
X80018554Y-32499529D01*
X80010496Y-32477007D01*
X80004684Y-32453803D01*
X80001174Y-32430142D01*
X80000000Y-32406250D01*
X80000000Y-31918750D01*
X80001174Y-31894858D01*
X80004684Y-31871197D01*
X80010496Y-31847993D01*
X80018554Y-31825471D01*
X80028782Y-31803847D01*
X80041079Y-31783330D01*
X80055329Y-31764117D01*
X80071393Y-31746393D01*
X80089117Y-31730329D01*
X80108330Y-31716079D01*
X80128847Y-31703782D01*
X80150471Y-31693554D01*
X80172993Y-31685496D01*
X80196197Y-31679684D01*
X80219858Y-31676174D01*
X80243750Y-31675000D01*
X81156250Y-31675000D01*
X81180142Y-31676174D01*
X81180142Y-31676174D01*
G37*
D11*
X80700000Y-32162500D03*
D10*
G36*
X74480142Y-41276174D02*
G01*
X74503803Y-41279684D01*
X74527007Y-41285496D01*
X74549529Y-41293554D01*
X74571153Y-41303782D01*
X74591670Y-41316079D01*
X74610883Y-41330329D01*
X74628607Y-41346393D01*
X74644671Y-41364117D01*
X74658921Y-41383330D01*
X74671218Y-41403847D01*
X74681446Y-41425471D01*
X74689504Y-41447993D01*
X74695316Y-41471197D01*
X74698826Y-41494858D01*
X74700000Y-41518750D01*
X74700000Y-42006250D01*
X74698826Y-42030142D01*
X74695316Y-42053803D01*
X74689504Y-42077007D01*
X74681446Y-42099529D01*
X74671218Y-42121153D01*
X74658921Y-42141670D01*
X74644671Y-42160883D01*
X74628607Y-42178607D01*
X74610883Y-42194671D01*
X74591670Y-42208921D01*
X74571153Y-42221218D01*
X74549529Y-42231446D01*
X74527007Y-42239504D01*
X74503803Y-42245316D01*
X74480142Y-42248826D01*
X74456250Y-42250000D01*
X73543750Y-42250000D01*
X73519858Y-42248826D01*
X73496197Y-42245316D01*
X73472993Y-42239504D01*
X73450471Y-42231446D01*
X73428847Y-42221218D01*
X73408330Y-42208921D01*
X73389117Y-42194671D01*
X73371393Y-42178607D01*
X73355329Y-42160883D01*
X73341079Y-42141670D01*
X73328782Y-42121153D01*
X73318554Y-42099529D01*
X73310496Y-42077007D01*
X73304684Y-42053803D01*
X73301174Y-42030142D01*
X73300000Y-42006250D01*
X73300000Y-41518750D01*
X73301174Y-41494858D01*
X73304684Y-41471197D01*
X73310496Y-41447993D01*
X73318554Y-41425471D01*
X73328782Y-41403847D01*
X73341079Y-41383330D01*
X73355329Y-41364117D01*
X73371393Y-41346393D01*
X73389117Y-41330329D01*
X73408330Y-41316079D01*
X73428847Y-41303782D01*
X73450471Y-41293554D01*
X73472993Y-41285496D01*
X73496197Y-41279684D01*
X73519858Y-41276174D01*
X73543750Y-41275000D01*
X74456250Y-41275000D01*
X74480142Y-41276174D01*
X74480142Y-41276174D01*
G37*
D11*
X74000000Y-41762500D03*
D10*
G36*
X74480142Y-43151174D02*
G01*
X74503803Y-43154684D01*
X74527007Y-43160496D01*
X74549529Y-43168554D01*
X74571153Y-43178782D01*
X74591670Y-43191079D01*
X74610883Y-43205329D01*
X74628607Y-43221393D01*
X74644671Y-43239117D01*
X74658921Y-43258330D01*
X74671218Y-43278847D01*
X74681446Y-43300471D01*
X74689504Y-43322993D01*
X74695316Y-43346197D01*
X74698826Y-43369858D01*
X74700000Y-43393750D01*
X74700000Y-43881250D01*
X74698826Y-43905142D01*
X74695316Y-43928803D01*
X74689504Y-43952007D01*
X74681446Y-43974529D01*
X74671218Y-43996153D01*
X74658921Y-44016670D01*
X74644671Y-44035883D01*
X74628607Y-44053607D01*
X74610883Y-44069671D01*
X74591670Y-44083921D01*
X74571153Y-44096218D01*
X74549529Y-44106446D01*
X74527007Y-44114504D01*
X74503803Y-44120316D01*
X74480142Y-44123826D01*
X74456250Y-44125000D01*
X73543750Y-44125000D01*
X73519858Y-44123826D01*
X73496197Y-44120316D01*
X73472993Y-44114504D01*
X73450471Y-44106446D01*
X73428847Y-44096218D01*
X73408330Y-44083921D01*
X73389117Y-44069671D01*
X73371393Y-44053607D01*
X73355329Y-44035883D01*
X73341079Y-44016670D01*
X73328782Y-43996153D01*
X73318554Y-43974529D01*
X73310496Y-43952007D01*
X73304684Y-43928803D01*
X73301174Y-43905142D01*
X73300000Y-43881250D01*
X73300000Y-43393750D01*
X73301174Y-43369858D01*
X73304684Y-43346197D01*
X73310496Y-43322993D01*
X73318554Y-43300471D01*
X73328782Y-43278847D01*
X73341079Y-43258330D01*
X73355329Y-43239117D01*
X73371393Y-43221393D01*
X73389117Y-43205329D01*
X73408330Y-43191079D01*
X73428847Y-43178782D01*
X73450471Y-43168554D01*
X73472993Y-43160496D01*
X73496197Y-43154684D01*
X73519858Y-43151174D01*
X73543750Y-43150000D01*
X74456250Y-43150000D01*
X74480142Y-43151174D01*
X74480142Y-43151174D01*
G37*
D11*
X74000000Y-43637500D03*
D10*
G36*
X75330142Y-62876174D02*
G01*
X75353803Y-62879684D01*
X75377007Y-62885496D01*
X75399529Y-62893554D01*
X75421153Y-62903782D01*
X75441670Y-62916079D01*
X75460883Y-62930329D01*
X75478607Y-62946393D01*
X75494671Y-62964117D01*
X75508921Y-62983330D01*
X75521218Y-63003847D01*
X75531446Y-63025471D01*
X75539504Y-63047993D01*
X75545316Y-63071197D01*
X75548826Y-63094858D01*
X75550000Y-63118750D01*
X75550000Y-63606250D01*
X75548826Y-63630142D01*
X75545316Y-63653803D01*
X75539504Y-63677007D01*
X75531446Y-63699529D01*
X75521218Y-63721153D01*
X75508921Y-63741670D01*
X75494671Y-63760883D01*
X75478607Y-63778607D01*
X75460883Y-63794671D01*
X75441670Y-63808921D01*
X75421153Y-63821218D01*
X75399529Y-63831446D01*
X75377007Y-63839504D01*
X75353803Y-63845316D01*
X75330142Y-63848826D01*
X75306250Y-63850000D01*
X74393750Y-63850000D01*
X74369858Y-63848826D01*
X74346197Y-63845316D01*
X74322993Y-63839504D01*
X74300471Y-63831446D01*
X74278847Y-63821218D01*
X74258330Y-63808921D01*
X74239117Y-63794671D01*
X74221393Y-63778607D01*
X74205329Y-63760883D01*
X74191079Y-63741670D01*
X74178782Y-63721153D01*
X74168554Y-63699529D01*
X74160496Y-63677007D01*
X74154684Y-63653803D01*
X74151174Y-63630142D01*
X74150000Y-63606250D01*
X74150000Y-63118750D01*
X74151174Y-63094858D01*
X74154684Y-63071197D01*
X74160496Y-63047993D01*
X74168554Y-63025471D01*
X74178782Y-63003847D01*
X74191079Y-62983330D01*
X74205329Y-62964117D01*
X74221393Y-62946393D01*
X74239117Y-62930329D01*
X74258330Y-62916079D01*
X74278847Y-62903782D01*
X74300471Y-62893554D01*
X74322993Y-62885496D01*
X74346197Y-62879684D01*
X74369858Y-62876174D01*
X74393750Y-62875000D01*
X75306250Y-62875000D01*
X75330142Y-62876174D01*
X75330142Y-62876174D01*
G37*
D11*
X74850000Y-63362500D03*
D10*
G36*
X75330142Y-64751174D02*
G01*
X75353803Y-64754684D01*
X75377007Y-64760496D01*
X75399529Y-64768554D01*
X75421153Y-64778782D01*
X75441670Y-64791079D01*
X75460883Y-64805329D01*
X75478607Y-64821393D01*
X75494671Y-64839117D01*
X75508921Y-64858330D01*
X75521218Y-64878847D01*
X75531446Y-64900471D01*
X75539504Y-64922993D01*
X75545316Y-64946197D01*
X75548826Y-64969858D01*
X75550000Y-64993750D01*
X75550000Y-65481250D01*
X75548826Y-65505142D01*
X75545316Y-65528803D01*
X75539504Y-65552007D01*
X75531446Y-65574529D01*
X75521218Y-65596153D01*
X75508921Y-65616670D01*
X75494671Y-65635883D01*
X75478607Y-65653607D01*
X75460883Y-65669671D01*
X75441670Y-65683921D01*
X75421153Y-65696218D01*
X75399529Y-65706446D01*
X75377007Y-65714504D01*
X75353803Y-65720316D01*
X75330142Y-65723826D01*
X75306250Y-65725000D01*
X74393750Y-65725000D01*
X74369858Y-65723826D01*
X74346197Y-65720316D01*
X74322993Y-65714504D01*
X74300471Y-65706446D01*
X74278847Y-65696218D01*
X74258330Y-65683921D01*
X74239117Y-65669671D01*
X74221393Y-65653607D01*
X74205329Y-65635883D01*
X74191079Y-65616670D01*
X74178782Y-65596153D01*
X74168554Y-65574529D01*
X74160496Y-65552007D01*
X74154684Y-65528803D01*
X74151174Y-65505142D01*
X74150000Y-65481250D01*
X74150000Y-64993750D01*
X74151174Y-64969858D01*
X74154684Y-64946197D01*
X74160496Y-64922993D01*
X74168554Y-64900471D01*
X74178782Y-64878847D01*
X74191079Y-64858330D01*
X74205329Y-64839117D01*
X74221393Y-64821393D01*
X74239117Y-64805329D01*
X74258330Y-64791079D01*
X74278847Y-64778782D01*
X74300471Y-64768554D01*
X74322993Y-64760496D01*
X74346197Y-64754684D01*
X74369858Y-64751174D01*
X74393750Y-64750000D01*
X75306250Y-64750000D01*
X75330142Y-64751174D01*
X75330142Y-64751174D01*
G37*
D11*
X74850000Y-65237500D03*
D10*
G36*
X110980142Y-63276174D02*
G01*
X111003803Y-63279684D01*
X111027007Y-63285496D01*
X111049529Y-63293554D01*
X111071153Y-63303782D01*
X111091670Y-63316079D01*
X111110883Y-63330329D01*
X111128607Y-63346393D01*
X111144671Y-63364117D01*
X111158921Y-63383330D01*
X111171218Y-63403847D01*
X111181446Y-63425471D01*
X111189504Y-63447993D01*
X111195316Y-63471197D01*
X111198826Y-63494858D01*
X111200000Y-63518750D01*
X111200000Y-64006250D01*
X111198826Y-64030142D01*
X111195316Y-64053803D01*
X111189504Y-64077007D01*
X111181446Y-64099529D01*
X111171218Y-64121153D01*
X111158921Y-64141670D01*
X111144671Y-64160883D01*
X111128607Y-64178607D01*
X111110883Y-64194671D01*
X111091670Y-64208921D01*
X111071153Y-64221218D01*
X111049529Y-64231446D01*
X111027007Y-64239504D01*
X111003803Y-64245316D01*
X110980142Y-64248826D01*
X110956250Y-64250000D01*
X110043750Y-64250000D01*
X110019858Y-64248826D01*
X109996197Y-64245316D01*
X109972993Y-64239504D01*
X109950471Y-64231446D01*
X109928847Y-64221218D01*
X109908330Y-64208921D01*
X109889117Y-64194671D01*
X109871393Y-64178607D01*
X109855329Y-64160883D01*
X109841079Y-64141670D01*
X109828782Y-64121153D01*
X109818554Y-64099529D01*
X109810496Y-64077007D01*
X109804684Y-64053803D01*
X109801174Y-64030142D01*
X109800000Y-64006250D01*
X109800000Y-63518750D01*
X109801174Y-63494858D01*
X109804684Y-63471197D01*
X109810496Y-63447993D01*
X109818554Y-63425471D01*
X109828782Y-63403847D01*
X109841079Y-63383330D01*
X109855329Y-63364117D01*
X109871393Y-63346393D01*
X109889117Y-63330329D01*
X109908330Y-63316079D01*
X109928847Y-63303782D01*
X109950471Y-63293554D01*
X109972993Y-63285496D01*
X109996197Y-63279684D01*
X110019858Y-63276174D01*
X110043750Y-63275000D01*
X110956250Y-63275000D01*
X110980142Y-63276174D01*
X110980142Y-63276174D01*
G37*
D11*
X110500000Y-63762500D03*
D10*
G36*
X110980142Y-65151174D02*
G01*
X111003803Y-65154684D01*
X111027007Y-65160496D01*
X111049529Y-65168554D01*
X111071153Y-65178782D01*
X111091670Y-65191079D01*
X111110883Y-65205329D01*
X111128607Y-65221393D01*
X111144671Y-65239117D01*
X111158921Y-65258330D01*
X111171218Y-65278847D01*
X111181446Y-65300471D01*
X111189504Y-65322993D01*
X111195316Y-65346197D01*
X111198826Y-65369858D01*
X111200000Y-65393750D01*
X111200000Y-65881250D01*
X111198826Y-65905142D01*
X111195316Y-65928803D01*
X111189504Y-65952007D01*
X111181446Y-65974529D01*
X111171218Y-65996153D01*
X111158921Y-66016670D01*
X111144671Y-66035883D01*
X111128607Y-66053607D01*
X111110883Y-66069671D01*
X111091670Y-66083921D01*
X111071153Y-66096218D01*
X111049529Y-66106446D01*
X111027007Y-66114504D01*
X111003803Y-66120316D01*
X110980142Y-66123826D01*
X110956250Y-66125000D01*
X110043750Y-66125000D01*
X110019858Y-66123826D01*
X109996197Y-66120316D01*
X109972993Y-66114504D01*
X109950471Y-66106446D01*
X109928847Y-66096218D01*
X109908330Y-66083921D01*
X109889117Y-66069671D01*
X109871393Y-66053607D01*
X109855329Y-66035883D01*
X109841079Y-66016670D01*
X109828782Y-65996153D01*
X109818554Y-65974529D01*
X109810496Y-65952007D01*
X109804684Y-65928803D01*
X109801174Y-65905142D01*
X109800000Y-65881250D01*
X109800000Y-65393750D01*
X109801174Y-65369858D01*
X109804684Y-65346197D01*
X109810496Y-65322993D01*
X109818554Y-65300471D01*
X109828782Y-65278847D01*
X109841079Y-65258330D01*
X109855329Y-65239117D01*
X109871393Y-65221393D01*
X109889117Y-65205329D01*
X109908330Y-65191079D01*
X109928847Y-65178782D01*
X109950471Y-65168554D01*
X109972993Y-65160496D01*
X109996197Y-65154684D01*
X110019858Y-65151174D01*
X110043750Y-65150000D01*
X110956250Y-65150000D01*
X110980142Y-65151174D01*
X110980142Y-65151174D01*
G37*
D11*
X110500000Y-65637500D03*
D10*
G36*
X76505142Y-53751174D02*
G01*
X76528803Y-53754684D01*
X76552007Y-53760496D01*
X76574529Y-53768554D01*
X76596153Y-53778782D01*
X76616670Y-53791079D01*
X76635883Y-53805329D01*
X76653607Y-53821393D01*
X76669671Y-53839117D01*
X76683921Y-53858330D01*
X76696218Y-53878847D01*
X76706446Y-53900471D01*
X76714504Y-53922993D01*
X76720316Y-53946197D01*
X76723826Y-53969858D01*
X76725000Y-53993750D01*
X76725000Y-54906250D01*
X76723826Y-54930142D01*
X76720316Y-54953803D01*
X76714504Y-54977007D01*
X76706446Y-54999529D01*
X76696218Y-55021153D01*
X76683921Y-55041670D01*
X76669671Y-55060883D01*
X76653607Y-55078607D01*
X76635883Y-55094671D01*
X76616670Y-55108921D01*
X76596153Y-55121218D01*
X76574529Y-55131446D01*
X76552007Y-55139504D01*
X76528803Y-55145316D01*
X76505142Y-55148826D01*
X76481250Y-55150000D01*
X75993750Y-55150000D01*
X75969858Y-55148826D01*
X75946197Y-55145316D01*
X75922993Y-55139504D01*
X75900471Y-55131446D01*
X75878847Y-55121218D01*
X75858330Y-55108921D01*
X75839117Y-55094671D01*
X75821393Y-55078607D01*
X75805329Y-55060883D01*
X75791079Y-55041670D01*
X75778782Y-55021153D01*
X75768554Y-54999529D01*
X75760496Y-54977007D01*
X75754684Y-54953803D01*
X75751174Y-54930142D01*
X75750000Y-54906250D01*
X75750000Y-53993750D01*
X75751174Y-53969858D01*
X75754684Y-53946197D01*
X75760496Y-53922993D01*
X75768554Y-53900471D01*
X75778782Y-53878847D01*
X75791079Y-53858330D01*
X75805329Y-53839117D01*
X75821393Y-53821393D01*
X75839117Y-53805329D01*
X75858330Y-53791079D01*
X75878847Y-53778782D01*
X75900471Y-53768554D01*
X75922993Y-53760496D01*
X75946197Y-53754684D01*
X75969858Y-53751174D01*
X75993750Y-53750000D01*
X76481250Y-53750000D01*
X76505142Y-53751174D01*
X76505142Y-53751174D01*
G37*
D11*
X76237500Y-54450000D03*
D10*
G36*
X74630142Y-53751174D02*
G01*
X74653803Y-53754684D01*
X74677007Y-53760496D01*
X74699529Y-53768554D01*
X74721153Y-53778782D01*
X74741670Y-53791079D01*
X74760883Y-53805329D01*
X74778607Y-53821393D01*
X74794671Y-53839117D01*
X74808921Y-53858330D01*
X74821218Y-53878847D01*
X74831446Y-53900471D01*
X74839504Y-53922993D01*
X74845316Y-53946197D01*
X74848826Y-53969858D01*
X74850000Y-53993750D01*
X74850000Y-54906250D01*
X74848826Y-54930142D01*
X74845316Y-54953803D01*
X74839504Y-54977007D01*
X74831446Y-54999529D01*
X74821218Y-55021153D01*
X74808921Y-55041670D01*
X74794671Y-55060883D01*
X74778607Y-55078607D01*
X74760883Y-55094671D01*
X74741670Y-55108921D01*
X74721153Y-55121218D01*
X74699529Y-55131446D01*
X74677007Y-55139504D01*
X74653803Y-55145316D01*
X74630142Y-55148826D01*
X74606250Y-55150000D01*
X74118750Y-55150000D01*
X74094858Y-55148826D01*
X74071197Y-55145316D01*
X74047993Y-55139504D01*
X74025471Y-55131446D01*
X74003847Y-55121218D01*
X73983330Y-55108921D01*
X73964117Y-55094671D01*
X73946393Y-55078607D01*
X73930329Y-55060883D01*
X73916079Y-55041670D01*
X73903782Y-55021153D01*
X73893554Y-54999529D01*
X73885496Y-54977007D01*
X73879684Y-54953803D01*
X73876174Y-54930142D01*
X73875000Y-54906250D01*
X73875000Y-53993750D01*
X73876174Y-53969858D01*
X73879684Y-53946197D01*
X73885496Y-53922993D01*
X73893554Y-53900471D01*
X73903782Y-53878847D01*
X73916079Y-53858330D01*
X73930329Y-53839117D01*
X73946393Y-53821393D01*
X73964117Y-53805329D01*
X73983330Y-53791079D01*
X74003847Y-53778782D01*
X74025471Y-53768554D01*
X74047993Y-53760496D01*
X74071197Y-53754684D01*
X74094858Y-53751174D01*
X74118750Y-53750000D01*
X74606250Y-53750000D01*
X74630142Y-53751174D01*
X74630142Y-53751174D01*
G37*
D11*
X74362500Y-54450000D03*
D10*
G36*
X109980142Y-54601174D02*
G01*
X110003803Y-54604684D01*
X110027007Y-54610496D01*
X110049529Y-54618554D01*
X110071153Y-54628782D01*
X110091670Y-54641079D01*
X110110883Y-54655329D01*
X110128607Y-54671393D01*
X110144671Y-54689117D01*
X110158921Y-54708330D01*
X110171218Y-54728847D01*
X110181446Y-54750471D01*
X110189504Y-54772993D01*
X110195316Y-54796197D01*
X110198826Y-54819858D01*
X110200000Y-54843750D01*
X110200000Y-55756250D01*
X110198826Y-55780142D01*
X110195316Y-55803803D01*
X110189504Y-55827007D01*
X110181446Y-55849529D01*
X110171218Y-55871153D01*
X110158921Y-55891670D01*
X110144671Y-55910883D01*
X110128607Y-55928607D01*
X110110883Y-55944671D01*
X110091670Y-55958921D01*
X110071153Y-55971218D01*
X110049529Y-55981446D01*
X110027007Y-55989504D01*
X110003803Y-55995316D01*
X109980142Y-55998826D01*
X109956250Y-56000000D01*
X109468750Y-56000000D01*
X109444858Y-55998826D01*
X109421197Y-55995316D01*
X109397993Y-55989504D01*
X109375471Y-55981446D01*
X109353847Y-55971218D01*
X109333330Y-55958921D01*
X109314117Y-55944671D01*
X109296393Y-55928607D01*
X109280329Y-55910883D01*
X109266079Y-55891670D01*
X109253782Y-55871153D01*
X109243554Y-55849529D01*
X109235496Y-55827007D01*
X109229684Y-55803803D01*
X109226174Y-55780142D01*
X109225000Y-55756250D01*
X109225000Y-54843750D01*
X109226174Y-54819858D01*
X109229684Y-54796197D01*
X109235496Y-54772993D01*
X109243554Y-54750471D01*
X109253782Y-54728847D01*
X109266079Y-54708330D01*
X109280329Y-54689117D01*
X109296393Y-54671393D01*
X109314117Y-54655329D01*
X109333330Y-54641079D01*
X109353847Y-54628782D01*
X109375471Y-54618554D01*
X109397993Y-54610496D01*
X109421197Y-54604684D01*
X109444858Y-54601174D01*
X109468750Y-54600000D01*
X109956250Y-54600000D01*
X109980142Y-54601174D01*
X109980142Y-54601174D01*
G37*
D11*
X109712500Y-55300000D03*
D10*
G36*
X111855142Y-54601174D02*
G01*
X111878803Y-54604684D01*
X111902007Y-54610496D01*
X111924529Y-54618554D01*
X111946153Y-54628782D01*
X111966670Y-54641079D01*
X111985883Y-54655329D01*
X112003607Y-54671393D01*
X112019671Y-54689117D01*
X112033921Y-54708330D01*
X112046218Y-54728847D01*
X112056446Y-54750471D01*
X112064504Y-54772993D01*
X112070316Y-54796197D01*
X112073826Y-54819858D01*
X112075000Y-54843750D01*
X112075000Y-55756250D01*
X112073826Y-55780142D01*
X112070316Y-55803803D01*
X112064504Y-55827007D01*
X112056446Y-55849529D01*
X112046218Y-55871153D01*
X112033921Y-55891670D01*
X112019671Y-55910883D01*
X112003607Y-55928607D01*
X111985883Y-55944671D01*
X111966670Y-55958921D01*
X111946153Y-55971218D01*
X111924529Y-55981446D01*
X111902007Y-55989504D01*
X111878803Y-55995316D01*
X111855142Y-55998826D01*
X111831250Y-56000000D01*
X111343750Y-56000000D01*
X111319858Y-55998826D01*
X111296197Y-55995316D01*
X111272993Y-55989504D01*
X111250471Y-55981446D01*
X111228847Y-55971218D01*
X111208330Y-55958921D01*
X111189117Y-55944671D01*
X111171393Y-55928607D01*
X111155329Y-55910883D01*
X111141079Y-55891670D01*
X111128782Y-55871153D01*
X111118554Y-55849529D01*
X111110496Y-55827007D01*
X111104684Y-55803803D01*
X111101174Y-55780142D01*
X111100000Y-55756250D01*
X111100000Y-54843750D01*
X111101174Y-54819858D01*
X111104684Y-54796197D01*
X111110496Y-54772993D01*
X111118554Y-54750471D01*
X111128782Y-54728847D01*
X111141079Y-54708330D01*
X111155329Y-54689117D01*
X111171393Y-54671393D01*
X111189117Y-54655329D01*
X111208330Y-54641079D01*
X111228847Y-54628782D01*
X111250471Y-54618554D01*
X111272993Y-54610496D01*
X111296197Y-54604684D01*
X111319858Y-54601174D01*
X111343750Y-54600000D01*
X111831250Y-54600000D01*
X111855142Y-54601174D01*
X111855142Y-54601174D01*
G37*
D11*
X111587500Y-55300000D03*
D10*
G36*
X73330142Y-32401174D02*
G01*
X73353803Y-32404684D01*
X73377007Y-32410496D01*
X73399529Y-32418554D01*
X73421153Y-32428782D01*
X73441670Y-32441079D01*
X73460883Y-32455329D01*
X73478607Y-32471393D01*
X73494671Y-32489117D01*
X73508921Y-32508330D01*
X73521218Y-32528847D01*
X73531446Y-32550471D01*
X73539504Y-32572993D01*
X73545316Y-32596197D01*
X73548826Y-32619858D01*
X73550000Y-32643750D01*
X73550000Y-33556250D01*
X73548826Y-33580142D01*
X73545316Y-33603803D01*
X73539504Y-33627007D01*
X73531446Y-33649529D01*
X73521218Y-33671153D01*
X73508921Y-33691670D01*
X73494671Y-33710883D01*
X73478607Y-33728607D01*
X73460883Y-33744671D01*
X73441670Y-33758921D01*
X73421153Y-33771218D01*
X73399529Y-33781446D01*
X73377007Y-33789504D01*
X73353803Y-33795316D01*
X73330142Y-33798826D01*
X73306250Y-33800000D01*
X72818750Y-33800000D01*
X72794858Y-33798826D01*
X72771197Y-33795316D01*
X72747993Y-33789504D01*
X72725471Y-33781446D01*
X72703847Y-33771218D01*
X72683330Y-33758921D01*
X72664117Y-33744671D01*
X72646393Y-33728607D01*
X72630329Y-33710883D01*
X72616079Y-33691670D01*
X72603782Y-33671153D01*
X72593554Y-33649529D01*
X72585496Y-33627007D01*
X72579684Y-33603803D01*
X72576174Y-33580142D01*
X72575000Y-33556250D01*
X72575000Y-32643750D01*
X72576174Y-32619858D01*
X72579684Y-32596197D01*
X72585496Y-32572993D01*
X72593554Y-32550471D01*
X72603782Y-32528847D01*
X72616079Y-32508330D01*
X72630329Y-32489117D01*
X72646393Y-32471393D01*
X72664117Y-32455329D01*
X72683330Y-32441079D01*
X72703847Y-32428782D01*
X72725471Y-32418554D01*
X72747993Y-32410496D01*
X72771197Y-32404684D01*
X72794858Y-32401174D01*
X72818750Y-32400000D01*
X73306250Y-32400000D01*
X73330142Y-32401174D01*
X73330142Y-32401174D01*
G37*
D11*
X73062500Y-33100000D03*
D10*
G36*
X75205142Y-32401174D02*
G01*
X75228803Y-32404684D01*
X75252007Y-32410496D01*
X75274529Y-32418554D01*
X75296153Y-32428782D01*
X75316670Y-32441079D01*
X75335883Y-32455329D01*
X75353607Y-32471393D01*
X75369671Y-32489117D01*
X75383921Y-32508330D01*
X75396218Y-32528847D01*
X75406446Y-32550471D01*
X75414504Y-32572993D01*
X75420316Y-32596197D01*
X75423826Y-32619858D01*
X75425000Y-32643750D01*
X75425000Y-33556250D01*
X75423826Y-33580142D01*
X75420316Y-33603803D01*
X75414504Y-33627007D01*
X75406446Y-33649529D01*
X75396218Y-33671153D01*
X75383921Y-33691670D01*
X75369671Y-33710883D01*
X75353607Y-33728607D01*
X75335883Y-33744671D01*
X75316670Y-33758921D01*
X75296153Y-33771218D01*
X75274529Y-33781446D01*
X75252007Y-33789504D01*
X75228803Y-33795316D01*
X75205142Y-33798826D01*
X75181250Y-33800000D01*
X74693750Y-33800000D01*
X74669858Y-33798826D01*
X74646197Y-33795316D01*
X74622993Y-33789504D01*
X74600471Y-33781446D01*
X74578847Y-33771218D01*
X74558330Y-33758921D01*
X74539117Y-33744671D01*
X74521393Y-33728607D01*
X74505329Y-33710883D01*
X74491079Y-33691670D01*
X74478782Y-33671153D01*
X74468554Y-33649529D01*
X74460496Y-33627007D01*
X74454684Y-33603803D01*
X74451174Y-33580142D01*
X74450000Y-33556250D01*
X74450000Y-32643750D01*
X74451174Y-32619858D01*
X74454684Y-32596197D01*
X74460496Y-32572993D01*
X74468554Y-32550471D01*
X74478782Y-32528847D01*
X74491079Y-32508330D01*
X74505329Y-32489117D01*
X74521393Y-32471393D01*
X74539117Y-32455329D01*
X74558330Y-32441079D01*
X74578847Y-32428782D01*
X74600471Y-32418554D01*
X74622993Y-32410496D01*
X74646197Y-32404684D01*
X74669858Y-32401174D01*
X74693750Y-32400000D01*
X75181250Y-32400000D01*
X75205142Y-32401174D01*
X75205142Y-32401174D01*
G37*
D11*
X74937500Y-33100000D03*
D12*
X135950000Y-64550000D03*
D13*
X135950000Y-70850000D03*
X138250000Y-70850000D03*
X133650000Y-70850000D03*
D10*
G36*
X127930142Y-65551174D02*
G01*
X127953803Y-65554684D01*
X127977007Y-65560496D01*
X127999529Y-65568554D01*
X128021153Y-65578782D01*
X128041670Y-65591079D01*
X128060883Y-65605329D01*
X128078607Y-65621393D01*
X128094671Y-65639117D01*
X128108921Y-65658330D01*
X128121218Y-65678847D01*
X128131446Y-65700471D01*
X128139504Y-65722993D01*
X128145316Y-65746197D01*
X128148826Y-65769858D01*
X128150000Y-65793750D01*
X128150000Y-66706250D01*
X128148826Y-66730142D01*
X128145316Y-66753803D01*
X128139504Y-66777007D01*
X128131446Y-66799529D01*
X128121218Y-66821153D01*
X128108921Y-66841670D01*
X128094671Y-66860883D01*
X128078607Y-66878607D01*
X128060883Y-66894671D01*
X128041670Y-66908921D01*
X128021153Y-66921218D01*
X127999529Y-66931446D01*
X127977007Y-66939504D01*
X127953803Y-66945316D01*
X127930142Y-66948826D01*
X127906250Y-66950000D01*
X127418750Y-66950000D01*
X127394858Y-66948826D01*
X127371197Y-66945316D01*
X127347993Y-66939504D01*
X127325471Y-66931446D01*
X127303847Y-66921218D01*
X127283330Y-66908921D01*
X127264117Y-66894671D01*
X127246393Y-66878607D01*
X127230329Y-66860883D01*
X127216079Y-66841670D01*
X127203782Y-66821153D01*
X127193554Y-66799529D01*
X127185496Y-66777007D01*
X127179684Y-66753803D01*
X127176174Y-66730142D01*
X127175000Y-66706250D01*
X127175000Y-65793750D01*
X127176174Y-65769858D01*
X127179684Y-65746197D01*
X127185496Y-65722993D01*
X127193554Y-65700471D01*
X127203782Y-65678847D01*
X127216079Y-65658330D01*
X127230329Y-65639117D01*
X127246393Y-65621393D01*
X127264117Y-65605329D01*
X127283330Y-65591079D01*
X127303847Y-65578782D01*
X127325471Y-65568554D01*
X127347993Y-65560496D01*
X127371197Y-65554684D01*
X127394858Y-65551174D01*
X127418750Y-65550000D01*
X127906250Y-65550000D01*
X127930142Y-65551174D01*
X127930142Y-65551174D01*
G37*
D11*
X127662500Y-66250000D03*
D10*
G36*
X129805142Y-65551174D02*
G01*
X129828803Y-65554684D01*
X129852007Y-65560496D01*
X129874529Y-65568554D01*
X129896153Y-65578782D01*
X129916670Y-65591079D01*
X129935883Y-65605329D01*
X129953607Y-65621393D01*
X129969671Y-65639117D01*
X129983921Y-65658330D01*
X129996218Y-65678847D01*
X130006446Y-65700471D01*
X130014504Y-65722993D01*
X130020316Y-65746197D01*
X130023826Y-65769858D01*
X130025000Y-65793750D01*
X130025000Y-66706250D01*
X130023826Y-66730142D01*
X130020316Y-66753803D01*
X130014504Y-66777007D01*
X130006446Y-66799529D01*
X129996218Y-66821153D01*
X129983921Y-66841670D01*
X129969671Y-66860883D01*
X129953607Y-66878607D01*
X129935883Y-66894671D01*
X129916670Y-66908921D01*
X129896153Y-66921218D01*
X129874529Y-66931446D01*
X129852007Y-66939504D01*
X129828803Y-66945316D01*
X129805142Y-66948826D01*
X129781250Y-66950000D01*
X129293750Y-66950000D01*
X129269858Y-66948826D01*
X129246197Y-66945316D01*
X129222993Y-66939504D01*
X129200471Y-66931446D01*
X129178847Y-66921218D01*
X129158330Y-66908921D01*
X129139117Y-66894671D01*
X129121393Y-66878607D01*
X129105329Y-66860883D01*
X129091079Y-66841670D01*
X129078782Y-66821153D01*
X129068554Y-66799529D01*
X129060496Y-66777007D01*
X129054684Y-66753803D01*
X129051174Y-66730142D01*
X129050000Y-66706250D01*
X129050000Y-65793750D01*
X129051174Y-65769858D01*
X129054684Y-65746197D01*
X129060496Y-65722993D01*
X129068554Y-65700471D01*
X129078782Y-65678847D01*
X129091079Y-65658330D01*
X129105329Y-65639117D01*
X129121393Y-65621393D01*
X129139117Y-65605329D01*
X129158330Y-65591079D01*
X129178847Y-65578782D01*
X129200471Y-65568554D01*
X129222993Y-65560496D01*
X129246197Y-65554684D01*
X129269858Y-65551174D01*
X129293750Y-65550000D01*
X129781250Y-65550000D01*
X129805142Y-65551174D01*
X129805142Y-65551174D01*
G37*
D11*
X129537500Y-66250000D03*
M02*
